<svg width="27" height="23" viewBox="0 0 27 23" fill="none" xmlns="http://www.w3.org/2000/svg">
<path d="M22.679 10.125H8.01593C7.31697 10.125 6.75031 10.6916 6.75031 11.3906C6.75031 12.0896 7.31697 12.6562 8.01593 12.6562H22.679L21.0426 14.2926C20.5484 14.7868 20.5484 15.5882 21.0426 16.0824C21.5368 16.5767 22.3382 16.5767 22.8325 16.0824L26.6292 12.2856C26.6588 12.256 26.6868 12.225 26.7133 12.1926C26.7249 12.1785 26.7349 12.1636 26.7458 12.1491C26.7597 12.1306 26.774 12.1124 26.787 12.0931C26.7988 12.0755 26.809 12.0572 26.8198 12.0391C26.8302 12.0217 26.841 12.0048 26.8506 11.9869C26.8605 11.9683 26.8689 11.9492 26.8778 11.9303C26.8866 11.9119 26.8958 11.8936 26.9036 11.8747C26.9112 11.8563 26.9175 11.8374 26.9241 11.8187C26.9315 11.7985 26.9393 11.7785 26.9455 11.7578C26.9511 11.7391 26.9553 11.7201 26.96 11.7011C26.9653 11.6801 26.9712 11.6592 26.9754 11.6377C26.9798 11.6159 26.9824 11.5938 26.9855 11.5717C26.9882 11.5529 26.9918 11.5344 26.9937 11.5153C26.9977 11.4745 26.9998 11.4334 26.9999 11.3924C26.9999 11.3918 27 11.3911 27 11.3905C27 11.3899 26.9999 11.3892 26.9999 11.3887C26.9998 11.3476 26.9977 11.3066 26.9937 11.2656C26.9918 11.2468 26.9883 11.2285 26.9857 11.2099C26.9825 11.1876 26.9798 11.1653 26.9754 11.1432C26.9712 11.1219 26.9654 11.1014 26.9601 11.0805C26.9553 11.0614 26.9511 11.042 26.9453 11.0231C26.9392 11.0027 26.9315 10.9831 26.9244 10.9632C26.9176 10.9441 26.9113 10.9249 26.9036 10.9062C26.8959 10.8876 26.8869 10.8698 26.8782 10.8517C26.8691 10.8324 26.8605 10.8129 26.8504 10.7939C26.8411 10.7766 26.8306 10.7601 26.8205 10.7434C26.8095 10.7247 26.7989 10.7059 26.7868 10.6878C26.7745 10.6693 26.7607 10.652 26.7475 10.6342C26.736 10.6189 26.7254 10.6031 26.7131 10.5883C26.6879 10.5576 26.6612 10.5281 26.6332 10.4999C26.6319 10.4985 26.6308 10.497 26.6294 10.4956L22.8326 6.69868C22.5853 6.45155 22.2615 6.32794 21.9376 6.32794C21.6138 6.32802 21.2898 6.45155 21.0427 6.6986C20.5485 7.19287 20.5485 7.99417 21.0426 8.48844L22.679 10.125Z" fill="#e2211c"/>
<path d="M1.26567 22.7812H17.2969C17.9958 22.7812 18.5625 22.2146 18.5625 21.5156V16.4531C18.5625 15.7542 17.9958 15.1875 17.2969 15.1875C16.5979 15.1875 16.0313 15.7542 16.0313 16.4531V20.25H2.53129V2.53122H16.0313V6.32817C16.0313 7.02713 16.5979 7.59379 17.2969 7.59379C17.9958 7.59379 18.5625 7.02713 18.5625 6.32817V1.2656C18.5625 0.566639 17.9958 -2.09808e-05 17.2969 -2.09808e-05H1.26567C0.56671 -2.09808e-05 4.95911e-05 0.566639 4.95911e-05 1.2656V21.5156C4.95911e-05 22.2146 0.56671 22.7812 1.26567 22.7812Z" fill="#e2211c"/>
</svg>
