<svg width="16" height="16" viewBox="0 0 16 16" fill="none" xmlns="http://www.w3.org/2000/svg">
<path d="M7.13123 2.37597C8.34825 0.476073 10.8724 -0.0757569 12.7689 1.14343C14.6656 2.3626 15.2164 4.89112 13.9993 6.79104L12.9427 6.11178C13.7853 4.79646 13.4039 3.04595 12.0909 2.20191C10.7779 1.35786 9.03043 1.73989 8.18785 3.05521L7.13123 2.37597Z" fill="white"/>
<path d="M8.18726 3.05567L2.93201 11.2595C2.37114 12.1362 2.62543 13.3022 3.50047 13.8645C4.37589 14.4271 5.54101 14.1724 6.10281 13.2956L7.45903 11.1787L7.45818 11.1782L10.8485 5.88578L10.8493 5.88635C11.1301 5.4479 11.003 4.86443 10.5653 4.58309C10.1276 4.30174 9.54515 4.42909 9.26429 4.86753L9.26343 4.86699L6.57138 9.14338C6.40669 9.40046 6.06498 9.47503 5.80812 9.30995L5.68157 9.22858C5.42474 9.06349 5.35005 8.72121 5.51474 8.46412L8.20686 4.1877L8.20766 4.18823C8.86303 3.16526 10.2221 2.86814 11.2434 3.52461C12.2646 4.18109 12.5612 5.5426 11.9059 6.56561L11.905 6.56509L10.5493 8.68149L10.5503 8.68218L7.15978 13.975C6.22338 15.4362 4.28127 15.8605 2.82229 14.9229C1.36325 13.9853 0.939561 12.0405 1.87594 10.5791L7.13063 2.37643L8.18726 3.05567Z" fill="white"/>
<path d="M8.82946 13.5555C8.57266 13.3904 8.49797 13.0482 8.66266 12.7911L12.9413 6.11182L13.998 6.79107L9.71929 13.4703C9.5546 13.7274 9.21289 13.802 8.95603 13.6369L8.82946 13.5555Z" fill="white"/>
</svg>
