<svg width="376" height="267" viewBox="0 0 376 267" fill="none" xmlns="http://www.w3.org/2000/svg">
<g clip-path="url(#clip0_260_162)">
<path d="M188 267L0 133.5L188 0L376 133.5L188 267Z" fill="white"/>
<path d="M188 267L0 133.5L188 0L376 133.5L188 267ZM12.129 133.5L188 258.474L363.871 133.5L188 8.5258L12.129 133.5Z" fill="black"/>
<path d="M154.646 197.974H156.526L160.376 203.041V197.974H162.256V205.954H160.376L156.526 200.978V205.954H154.646V197.974Z" fill="black"/>
<path d="M165.773 205.954V205.226L168.806 197.974H170.837L173.87 205.105V205.954H172.141L171.444 204.255H168.048L167.35 205.954H165.773ZM169.806 199.886L168.624 202.92H170.989L169.806 199.886Z" fill="black"/>
<path d="M178.6 199.461H176.022V197.974H183.179V199.461H180.601V205.954H178.6V199.461Z" fill="black"/>
<path d="M186.727 203.011V197.974H188.728V203.041C188.723 203.261 188.764 203.478 188.849 203.68C188.934 203.882 189.061 204.064 189.222 204.213C189.382 204.362 189.573 204.476 189.78 204.546C189.988 204.616 190.208 204.641 190.426 204.619C190.649 204.645 190.875 204.623 191.09 204.555C191.304 204.488 191.502 204.376 191.671 204.228C191.839 204.079 191.975 203.897 192.069 203.692C192.162 203.488 192.212 203.266 192.215 203.041V197.974H194.065V203.011C193.926 203.889 193.479 204.689 192.804 205.267C192.128 205.845 191.269 206.162 190.38 206.162C189.492 206.162 188.633 205.845 187.957 205.267C187.282 204.689 186.835 203.889 186.696 203.011H186.727Z" fill="black"/>
<path d="M198.37 205.954V197.974H201.402C203.495 197.974 204.799 198.945 204.799 200.523C204.787 201.008 204.626 201.478 204.339 201.869C204.051 202.259 203.651 202.552 203.191 202.708L205.284 205.135V205.954H203.555L201.16 203.284H200.371V206.106L198.37 205.954ZM201.402 201.706C202.312 201.706 202.858 201.251 202.858 200.523C202.858 199.795 202.342 199.461 201.402 199.461H200.402V201.706H201.402Z" fill="black"/>
<path d="M208.164 205.954V205.226L211.196 197.974H213.228L216.26 205.105V205.954H214.532L213.834 204.255H210.438L209.771 205.954H208.164ZM212.197 199.886L211.014 202.92H213.38L212.197 199.886Z" fill="black"/>
<path d="M219.899 197.974H221.901V204.467H225.539V205.954H219.899V197.974Z" fill="black"/>
<path d="M163.742 215.147C163.727 214.64 163.82 214.136 164.014 213.667C164.209 213.198 164.501 212.776 164.871 212.429C165.241 212.082 165.68 211.818 166.16 211.653C166.64 211.489 167.149 211.429 167.654 211.476C169.776 211.476 170.534 212.508 170.686 212.963V213.661H169.291C169.291 213.388 168.806 212.811 167.684 212.811C167.065 212.811 166.471 213.057 166.033 213.495C165.595 213.934 165.349 214.528 165.349 215.147C165.349 215.767 165.595 216.361 166.033 216.799C166.471 217.238 167.065 217.484 167.684 217.484C168.019 217.527 168.359 217.465 168.657 217.308C168.956 217.15 169.198 216.905 169.352 216.604H170.716V217.302C170.716 217.878 169.625 218.819 167.684 218.819C167.176 218.876 166.661 218.823 166.175 218.662C165.69 218.502 165.244 218.238 164.87 217.89C164.495 217.541 164.201 217.115 164.006 216.642C163.812 216.169 163.721 215.659 163.742 215.147Z" fill="black"/>
<path d="M173.688 215.117C173.64 214.328 173.829 213.543 174.231 212.864C174.634 212.184 175.231 211.641 175.946 211.305C176.661 210.969 177.46 210.855 178.24 210.979C179.019 211.102 179.744 211.457 180.32 211.998C180.896 212.539 181.296 213.24 181.469 214.011C181.642 214.782 181.579 215.587 181.289 216.322C180.999 217.057 180.496 217.688 179.843 218.133C179.191 218.578 178.42 218.817 177.63 218.819C177.121 218.866 176.608 218.805 176.125 218.639C175.641 218.473 175.198 218.206 174.826 217.856C174.453 217.506 174.159 217.081 173.963 216.609C173.767 216.137 173.673 215.628 173.688 215.117ZM179.753 215.117C179.717 214.695 179.56 214.291 179.3 213.957C179.039 213.622 178.687 213.371 178.287 213.233C177.886 213.095 177.454 213.077 177.043 213.181C176.632 213.285 176.26 213.506 175.973 213.817C175.685 214.129 175.495 214.517 175.424 214.935C175.354 215.354 175.406 215.783 175.576 216.172C175.745 216.56 176.023 216.891 176.378 217.124C176.732 217.357 177.146 217.482 177.569 217.484C177.88 217.504 178.191 217.455 178.48 217.341C178.77 217.228 179.031 217.052 179.245 216.826C179.459 216.6 179.621 216.33 179.719 216.035C179.817 215.739 179.849 215.426 179.813 215.117H179.753Z" fill="black"/>
<path d="M184.968 211.628H189.88V212.963H186.848V214.541H189.668V215.785H186.787V218.819H184.968V211.628Z" fill="black"/>
<path d="M198.219 211.628V212.963H195.186V214.541H198.006V215.785H195.186V218.819H193.428V211.628H198.219Z" fill="black"/>
<path d="M201.646 211.628H206.649V212.963H203.404V214.45H206.436V215.663H203.404V217.362H206.649V218.697H201.646V211.628Z" fill="black"/>
<path d="M210.196 211.628H215.29V212.963H211.955V214.45H214.805V215.663H211.955V217.362H215.29V218.697H210.196V211.628Z" fill="black"/>
<path d="M237.638 182.774H139.211V184.048H237.638V182.774Z" fill="black"/>
<path d="M255.438 83.6196H233.636V84.9546H255.438V83.6196Z" fill="black"/>
<path d="M146.488 83.6195H124.687V84.9545H146.488V83.6195Z" fill="black"/>
<path d="M162.56 76.368C164.44 76.368 165.592 77.2783 165.592 78.7043C165.592 80.1303 164.561 81.1316 162.56 81.1316H161.771V83.4375H159.982V76.368H162.56ZM162.56 79.8269C163.379 79.8269 163.864 79.3718 163.864 78.7043C163.864 78.0368 163.379 77.6727 162.56 77.6727H161.741V79.8269H162.56Z" fill="black"/>
<path d="M168.442 83.4375V76.368H171.05C172.9 76.368 174.082 77.2479 174.082 78.6133C174.067 79.047 173.919 79.4656 173.659 79.8127C173.399 80.1599 173.039 80.419 172.627 80.5551L174.477 82.679V83.4375H172.839L170.777 80.9495H170.08V83.4375H168.442ZM171.05 79.6752C171.808 79.6752 172.293 79.2808 172.293 78.6436C172.293 78.0065 171.839 77.703 171.05 77.703H170.171V79.6752H171.05Z" fill="black"/>
<path d="M177.266 76.3681H182.269V77.7031H178.903V79.1898H181.935V80.4034H178.903V82.1025H182.148V83.4375H177.266V76.3681Z" fill="black"/>
<path d="M186.938 78.6133V83.4375H185.271V76.368H187.454L189.394 79.9483L191.274 76.368H193.427V83.4375H191.699V78.6133L189.91 81.9204H188.727L186.938 78.6133Z" fill="black"/>
<path d="M196.764 76.368H198.522V83.4375H196.764V76.368Z" fill="black"/>
<path d="M201.797 80.8282V76.3681H203.556V80.8585C203.626 81.209 203.816 81.5242 204.092 81.7507C204.368 81.9772 204.715 82.101 205.072 82.101C205.429 82.101 205.775 81.9772 206.052 81.7507C206.328 81.5242 206.517 81.209 206.588 80.8585V76.3681H208.256V80.8282C208.109 81.5818 207.706 82.261 207.114 82.7493C206.522 83.2377 205.778 83.5047 205.011 83.5047C204.244 83.5047 203.501 83.2377 202.909 82.7493C202.317 82.261 201.913 81.5818 201.767 80.8282H201.797Z" fill="black"/>
<path d="M213.198 78.6133V83.4375H211.53V76.3681H213.714L215.654 79.9483L217.534 76.3681H219.687V83.4375H217.928V78.6133L216.17 81.9205H214.987L213.198 78.6133Z" fill="black"/>
<path d="M148.581 95.4221V94.6333H150.158C150.311 94.9668 150.568 95.2416 150.891 95.4166C151.213 95.5916 151.584 95.6575 151.947 95.6042C152.796 95.6042 153.342 95.2704 153.342 94.6636C153.342 94.0568 152.948 93.8444 152.038 93.6624L151.189 93.5107C149.551 93.2376 148.642 92.4487 148.642 91.1744C148.642 89.9001 149.946 88.7471 151.917 88.7471C153.888 88.7471 154.737 89.354 154.949 90.3249V91.0227H153.402C153.304 90.7019 153.094 90.4272 152.81 90.2489C152.526 90.0706 152.187 90.0006 151.856 90.0518C151.007 90.0518 150.552 90.4159 150.552 90.9317C150.552 91.4475 150.886 91.6599 151.765 91.8419L152.614 92.0239C154.282 92.3274 155.282 93.1162 155.282 94.4512C155.282 95.7862 153.918 96.9392 151.886 96.9392C151.248 97.0296 150.597 96.9346 150.011 96.6657C149.425 96.3968 148.929 95.9651 148.581 95.4221Z" fill="black"/>
<path d="M158.708 88.8989H164.378V90.4159H160.709V92.0847H163.954V93.4803H160.709V95.3918H164.378V96.8785H158.708V88.8989Z" fill="black"/>
<path d="M167.774 88.8989H169.806V95.3918H173.414V96.8785H167.774V88.8989Z" fill="black"/>
<path d="M176.447 88.8989H182.118V90.4159H178.418V92.0847H181.693V93.4803H178.418V95.3918H182.118V96.8785H176.447V88.8989Z" fill="black"/>
<path d="M184.967 92.9039C184.947 92.3289 185.05 91.7564 185.269 91.2245C185.489 90.6927 185.819 90.2139 186.238 89.8203C186.657 89.4266 187.156 89.1272 187.7 88.9421C188.245 88.7571 188.822 88.6906 189.394 88.7472C191.79 88.7472 192.7 89.8698 192.821 90.3856V91.2048H191.244C191.244 90.9014 190.729 90.2339 189.425 90.2339C189.082 90.2183 188.74 90.2775 188.423 90.4073C188.106 90.537 187.82 90.7343 187.587 90.9854C187.353 91.2365 187.177 91.5354 187.07 91.8614C186.963 92.1875 186.929 92.5328 186.969 92.8735C186.934 93.2146 186.973 93.5592 187.081 93.8844C187.189 94.2096 187.365 94.5082 187.597 94.7605C187.829 95.0127 188.112 95.2129 188.427 95.3479C188.742 95.4829 189.082 95.5495 189.425 95.5435C190.698 95.5435 191.244 94.8153 191.305 94.5119H192.881V95.3311C192.7 95.9683 191.638 97.0606 189.394 97.0606C188.822 97.1172 188.245 97.0507 187.7 96.8656C187.156 96.6805 186.657 96.3811 186.238 95.9875C185.819 95.5938 185.489 95.115 185.269 94.5832C185.05 94.0514 184.947 93.4788 184.967 92.9039Z" fill="black"/>
<path d="M197.824 90.4159H195.247V88.8989H202.403V90.4159H199.826V96.8785H197.824V90.4159Z" fill="black"/>
<path d="M205.436 88.8989H207.437V96.8785H205.436V88.8989Z" fill="black"/>
<path d="M210.711 92.8735C210.657 91.9797 210.871 91.09 211.326 90.3189C211.781 89.5477 212.456 88.9303 213.264 88.5459C214.073 88.1615 214.977 88.0277 215.862 88.1616C216.747 88.2956 217.572 88.6913 218.23 89.2977C218.889 89.9042 219.351 90.6939 219.557 91.5652C219.764 92.4365 219.705 93.3497 219.389 94.1875C219.073 95.0253 218.514 95.7493 217.784 96.2667C217.053 96.7841 216.185 97.0711 215.29 97.0909C214.705 97.1512 214.113 97.0864 213.555 96.9008C212.997 96.7152 212.484 96.413 212.051 96.0143C211.618 95.6156 211.275 95.1294 211.044 94.5879C210.813 94.0465 210.7 93.4621 210.711 92.8735ZM217.686 92.8735C217.724 92.5258 217.689 92.1738 217.582 91.8406C217.476 91.5074 217.3 91.2004 217.067 90.9398C216.834 90.6791 216.548 90.4705 216.229 90.3278C215.91 90.185 215.564 90.1112 215.214 90.1112C214.865 90.1112 214.519 90.185 214.2 90.3278C213.88 90.4705 213.595 90.6791 213.362 90.9398C213.128 91.2004 212.953 91.5074 212.846 91.8406C212.74 92.1738 212.704 92.5258 212.743 92.8735C212.704 93.2213 212.74 93.5732 212.846 93.9064C212.953 94.2396 213.128 94.5466 213.362 94.8073C213.595 95.0679 213.88 95.2765 214.2 95.4192C214.519 95.562 214.865 95.6358 215.214 95.6358C215.564 95.6358 215.91 95.562 216.229 95.4192C216.548 95.2765 216.834 95.0679 217.067 94.8073C217.3 94.5466 217.476 94.2396 217.582 93.9064C217.689 93.5732 217.724 93.2213 217.686 92.8735Z" fill="black"/>
<path d="M222.992 88.8989H224.872L228.723 94.0568V88.8989H230.603V96.8785H228.723L224.872 91.9026V96.8785H222.992V88.8989Z" fill="black"/>
<path d="M156.313 152.949C150.175 159.347 141.764 163.065 132.904 163.295C122.715 163.295 115.984 158.015 122.988 143.209C129.053 129.92 141.788 121.97 153.523 121.97C171.535 122.092 167.987 140.327 156.313 152.949ZM136.269 143.118C133.48 148.883 130.811 155.952 136.724 155.77C140.909 155.77 145.821 149.702 148.58 145.212C153.038 137.899 156.252 129.434 149.975 129.738C145.184 129.92 139.635 136.231 136.269 143.118Z" fill="black"/>
<path d="M207.558 138.506C202.312 145.636 192.397 148.67 181.935 146.607C180.449 152.19 183.33 155.406 190.122 155.71C195.042 155.851 199.918 154.746 204.297 152.497C208.676 150.248 212.416 146.928 215.169 142.845C216.079 141.601 219.202 143.877 218.444 144.908C206.83 160.382 194.701 163.446 184.482 163.113C168.957 162.718 165.713 153.1 170.049 142.724C172.489 136.735 176.649 131.604 182.003 127.98C187.357 124.356 193.665 122.402 200.129 122.365C211.682 122.668 213.077 131.437 207.558 138.506ZM183.755 141.328C186.381 141.685 189.055 141.307 191.48 140.236C193.904 139.165 195.985 137.442 197.491 135.26C199.189 132.711 199.644 130.071 196.945 129.98C192.973 129.647 187.06 134.744 183.755 141.328Z" fill="black"/>
<path d="M298.284 117.814C300.18 117.837 302.04 117.292 303.623 116.249C305.207 115.205 306.441 113.71 307.168 111.958C308.533 108.59 306.986 106.072 303.378 105.89C301.495 105.947 299.67 106.551 298.125 107.629C296.579 108.706 295.381 110.21 294.675 111.958C294.29 112.564 294.083 113.265 294.078 113.983C294.073 114.701 294.27 115.406 294.647 116.017C295.023 116.628 295.564 117.12 296.207 117.438C296.85 117.756 297.57 117.886 298.284 117.814Z" fill="black"/>
<path d="M302.862 143.937C297.828 150.461 291.066 155.679 287.397 155.679C285.608 155.679 286.002 153.495 287.579 149.823C290.156 144.271 300.86 124.155 301.891 122.213H289.307C288.307 124.125 278.513 142.542 274.389 151.037C270.811 158.41 271.508 163.416 280.605 163.173C290.49 162.931 299.829 154.071 306.167 145.97L302.862 143.937Z" fill="black"/>
<path d="M108.1 96.9089C90.1184 96.7268 70.3481 104.342 66.7094 118.967C66.2624 120.427 66.1695 121.974 66.4384 123.477C66.7073 124.981 67.3303 126.399 68.2559 127.614L78.8384 121.546C78.8384 111.473 92.7262 104.16 105.947 104.524C115.044 104.798 122.624 110.077 117.773 121.03C115.941 125.84 112.425 129.822 107.879 132.233C103.333 134.644 98.0669 135.32 93.0597 134.137C97.8507 125.035 104.218 114.871 105.674 112.504H94.2423C86.8436 122.122 73.1984 150.157 66.952 161.565H78.3836C80.6881 157.833 85.0849 149.126 89.2997 141.116C97.2998 143.494 105.893 142.863 113.46 139.342C121.028 135.822 127.048 129.654 130.387 122.001C137.725 105.313 123.867 97.0909 108.1 96.9089Z" fill="black"/>
<path d="M246.917 142.602C238.335 154.041 230.118 157.014 226.327 155.831C222.537 154.648 223.629 149.52 227.722 141.207C229.572 137.262 232.21 132.529 234.848 127.735H241.489L245.613 120.666H238.547C240.569 117.025 242.59 113.536 244.612 110.198H231.209C229.238 113.566 227.116 117.237 225.145 120.666H220.96L217.018 127.735H221.355C212.258 145.272 204.374 163.204 222.143 163.204C232.695 163.204 241.731 156.286 249.918 144.787C248.973 143.985 247.97 143.255 246.917 142.602Z" fill="black"/>
<path d="M278.967 142.602C270.356 154.041 262.138 157.014 258.348 155.831C254.558 154.648 255.649 149.52 259.743 141.207C261.623 137.262 264.231 132.529 266.899 127.735H273.509L277.633 120.635H270.629C272.65 116.995 274.672 113.505 276.693 110.168H263.26C261.289 113.536 259.197 117.207 257.196 120.635H253.042L249.069 127.735H253.436C244.339 145.272 236.485 163.204 254.224 163.204C264.776 163.204 273.813 156.286 282 144.787C281.04 143.99 280.027 143.26 278.967 142.602Z" fill="black"/>
<path d="M185.422 146.941C177.023 146.152 166.137 144.423 159.951 138.324L162.983 135.563C164.397 136.777 166.007 137.742 167.744 138.415C173.513 140.437 179.583 141.463 185.695 141.449L185.422 146.941Z" fill="black"/>
<path d="M205.314 50.1839L205.709 49.4557C205.436 48.9399 204.769 49.1219 204.769 49.1219L204.556 48.3027C204.844 48.211 205.154 48.2113 205.442 48.3038C205.73 48.3962 205.982 48.5761 206.163 48.8185C206.564 48.2697 206.833 47.6367 206.952 46.9677C206.155 46.6487 205.401 46.2308 204.708 45.7238C204.526 45.7238 204.708 45.1169 204.374 44.8135L203.707 44.3888C203.707 43.1751 203.707 43.3572 203.101 42.9931C202.63 43.2511 202.216 43.6019 201.884 44.0245C201.553 44.447 201.31 44.9324 201.171 45.4514C201.032 45.9703 201 46.5121 201.076 47.0439C201.153 47.5757 201.336 48.0865 201.615 48.5455C202.134 49.3259 202.792 50.0046 203.556 50.548C203.707 49.6074 204.465 49.9715 205.314 50.1839Z" fill="black"/>
<path d="M203.646 52.065C202.533 51.162 201.516 50.1451 200.614 49.0309C197.946 45.481 202.16 42.7503 202.16 42.7503H199.522C198.601 42.9921 197.755 43.4649 197.067 44.1241C196.378 44.7833 195.869 45.6072 195.587 46.518C195.304 47.4288 195.259 48.3965 195.454 49.3299C195.649 50.2633 196.079 51.1315 196.702 51.8526C198.128 53.2179 199.947 54.6743 201.281 55.979C201.838 56.5544 202.189 57.2991 202.276 58.0956C202.364 58.8921 202.185 59.6952 201.766 60.3784C203.134 59.1807 204.176 57.6571 204.799 55.9486C204.966 55.2571 204.947 54.5337 204.745 53.8516C204.542 53.1696 204.163 52.5532 203.646 52.065Z" fill="black"/>
<path d="M180.966 53.1269C180.552 53.1614 180.136 53.1614 179.722 53.1269C179.205 53.1307 178.693 53.238 178.218 53.4426C177.742 53.6471 177.313 53.9447 176.954 54.3178C176.595 54.691 176.314 55.1322 176.128 55.6155C175.943 56.0988 175.855 56.6144 175.871 57.1319C175.568 60.5301 173.476 63.7766 171.687 62.8057C169.898 61.8348 172.839 57.6477 172.839 57.2533C173.015 56.3505 172.84 55.4144 172.35 54.6363C171.86 53.8581 171.091 53.2966 170.201 53.0663C170.201 53.0663 169.473 55.0991 170.656 56.1003C171.838 57.1016 172.202 57.1319 172.202 57.1319C171.657 58.0725 169.018 62.654 171.111 63.9586C173.203 65.2633 176.569 61.7741 177.175 57.1319C177.178 56.8237 177.245 56.5194 177.371 56.238C177.497 55.9566 177.679 55.7041 177.906 55.4964C178.134 55.2886 178.402 55.1299 178.693 55.0302C178.985 54.9306 179.294 54.892 179.601 54.9171C179.389 54.1282 180.966 53.1269 180.966 53.1269Z" fill="black"/>
<path d="M188.486 60.6818C188.053 62.1261 187.709 63.5952 187.455 65.0813C187.455 65.9005 188.94 67.4478 188.94 67.4478H190.366C191.609 67.4478 193.155 69.3897 193.155 69.3897H188.486C188.486 69.3897 184.968 66.0825 184.968 66.0218C184.968 65.9611 184.119 64.8082 184.119 64.8082L186.878 61.4707L188.486 60.6818Z" fill="black"/>
<path d="M202.797 61.1976L201.463 62.2899L200.28 64.171L205.132 69.3593H208.892C208.892 69.3593 207.922 67.4175 206.8 67.4175H205.314L202.797 61.1976Z" fill="black"/>
<path d="M198.704 67.4175H197.097C196.881 66.7313 196.788 66.0122 196.824 65.2936C197.785 63.7127 198.935 62.2556 200.251 60.9549C200.674 60.3846 200.902 59.6931 200.902 58.9827C200.902 58.2723 200.674 57.5808 200.251 57.0106C198.583 55.4025 195.278 52.5201 195.278 52.5201C195.048 52.7697 194.758 52.9559 194.436 53.0607C194.113 53.1654 193.769 53.1852 193.437 53.1181C193.105 53.051 192.795 52.8993 192.539 52.6776C192.282 52.4559 192.087 52.1718 191.972 51.8526C191.502 50.1128 191.498 48.2796 191.961 46.5378C192.424 44.796 193.338 43.2071 194.611 41.9311C194.611 41.9311 194.883 40.7175 193.064 40.7175H169.807C170.101 41.4938 170.591 42.1809 171.228 42.7125C171.865 43.244 172.629 43.6019 173.445 43.7516H186.575C187.272 43.7516 187.363 44.1764 187.333 44.8135H174.658C174.446 45.39 176.205 47.0284 177.175 47.4835H187.606L188 48.5455H179.055C179.358 49.7287 181.572 51.1548 181.572 51.1548H188.698C188.984 51.9871 189.328 52.7982 189.729 53.582H186.454C185.406 53.1775 184.301 52.942 183.179 52.8842C182.375 52.8842 181.603 53.2039 181.035 53.7729C180.466 54.3419 180.147 55.1136 180.147 55.9183C180.147 57.496 180.571 58.9524 180.389 59.1041C180.207 59.2558 174.84 64.2317 174.598 64.7475C174.355 65.2633 176.932 69.2683 176.932 69.2683H181.026C181.026 68.6311 179.904 67.3265 179.116 67.3265H177.478L177.266 65.8094C177.66 64.08 183.573 63.0484 183.725 62.7753L187.091 59.0434H190.941C192.619 59.9389 194.23 60.9529 195.763 62.0775C195.1 62.9857 194.626 64.0173 194.368 65.1116C194.999 66.5904 195.739 68.0204 196.581 69.3897H200.584C200.645 69.1166 199.674 67.4175 198.704 67.4175Z" fill="black"/>
<path d="M187.12 256.957L188 257.564L188.879 256.957L360.99 134.744L362.718 133.5L360.99 132.256L188.879 10.0428L188 9.43603L187.12 10.0428L15.161 132.256L13.281 133.5L15.0094 134.744L187.12 256.957ZM188 1.8508L373.392 133.5L188 265.149L2.60742 133.5L188 1.8508Z" fill="black" stroke="black"/>
</g>
<defs>
<clipPath id="clip0_260_162">
<rect width="376" height="267" fill="white"/>
</clipPath>
</defs>
</svg>
