<svg width="1920" height="1050" viewBox="0 0 1920 1050" fill="none" xmlns="http://www.w3.org/2000/svg">
<g clip-path="url(#clip0_104_2)">
<path d="M-67 585.468V73.2946C-36.3309 53.8709 39.7284 20.8505 98.613 44.159C172.219 73.2946 239.691 107.031 284.161 107.031C328.631 107.031 370.034 44.159 423.705 44.159C466.642 44.159 481.465 63.5827 483.51 73.2946C501.911 84.5402 542.395 107.031 557.116 107.031C575.517 107.031 675.192 153.035 725.796 130.033C776.4 107.031 828.537 7.35694 862.273 7.35694C896.009 7.35694 889.875 -18.7109 935.879 27.2918C981.882 73.2946 1009.48 130.033 1058.56 130.033C1107.63 130.033 1222.63 186.77 1294.71 172.969C1366.78 159.168 1446.52 73.2946 1486.39 73.2946C1526.26 73.2946 1532.39 107.031 1566.13 107.031C1599.86 107.031 1717.94 73.2946 1773.14 73.2946C1828.35 73.2946 1820.68 87.0977 1908.09 130.033C1978.01 164.382 1995.5 219.995 1995.5 243.508V585.468H-67Z" fill="#DEF692"/>
<path d="M-67 266.902V1151.46H2004.7V317.506H1918.82H1699.54C1602.93 317.506 1506.32 246.966 1423.52 246.966C1357.27 246.966 1352.98 261.644 1334.58 266.902C1288.06 280.192 1196.57 322.025 1207.3 266.902C1215.75 223.49 1230.3 217.75 1159.76 197.815C1089.22 177.881 935.879 246.966 856.139 266.902C776.4 286.837 710.461 220.898 679.792 204.03C649.123 187.162 623.054 144.225 554.049 141.158C485.043 138.091 434.439 223.964 348.566 246.966C262.693 269.968 164.552 177.961 112.414 171.827C70.7042 166.92 -24.5744 233.166 -67 266.902Z" fill="#9EC227"/>
</g>
<defs>
<clipPath id="clip0_104_2">
<rect width="1920" height="1050" fill="white"/>
</clipPath>
</defs>
</svg>
