<svg width="16" height="16" viewBox="0 0 16 16" fill="none" xmlns="http://www.w3.org/2000/svg">
<path d="M14.6257 6.69076L8.24392 13.1624C7.53936 13.9023 6.58061 14.3383 5.56717 14.3795C4.55373 14.4207 3.56364 14.064 2.80291 13.3837C2.43144 13.029 2.13401 12.6022 1.92828 12.1287C1.72254 11.6551 1.61268 11.1445 1.60522 10.6271C1.59777 10.1097 1.69287 9.59608 1.88488 9.11666C2.07688 8.63724 2.36189 8.20182 2.72298 7.83625L8.15839 2.32366C8.58694 1.90166 9.16199 1.66761 9.75929 1.67207C10.3566 1.67654 10.9282 1.91917 11.3505 2.34753C11.7729 2.77589 12.0121 3.35559 12.0165 3.96137C12.0209 4.56715 11.7902 5.15037 11.3741 5.585L5.93867 11.0976C5.79845 11.2326 5.61246 11.3079 5.41911 11.3079C5.22575 11.3079 5.03976 11.2326 4.89954 11.0976C4.76287 10.9572 4.68622 10.7679 4.68622 10.5707C4.68622 10.3734 4.76287 10.1841 4.89954 10.0437L9.24547 5.63607C9.39557 5.48299 9.47955 5.27571 9.47895 5.05982C9.47835 4.84394 9.39322 4.63714 9.24228 4.48492C9.09134 4.33269 8.88696 4.24752 8.67409 4.24812C8.46123 4.24873 8.25733 4.33508 8.10723 4.48816L3.76131 8.89418C3.3241 9.33896 3.0786 9.94139 3.0786 10.5694C3.0786 11.1975 3.3241 11.7999 3.76131 12.2447C4.2062 12.6754 4.79763 12.9158 5.41271 12.9158C6.02779 12.9158 6.61922 12.6754 7.06412 12.2447L12.4995 6.73211C12.865 6.36859 13.1559 5.93518 13.3552 5.45695C13.5545 4.97871 13.6584 4.46515 13.6607 3.94595C13.6631 3.42676 13.564 2.91223 13.369 2.43215C13.1741 1.95206 12.8873 1.51593 12.5251 1.14898C12.1629 0.782041 11.7326 0.491565 11.259 0.294357C10.7855 0.0971491 10.278 -0.00287744 9.76611 6.29943e-05C9.25419 0.00300342 8.74792 0.108852 8.27658 0.311488C7.80525 0.514123 7.37821 0.809524 7.02015 1.1806L1.58474 6.69319C1.07253 7.21243 0.668367 7.83072 0.396248 8.51139C0.124128 9.19206 -0.010406 9.92123 0.000627677 10.6556C0.0116613 11.39 0.168038 12.1147 0.460479 12.7867C0.75292 13.4586 1.17547 14.0641 1.70304 14.5673C2.69304 15.5004 3.99811 16.0131 5.34956 15.9997C6.85922 15.9993 8.30689 15.3907 9.37417 14.3079L15.756 7.83544C15.8323 7.76065 15.8932 7.6712 15.9351 7.57229C15.977 7.47339 15.999 7.36701 16 7.25937C16.0009 7.15173 15.9807 7.04498 15.9405 6.94535C15.9003 6.84572 15.8409 6.75521 15.7659 6.67909C15.6908 6.60298 15.6016 6.54278 15.5034 6.50202C15.4051 6.46126 15.2999 6.44075 15.1937 6.44168C15.0876 6.44262 14.9827 6.46498 14.8852 6.50747C14.7877 6.54995 14.6995 6.61171 14.6257 6.68914V6.69076Z" fill="white"/>
</svg>
