<svg width="23" height="16" viewBox="0 0 23 16" fill="none" xmlns="http://www.w3.org/2000/svg">
<path d="M8.77416 14.5054C8.17582 13.909 8.16138 12.9464 8.74156 12.3324L19.288 1.17029C19.8932 0.52971 20.9098 0.514553 21.534 1.1368C22.1323 1.73328 22.1468 2.69583 21.5666 3.30988L11.0202 14.472C10.415 15.1125 9.39835 15.1277 8.77416 14.5054Z" fill="#F1C27A"/>
<path d="M1.6842 4.30284C2.32365 3.66538 3.37194 3.70485 3.96133 4.38857L10.9268 12.4688C11.3398 12.9479 11.4057 13.6342 11.0913 14.1827C10.5812 15.0728 9.34362 15.1974 8.66525 14.4269L1.61515 6.41992C1.07491 5.80636 1.10512 4.88012 1.6842 4.30284Z" fill="#F1C27A"/>
</svg>
