<svg width="18" height="20" viewBox="0 0 18 20" fill="none" xmlns="http://www.w3.org/2000/svg">
<g filter="url(#filter0_d_96_770)">
<path fill-rule="evenodd" clip-rule="evenodd" d="M13.125 2.32615C13.125 1.70922 12.8736 1.11755 12.426 0.681315C11.9785 0.245076 11.3715 0 10.7386 0H2.38637C1.75346 0 1.14648 0.245076 0.698952 0.681315C0.251422 1.11755 2.87553e-06 1.70922 2.87553e-06 2.32615V16.4401C-0.000387486 16.5856 0.0389734 16.7287 0.114044 16.8545C0.189114 16.9803 0.297187 17.0844 0.427165 17.156C0.557143 17.2276 0.70434 17.2643 0.85364 17.2621C1.00294 17.26 1.14896 17.2191 1.27671 17.1437L3.47216 15.8644C3.50412 15.8441 3.54142 15.8333 3.57955 15.8333C3.61767 15.8333 3.65498 15.8441 3.68693 15.8644L6.12699 17.2891C6.25947 17.3638 6.40948 17.4039 6.5625 17.4054C6.71414 17.4075 6.86321 17.3671 6.99205 17.2891L8.90545 16.1773C8.60521 15.535 8.4375 14.8183 8.4375 14.0625C8.4375 11.406 10.5091 9.23342 13.125 9.07211V2.32615ZM8.94886 8.25203H2.92614C2.76791 8.25203 2.61617 8.19076 2.50428 8.0817C2.3924 7.97264 2.32955 7.82472 2.32955 7.67049C2.32955 7.51626 2.3924 7.36834 2.50428 7.25928C2.61617 7.15022 2.76791 7.08895 2.92614 7.08895H8.94886C9.10709 7.08895 9.25884 7.15022 9.37072 7.25928C9.4826 7.36834 9.54546 7.51626 9.54546 7.67049C9.54546 7.82472 9.4826 7.97264 9.37072 8.0817C9.25884 8.19076 9.10709 8.25203 8.94886 8.25203ZM7.67046 10.8515C7.67046 11.0057 7.6076 11.1537 7.49572 11.2627C7.38384 11.3718 7.23209 11.433 7.07386 11.433H2.92614C2.76791 11.433 2.61617 11.3718 2.50428 11.2627C2.3924 11.1537 2.32955 11.0057 2.32955 10.8515C2.32955 10.6973 2.3924 10.5494 2.50428 10.4403C2.61617 10.3312 2.76791 10.27 2.92614 10.27H7.07386C7.23209 10.27 7.38384 10.3312 7.49572 10.4403C7.6076 10.5494 7.67046 10.6973 7.67046 10.8515ZM9.57386 5.13498H2.92614C2.76791 5.13498 2.61617 5.07371 2.50428 4.96465C2.3924 4.85559 2.32955 4.70768 2.32955 4.55345C2.32955 4.39921 2.3924 4.25129 2.50428 4.14224C2.61617 4.03318 2.76791 3.97191 2.92614 3.97191H9.57386C9.73209 3.97191 9.88384 4.03318 9.99572 4.14224C10.1076 4.25129 10.1705 4.39921 10.1705 4.55345C10.1705 4.70768 10.1076 4.85559 9.99572 4.96465C9.88384 5.07371 9.73209 5.13498 9.57386 5.13498Z" fill="white"/>
<path fill-rule="evenodd" clip-rule="evenodd" d="M17.5 14.0625C17.5 16.3062 15.6812 18.125 13.4375 18.125C11.1938 18.125 9.375 16.3062 9.375 14.0625C9.375 11.8188 11.1938 10 13.4375 10C15.6812 10 17.5 11.8188 17.5 14.0625ZM13.4375 11.7188C13.1786 11.7188 12.9688 11.9286 12.9688 12.1875V13.5938H11.5625C11.3036 13.5938 11.0938 13.8036 11.0938 14.0625C11.0938 14.3214 11.3036 14.5313 11.5625 14.5313H12.9688V15.9375C12.9688 16.1964 13.1786 16.4063 13.4375 16.4063C13.6964 16.4063 13.9063 16.1964 13.9063 15.9375V14.5313H15.3125C15.5714 14.5313 15.7813 14.3214 15.7813 14.0625C15.7813 13.8036 15.5714 13.5938 15.3125 13.5938H13.9063V12.1875C13.9063 11.9286 13.6964 11.7188 13.4375 11.7188Z" fill="white"/>
</g>
<defs>
<filter id="filter0_d_96_770" x="0" y="0" width="17.5" height="19.125" filterUnits="userSpaceOnUse" color-interpolation-filters="sRGB">
<feFlood flood-opacity="0" result="BackgroundImageFix"/>
<feColorMatrix in="SourceAlpha" type="matrix" values="0 0 0 0 0 0 0 0 0 0 0 0 0 0 0 0 0 0 127 0" result="hardAlpha"/>
<feOffset dy="1"/>
<feComposite in2="hardAlpha" operator="out"/>
<feColorMatrix type="matrix" values="0 0 0 0 0 0 0 0 0 0 0 0 0 0 0 0 0 0 0.25 0"/>
<feBlend mode="normal" in2="BackgroundImageFix" result="effect1_dropShadow_96_770"/>
<feBlend mode="normal" in="SourceGraphic" in2="effect1_dropShadow_96_770" result="shape"/>
</filter>
</defs>
</svg>
