<svg width="25" height="26" viewBox="0 0 25 26" fill="none" xmlns="http://www.w3.org/2000/svg">
<path d="M20.5767 16.4165L20.5762 16.4175C19.8638 17.8981 18.7567 19.1513 17.3699 20.0443C15.9504 20.9578 14.3037 21.4424 12.6045 21.4424C7.73113 21.4424 3.7665 17.4778 3.7665 12.6045C3.7665 7.73113 7.73113 3.7665 12.6045 3.7665C14.3036 3.7665 15.9509 4.25116 17.3759 5.161C18.7611 6.04885 19.8682 7.3059 20.5808 8.7869L20.5812 8.78789C20.9724 9.5962 21.9449 9.9433 22.7617 9.55123L22.7631 9.55055C23.5714 9.15943 23.9185 8.1869 23.5265 7.37008L23.5264 7.37001C22.5527 5.34217 21.0396 3.6255 19.1384 2.41006C17.1902 1.16179 14.9299 0.5 12.6045 0.5C9.37168 0.5 6.32967 1.75819 4.0462 4.04619C1.75819 6.32966 0.5 9.37168 0.5 12.6045C0.5 15.8373 1.75819 18.8793 4.0462 21.1628C6.33387 23.4504 9.37121 24.7089 12.6045 24.7089C14.9301 24.7089 17.1909 24.047 19.1396 22.7936L19.1396 22.7936C21.0348 21.5742 22.5523 19.8584 23.5262 17.8348L23.5279 17.8314C23.9114 17.0187 23.5741 16.0458 22.7579 15.6535C21.9448 15.2606 20.9676 15.6087 20.5767 16.4165Z" stroke="#F1C27A"/>
<path d="M12.8513 17.3668L12.8531 17.3686C13.174 17.6896 13.5936 17.846 14.009 17.846C14.4244 17.846 14.8439 17.6896 15.1649 17.3686L18.0161 14.5174C18.5275 14.006 18.8063 13.3256 18.8063 12.609C18.8063 11.8917 18.5224 11.2069 18.0161 10.7006L15.1649 7.84937C14.5254 7.20988 13.4926 7.20988 12.8531 7.84937C12.2136 8.48887 12.2136 9.52167 12.8531 10.1612L13.6722 10.9803H8.43794C7.53624 10.9803 6.80469 11.7118 6.80469 12.6135C6.80469 13.5152 7.53624 14.2468 8.43794 14.2468H13.6768L12.8593 15.0643C12.2152 15.6973 12.2211 16.7301 12.8513 17.3668Z" stroke="#F1C27A"/>
</svg>
