<svg width="20" height="27" viewBox="0 0 20 27" fill="none" xmlns="http://www.w3.org/2000/svg">
<path d="M9.31531 18.3303L9.34742 18.0416L9.11249 17.8707C8.72846 17.5914 8.50003 17.1517 8.50003 16.6666C8.50003 15.8397 9.17313 15.1666 10 15.1666C10.827 15.1666 11.5001 15.8397 11.5001 16.6666C11.5001 17.1517 11.2716 17.5914 10.8876 17.8707L10.6527 18.0416L10.6848 18.3303L11.0001 21.1664L11 21.1666H9.00002L9.00016 21.1668L9.00002 21.1667L8.99991 21.1666L9.31531 18.3303ZM18.5 10.1666H17.5V8.66661C17.5 4.53064 14.136 1.16663 10 1.16663C5.86398 1.16663 2.50002 4.53064 2.50002 8.66661V10.1666H1.50002C0.947497 10.1666 0.5 10.6141 0.5 11.1666V23.6667C0.5 25.0458 1.62082 26.1666 3.00002 26.1666H17C18.3792 26.1666 19.5 25.0458 19.5 23.6666V11.1666C19.5 10.6141 19.0525 10.1666 18.5 10.1666ZM6.50002 10.1666V8.66661C6.50002 6.73719 8.07058 5.16663 10 5.16663C11.9294 5.16663 13.5 6.73719 13.5 8.66661V10.1666H6.50002Z" stroke="#F1C27A"/>
</svg>
