<svg width="19" height="19" viewBox="0 0 19 19" fill="none" xmlns="http://www.w3.org/2000/svg">
<path fill-rule="evenodd" clip-rule="evenodd" d="M13.2121 12.2052H12.381L12.0921 11.9184C13.1127 10.7282 13.7335 9.18516 13.7335 7.49457C13.7335 3.73655 10.6873 0.690344 6.92923 0.690344C3.1712 0.690344 0.125 3.73655 0.125 7.49457C0.125 11.2526 3.1712 14.2988 6.92923 14.2988C8.61982 14.2988 10.1618 13.6791 11.352 12.6595L11.6409 12.9463V13.7754L16.8728 19L18.4336 17.4392L13.2121 12.2052ZM6.92742 12.2049C4.32506 12.2049 2.2168 10.0967 2.2168 7.49431C2.2168 4.893 4.32506 2.78369 6.92742 2.78369C9.52873 2.78369 11.638 4.893 11.638 7.49431C11.638 10.0967 9.52873 12.2049 6.92742 12.2049Z" fill="white"/>
</svg>
