<svg width="24" height="24" viewBox="0 0 24 24" fill="none" xmlns="http://www.w3.org/2000/svg">
<path d="M8.42972 10.8236L13.8558 5.4071C13.945 5.31724 14.051 5.24592 14.1678 5.19725C14.2846 5.14858 14.4099 5.12352 14.5365 5.12352C14.6631 5.12352 14.7884 5.14858 14.9052 5.19725C15.022 5.24592 15.128 5.31724 15.2172 5.4071C15.3957 5.58672 15.4959 5.82969 15.4959 6.08296C15.4959 6.33623 15.3957 6.57921 15.2172 6.75883L10.4717 11.5522L15.2172 16.2977C15.3957 16.4773 15.4959 16.7203 15.4959 16.9735C15.4959 17.2268 15.3957 17.4698 15.2172 17.6494C15.1284 17.74 15.0225 17.8121 14.9057 17.8614C14.7888 17.9108 14.6633 17.9365 14.5365 17.937C14.4097 17.9365 14.2842 17.9108 14.1673 17.8614C14.0505 17.8121 13.9446 17.74 13.8558 17.6494L8.42972 12.2329C8.33241 12.1431 8.25475 12.0342 8.20163 11.9129C8.14852 11.7916 8.12109 11.6606 8.12109 11.5283C8.12109 11.3959 8.14852 11.2649 8.20163 11.1436C8.25475 11.0224 8.33241 10.9134 8.42972 10.8236Z" fill="white"/>
</svg>
