<svg width="14" height="15" viewBox="0 0 14 15" fill="none" xmlns="http://www.w3.org/2000/svg">
<path fill-rule="evenodd" clip-rule="evenodd" d="M0.944914 15C0.41171 15 0 14.5397 0 13.998C0 11.3952 1.23256 9.04053 3.23106 7.67974C2.72071 6.88912 2.42144 5.93113 2.42144 4.90076C2.42144 2.20934 4.46442 0 6.99941 0C9.5344 0 11.5774 2.20934 11.5774 4.90076C11.5774 5.9338 11.2768 6.8943 10.7639 7.68621C11.1931 7.97756 11.5957 8.31577 11.9533 8.69973C13.2738 10.1172 14 12.0001 14 13.998C14 14.5397 13.5883 15 13.0551 15C12.5219 15 12.1102 14.5397 12.1102 13.998C12.1102 12.5268 11.5763 11.1467 10.6091 10.1084C10.2403 9.71281 9.8029 9.37752 9.32834 9.11555C8.64652 9.54932 7.85063 9.8016 6.99941 9.8016C6.15111 9.8016 5.35806 9.55089 4.67793 9.11996C2.97608 10.0522 1.88983 11.9054 1.88983 13.998C1.88983 14.5397 1.47812 15 0.944914 15ZM9.68755 4.90076C9.68755 3.29281 8.47072 2.00405 6.99941 2.00405C5.5281 2.00405 4.31127 3.29281 4.31127 4.90076C4.31127 6.50871 5.5281 7.79755 6.99941 7.79755C8.47072 7.79755 9.68755 6.50871 9.68755 4.90076Z" fill="#8B3A99"/>
</svg>
