<svg width="124" height="30" viewBox="0 0 124 30" fill="none" xmlns="http://www.w3.org/2000/svg">
<g clip-path="url(#clip0_345_2000)">
<path d="M59.4188 22.1419L59.5508 22.0957L59.4448 22.143L59.4188 22.1419Z" fill="white"/>
<path d="M4.10619 20.6496C4.55348 16.371 4.7731 12.0719 4.7641 7.77005C6.90041 9.61288 9.03882 11.4042 11.2032 13.1965C18.1368 18.9826 26.3198 23.1071 35.1174 25.2503C39.2053 26.1282 43.4148 26.3007 47.5608 25.7603C51.3502 25.2133 55.075 24.2937 58.6804 23.0151C65.5662 20.716 71.5639 17.8642 77.1817 16.0294C82.2871 14.3502 87.5705 13.2588 92.9279 12.7769C100.26 12.1485 107.646 12.5468 114.868 13.9599C119.772 14.9352 122.319 15.6333 122.623 15.207C122.927 14.7806 122.493 13.9368 118.416 12.4533C115.371 11.3271 112.225 10.4895 109.021 9.95158C103.179 8.9593 97.2334 8.71565 91.3299 9.22661C86.7084 9.55533 82.129 10.3184 77.6533 11.5056C73.2798 12.8235 69.1803 14.4366 65.2659 15.9799C57.3331 19.0621 50.0439 21.6803 43.171 21.76C36.9645 21.7676 30.8508 20.2582 25.3702 17.3651C21.2846 15.2484 17.3976 12.7739 13.7554 9.97123C9.86991 6.99838 8.71716 5.91862 7.53105 5.01819C11.0438 4.38774 17.3921 2.50541 18.3207 1.43351C12.7053 1.17776 7.07853 1.48336 1.52553 2.34567C1.43767 3.21971 1.04778 14.6389 4.10619 20.6496Z" fill="white"/>
</g>
<defs>
<clipPath id="clip0_345_2000">
<rect width="121.626" height="23.5992" fill="white" transform="translate(1.49023 0.666382) rotate(2.34663)"/>
</clipPath>
</defs>
</svg>
