<?xml version="1.0" standalone="no"?>
<!DOCTYPE svg PUBLIC "-//W3C//DTD SVG 1.1//EN" "http://www.w3.org/Graphics/SVG/1.1/DTD/svg11.dtd" >
<svg xmlns="http://www.w3.org/2000/svg" xmlns:xlink="http://www.w3.org/1999/xlink" version="1.1">
<metadata>
Created by FontForge 20201107 at Wed Aug 16 18:46:45 2006
 By Jimmy Wärting
Copyright   1996 TypeMarket, (095)1427712
</metadata>
<defs>
<font id="OpiumNew-Bold" horiz-adv-x="528" >
  <font-face 
    font-family="OpiumNew"
    font-weight="700"
    font-stretch="normal"
    units-per-em="1000"
    panose-1="2 0 8 3 8 0 0 2 0 3"
    ascent="800"
    descent="-200"
    x-height="502"
    cap-height="724"
    bbox="-64 -264 1258 959"
    underline-thickness="51"
    underline-position="-199"
    stemh="45"
    stemv="152"
    unicode-range="U+0020-2122"
  />
<missing-glyph horiz-adv-x="500" 
 />
    <glyph glyph-name=".notdef" horiz-adv-x="500" 
 />
    <glyph glyph-name="space" unicode=" " horiz-adv-x="292" 
 />
    <glyph glyph-name="space" unicode="&#xa0;" horiz-adv-x="292" 
 />
    <glyph glyph-name="exclam" unicode="!" horiz-adv-x="294" 
d="M87 133c17 17 37 26 61 27c24 0 44 -9 61 -27c17 -16 27 -37 27 -61c0 -23 -9 -43 -26 -61c-17 -17 -37 -25 -61 -25s-44 8 -61 24c-17 17 -26 37 -27 62c0 24 9 45 26 61zM67 575c-4 18 -6 35 -6 50c0 27 8 49 25 68c18 18 39 27 66 28c26 0 47 -8 61 -27
c16 -17 24 -38 25 -62c0 -13 -2 -32 -8 -56l-64 -361h-38z" />
    <glyph glyph-name="quotedbl" unicode="&#x22;" horiz-adv-x="489" 
d="M87 605c-5 24 -7 44 -8 61c0 47 24 70 69 70s67 -23 67 -70c0 -16 -2 -36 -7 -61l-39 -203h-42zM281 605c-4 24 -6 44 -7 61c0 47 23 70 68 70c46 0 68 -23 68 -71c0 -16 -2 -36 -8 -60l-40 -203h-41z" />
    <glyph glyph-name="numbersign" unicode="#" horiz-adv-x="587" 
d="M67 281l44 -3l34 -2l23 151l-30 -2l-40 -3l-31 -4c1 21 1 40 2 57l-2 33l34 -3l43 -3l34 -1l8 39c3 19 6 40 9 64l5 70l2 51l45 -4l49 4l-11 -51l-11 -70l-10 -64l-5 -39h111l6 39l10 64l7 70l4 51l45 -4l47 4l-11 -51l-14 -70l-11 -64l-6 -39l35 1l46 3l29 3
c-2 -19 -3 -39 -3 -60l3 -30l-32 3l-51 4l-36 2l-24 -151l34 2l47 3l28 3c-2 -20 -2 -39 -2 -58l2 -31l-31 4l-51 2l-38 1l-6 -33l-9 -64l-6 -69l-6 -54l-45 4l-47 -4l13 54l13 69l10 64l6 33h-111l-6 -33l-10 -64c-2 -15 -4 -37 -9 -69l-5 -54l-46 4l-49 -4l15 54l15 69
c5 24 8 45 11 64l4 33l-31 -1l-39 -2l-32 -4c1 20 2 38 2 56l-2 33zM247 427l-22 -151h111l23 151h-112z" />
    <glyph glyph-name="dollar" unicode="$" horiz-adv-x="587" 
d="M265 733c-1 15 -3 34 -8 59l42 -3l37 3l-5 -39l-3 -41l29 -3c50 -5 91 -15 123 -32l30 -20c-11 -28 -19 -48 -24 -62l-16 -57h-16l-7 21c-16 43 -45 72 -86 85l-35 10v-213l58 -19c61 -21 105 -51 135 -93c22 -30 32 -68 33 -114c0 -58 -20 -108 -61 -150
c-41 -43 -90 -68 -146 -75l-21 -2l5 -59l4 -48l-39 2l-40 -2l6 51l3 54l-28 1c-54 5 -114 26 -180 64c13 39 22 82 30 129l21 5l8 -32c9 -24 24 -45 48 -65c24 -21 50 -34 81 -41l20 -3v239l-33 10c-76 24 -124 56 -149 96c-19 29 -28 64 -28 105c0 38 8 72 24 103
c30 59 86 96 167 110l21 3v23zM323 267v-222l13 2c26 5 47 18 65 37s27 41 28 68c0 24 -8 45 -24 65c-14 17 -33 30 -57 41zM265 654l-27 -11c-41 -19 -62 -48 -62 -90c0 -20 5 -35 15 -49c12 -16 29 -29 52 -41l22 -11v202z" />
    <glyph glyph-name="percent" unicode="%" horiz-adv-x="938" 
d="M324 81l78 188l65 164l80 198l31 80l36 -2l33 2l-40 -93l-80 -188l-68 -165c-25 -58 -50 -121 -75 -187l-35 -96l-30 3l-37 -3zM553 286c32 30 76 45 130 46c53 0 96 -15 128 -45c33 -32 49 -73 50 -127c0 -50 -16 -94 -49 -126c-32 -33 -72 -49 -123 -49
c-60 0 -108 18 -142 55c-29 29 -43 70 -43 119c0 54 16 95 49 127zM617 141c1 -79 22 -118 64 -117c35 -1 55 20 61 63c3 28 5 57 5 89c0 76 -20 115 -62 117c-34 0 -54 -21 -61 -64c-5 -29 -7 -57 -7 -88zM116 648c33 31 77 45 129 46c54 0 98 -14 129 -46
c33 -31 49 -72 50 -125c0 -51 -16 -94 -49 -126c-31 -34 -73 -50 -123 -50c-54 0 -98 15 -134 45c-34 31 -51 74 -51 129c0 54 16 95 49 127zM180 506c0 -27 2 -51 6 -70c6 -34 25 -51 57 -50c36 -1 56 19 62 62c3 28 4 57 5 90c0 28 -1 51 -5 68c-7 32 -26 49 -57 49
c-34 0 -54 -21 -62 -64c-4 -26 -6 -54 -6 -85z" />
    <glyph glyph-name="ampersand" unicode="&#x26;" horiz-adv-x="762" 
d="M199 416c-31 49 -47 93 -47 135c0 22 3 44 12 65c15 34 40 61 76 80c32 17 68 25 110 25c46 0 83 -10 113 -30c36 -24 54 -57 56 -102c0 -16 -4 -35 -13 -54c-16 -37 -45 -71 -88 -102l-30 -21l51 -62l57 -67l54 -62l22 27c14 17 26 36 40 56c14 23 25 46 36 69l20 52
l33 -34l30 -32l-12 -23c-13 -20 -25 -39 -37 -56c-14 -20 -31 -41 -49 -62l-42 -47l36 -40c31 -36 57 -63 77 -81l59 -52l-118 2l-116 -2l-50 69l-32 -21c-25 -18 -50 -31 -74 -40c-34 -14 -71 -20 -110 -20c-62 0 -111 13 -151 41c-44 30 -65 76 -66 136
c0 84 59 157 177 217zM260 332l-30 -28c-28 -28 -41 -59 -41 -92c0 -16 3 -33 11 -51c26 -57 70 -86 133 -86c22 0 44 5 64 14c13 6 29 15 46 25l-57 67l-65 80zM353 458l36 32c28 29 41 60 42 94c0 22 -7 40 -20 54c-14 17 -31 24 -52 24c-43 -1 -65 -23 -66 -66
c0 -20 4 -40 14 -61c6 -17 16 -33 26 -49z" />
    <glyph glyph-name="quotesingle" unicode="'" horiz-adv-x="294" 
d="M87 605c-5 24 -8 44 -8 61c0 47 23 70 68 70s69 -23 69 -70c0 -16 -2 -36 -8 -61l-40 -203h-41z" />
    <glyph glyph-name="parenleft" unicode="(" horiz-adv-x="294" 
d="M290 706l-17 -21c-43 -52 -72 -107 -90 -164c-16 -53 -24 -124 -24 -214c0 -133 22 -238 68 -318c10 -16 21 -34 36 -53l27 -33l-33 -30l-32 22c-122 98 -184 233 -185 406c0 170 63 308 189 414l28 21z" />
    <glyph glyph-name="parenright" unicode=")" horiz-adv-x="294" 
d="M66 715c60 -50 105 -106 137 -169c35 -70 52 -151 53 -245c-1 -173 -63 -308 -186 -406l-31 -22l-34 30l27 33c14 18 25 35 36 53c45 79 68 185 68 318c0 89 -8 161 -24 214c-17 57 -46 112 -90 164l-17 21l34 30z" />
    <glyph glyph-name="asterisk" unicode="*" horiz-adv-x="587" 
d="M142 478l60 28l46 22l-46 22l-60 29l-40 14c13 15 23 26 28 35c6 9 12 21 20 38l29 -26c14 -12 30 -24 50 -39l44 -31l-6 55c-3 26 -6 49 -10 69l-7 33c20 -4 35 -6 46 -6s26 2 48 6l-9 -33c-4 -19 -6 -43 -9 -69l-6 -55l43 31c19 14 34 26 50 39l30 26
c7 -17 13 -29 19 -38c5 -8 15 -20 28 -35l-39 -14l-61 -29l-46 -22l46 -22l61 -28l39 -14c-12 -15 -22 -27 -28 -35c-6 -9 -12 -21 -19 -38l-30 26c-17 13 -33 26 -50 40l-43 30l6 -55c2 -27 5 -49 9 -69l9 -32c-22 3 -36 5 -48 5c-10 0 -25 -2 -46 -5l7 32c4 19 7 42 10 69
l6 55l-44 -30c-17 -14 -33 -27 -50 -40l-29 -26c-7 17 -14 28 -20 38c-5 8 -15 19 -28 35z" />
    <glyph glyph-name="plus" unicode="+" horiz-adv-x="939" 
d="M423 298v230h91v-230h229v-91h-229v-229h-91v229h-228v91h228z" />
    <glyph glyph-name="comma" unicode="," horiz-adv-x="294" 
d="M82 58c9 33 17 57 26 72c11 22 34 32 65 32c18 0 33 -5 47 -17c12 -13 20 -28 20 -45c0 -22 -13 -50 -38 -86l-146 -210l-31 12z" />
    <glyph glyph-name="hyphenminus" horiz-adv-x="294" 
d="M280 332v-118h-264v118h264z" />
    <glyph glyph-name="period" unicode="." horiz-adv-x="294" 
d="M86 133c17 17 37 26 61 27c24 0 44 -9 61 -27c17 -16 27 -36 27 -60s-9 -44 -26 -62c-17 -17 -37 -26 -61 -26s-44 9 -61 25c-17 17 -26 37 -27 62c0 24 9 44 26 61z" />
    <glyph glyph-name="slash" unicode="/" horiz-adv-x="294" 
d="M214 787c17 -4 29 -6 39 -6c8 0 22 2 40 6l-38 -127c-29 -98 -52 -180 -70 -246l-73 -266l-45 -169c-16 4 -26 6 -35 6c-8 0 -20 -2 -36 -6l51 165c29 99 55 187 78 270c24 88 43 164 58 230z" />
    <glyph glyph-name="zero" unicode="0" horiz-adv-x="587" 
d="M54 483c12 68 38 122 79 161c43 42 97 64 164 65c66 0 121 -22 164 -66c37 -38 61 -92 72 -163c5 -40 8 -81 8 -122c0 -107 -15 -188 -45 -247c-45 -85 -113 -126 -205 -126c-85 0 -148 34 -191 101c-22 35 -38 74 -47 117c-7 44 -10 88 -10 136c0 49 3 98 11 144z
M202 330c0 -98 4 -169 14 -212c9 -53 35 -80 77 -80c29 0 49 17 62 49c7 17 12 45 17 85c6 48 9 105 9 172c0 38 0 74 -2 110c-3 36 -6 70 -10 105c-8 65 -34 97 -76 97c-43 0 -69 -33 -78 -103c-7 -49 -12 -123 -13 -223z" />
    <glyph glyph-name="one" unicode="1" horiz-adv-x="587" 
d="M261 56l3 105l1 138v113c-1 28 -2 63 -4 111l-3 48l-56 -27l-60 -34l-23 36l-27 30l53 17c36 11 74 26 114 44l92 44l57 29l19 -11l-2 -55l-3 -119l-3 -108l-1 -117v-137l6 -109l3 -56l-80 2l-89 -2z" />
    <glyph glyph-name="two" unicode="2" horiz-adv-x="587" 
d="M510 67l3 -76l-65 3l-155 6c-65 0 -114 0 -147 -3l-87 -6v53l93 99c46 48 80 88 106 121c31 43 57 89 75 143c13 40 20 78 20 117c0 33 -8 61 -23 87c-18 29 -43 45 -74 45c-65 0 -102 -51 -110 -154l-9 -3l-85 76l20 37c29 46 73 76 131 90c23 4 48 7 77 7
c70 0 123 -16 164 -47c45 -34 68 -85 69 -152c-1 -55 -20 -108 -57 -159c-18 -23 -58 -63 -122 -119l-120 -107h144l92 3l63 5z" />
    <glyph glyph-name="three" unicode="3" horiz-adv-x="587" 
d="M88 120l30 43l10 -5l8 -33c17 -57 53 -85 110 -87c39 0 69 17 89 51c17 27 25 62 26 105c0 70 -27 114 -81 136c-17 5 -32 9 -46 10c-10 0 -24 -4 -42 -9v70c16 -5 29 -8 39 -9c18 0 35 7 53 22c30 24 45 66 47 124c-1 34 -6 59 -19 78c-16 26 -39 39 -67 40
c-23 0 -44 -10 -62 -30c-16 -16 -27 -37 -32 -63l-7 -40l-8 -4l-40 47l-37 40c12 17 22 29 31 37c43 44 103 66 179 66c23 0 47 -2 70 -6c42 -9 77 -26 104 -53c32 -31 48 -65 49 -106c0 -19 -5 -40 -15 -62c-10 -23 -23 -42 -40 -58c-14 -12 -30 -22 -49 -31l-42 -19l45 -8
c86 -19 129 -73 130 -162c0 -34 -7 -66 -21 -95c-14 -27 -33 -50 -58 -67c-26 -20 -56 -34 -89 -43c-33 -10 -67 -14 -103 -14c-68 0 -123 15 -165 46c-8 7 -20 17 -35 34z" />
    <glyph glyph-name="four" unicode="4" horiz-adv-x="587" 
d="M38 221l-2 51l52 75l117 171c44 65 74 111 89 137l26 41l71 -2l72 2l-1 -40l-4 -67c-2 -23 -2 -60 -2 -112v-198l41 4l46 5l-2 -62l2 -68l-48 6l-39 2l1 -45l1 -71l5 -52l-79 2l-90 -2l6 53l2 73l1 42h-136c-38 0 -64 -1 -78 -2l-53 -6zM105 279h198v298l-41 -58l-51 -77
l-61 -94z" />
    <glyph glyph-name="five" unicode="5" horiz-adv-x="587" 
d="M66 101l25 60l17 -11c2 -16 6 -28 10 -38c18 -48 53 -73 104 -74c41 0 72 20 95 60c16 30 25 68 25 115c0 43 -7 77 -24 101c-21 33 -51 49 -88 50c-32 0 -56 -10 -76 -33l-18 -22l-27 16l5 58c1 23 2 51 2 82c0 33 -1 88 -5 167l-2 71l66 -7c14 -2 56 -2 127 -2l99 5
l71 4l-2 -67l2 -76l-63 7c-24 1 -51 2 -82 2c-34 0 -65 -1 -94 -3l-58 -6l-4 -41c-2 -28 -3 -59 -4 -92v-35l22 6l44 13c20 4 40 6 59 6c34 0 65 -6 94 -19c77 -32 116 -90 116 -174c0 -72 -28 -131 -86 -179c-51 -40 -114 -60 -192 -60c-69 0 -132 18 -190 56
c13 26 25 46 32 60z" />
    <glyph glyph-name="six" unicode="6" horiz-adv-x="587" 
d="M236 389c32 24 70 35 114 35c39 0 76 -10 109 -32s57 -50 72 -87c11 -26 16 -54 17 -86c0 -46 -13 -88 -37 -128c-25 -42 -59 -69 -100 -86c-33 -14 -69 -20 -109 -20c-54 -1 -99 11 -135 35c-41 27 -71 64 -88 109c-18 47 -27 103 -27 166c0 118 25 210 76 279
c65 90 148 135 248 135l27 -1l26 -3l23 -50l-6 -3c-21 2 -39 3 -54 4c-57 0 -102 -28 -135 -84c-24 -41 -37 -94 -43 -159l-2 -44zM212 205c0 -46 6 -80 15 -103c19 -43 43 -64 75 -64c33 0 57 20 72 62c8 27 14 61 14 100c0 102 -29 152 -85 153c-33 0 -56 -14 -73 -43
c-10 -22 -17 -57 -18 -105z" />
    <glyph glyph-name="seven" unicode="7" horiz-adv-x="587" 
d="M82 619c0 22 0 50 -2 84l78 -6c41 -2 94 -3 161 -3l140 1l96 1l8 -22l-36 -58c-30 -46 -65 -109 -106 -188c-69 -134 -122 -238 -156 -314l-50 -117l-61 3l-61 -3l-6 14l49 75c33 49 60 92 84 130l89 148l73 121l42 76c-39 5 -69 8 -91 8l-85 -2l-100 -2l-68 -5z" />
    <glyph glyph-name="eight" unicode="8" horiz-adv-x="586" 
d="M165 401c-64 24 -97 70 -98 136c0 73 38 122 115 151c37 14 75 20 115 21c44 0 84 -7 121 -22c30 -12 54 -31 73 -58c18 -25 28 -55 29 -88c0 -31 -8 -59 -27 -85c-18 -27 -42 -45 -71 -55l-32 -11c101 -24 152 -85 152 -183c0 -70 -25 -125 -75 -165
c-45 -38 -103 -56 -175 -57c-43 0 -83 7 -121 24c-84 35 -126 97 -127 188c0 42 10 79 32 111c22 34 52 58 90 71l36 10zM204 204c1 -111 30 -166 87 -166c22 0 41 9 57 28c14 17 22 36 27 60c5 21 7 45 7 70c-1 109 -31 163 -90 162c-32 0 -56 -19 -73 -57
c-10 -25 -15 -56 -15 -97zM211 536c0 -32 5 -59 18 -81c15 -30 38 -44 67 -44c53 0 79 42 80 124c0 33 -5 59 -16 79c-16 26 -37 41 -66 42c-28 0 -50 -13 -65 -41c-12 -22 -18 -48 -18 -79z" />
    <glyph glyph-name="nine" unicode="9" horiz-adv-x="587" 
d="M210 38c56 0 99 33 132 100c22 47 35 104 40 172l1 30l-25 -29c-27 -27 -65 -41 -116 -42c-59 0 -106 19 -143 58c-36 39 -54 88 -55 147c0 47 12 90 38 131c25 39 60 67 106 85c32 13 68 19 105 19c81 0 145 -32 189 -95c36 -52 54 -121 54 -210
c0 -73 -12 -140 -36 -206c-19 -47 -46 -91 -84 -130c-30 -29 -63 -51 -97 -65c-31 -13 -64 -18 -99 -18c-18 0 -35 1 -51 4l-36 9l-8 34c-2 10 -7 25 -16 45c38 -27 71 -39 101 -39zM204 501c0 -106 29 -159 85 -160c34 -1 57 16 70 50c6 16 10 33 13 51c1 19 2 38 4 57
c0 103 -29 156 -87 157c-55 0 -83 -51 -85 -155z" />
    <glyph glyph-name="colon" unicode=":" horiz-adv-x="294" 
d="M86 133c17 16 37 25 61 26c24 0 44 -8 61 -26c17 -16 27 -36 27 -61c0 -24 -9 -44 -26 -62c-17 -17 -37 -25 -61 -25s-44 8 -61 24c-17 17 -26 37 -27 62c0 25 9 45 26 62zM86 461c17 16 37 24 61 25c24 0 44 -8 61 -25s27 -37 27 -61c0 -25 -9 -45 -26 -63
c-17 -16 -37 -25 -61 -25s-44 9 -61 24c-17 17 -26 37 -27 63c0 24 9 44 26 62z" />
    <glyph glyph-name="semicolon" unicode=";" horiz-adv-x="293" 
d="M78 58c9 34 16 57 24 72c13 22 34 33 66 33c18 0 33 -6 47 -18c13 -13 20 -26 20 -44c0 -13 -3 -26 -10 -40c-8 -16 -16 -32 -27 -47l-146 -210l-31 13zM97 462c17 16 37 24 61 25c25 0 45 -8 62 -25c18 -17 26 -37 26 -62c0 -24 -7 -44 -25 -62c-17 -17 -37 -25 -62 -25
c-24 0 -44 8 -61 24c-17 17 -25 37 -26 62c0 25 8 45 25 63z" />
    <glyph glyph-name="semicolon" unicode="&#x37e;" horiz-adv-x="293" 
d="M78 58c9 34 16 57 24 72c13 22 34 33 66 33c18 0 33 -6 47 -18c13 -13 20 -26 20 -44c0 -13 -3 -26 -10 -40c-8 -16 -16 -32 -27 -47l-146 -210l-31 13zM97 462c17 16 37 24 61 25c25 0 45 -8 62 -25c18 -17 26 -37 26 -62c0 -24 -7 -44 -25 -62c-17 -17 -37 -25 -62 -25
c-24 0 -44 8 -61 24c-17 17 -25 37 -26 62c0 25 8 45 25 63z" />
    <glyph glyph-name="less" unicode="&#x3c;" horiz-adv-x="1056" 
d="M212 283v77l632 284v-101l-502 -223l502 -219v-101z" />
    <glyph glyph-name="equal" unicode="=" horiz-adv-x="939" 
d="M743 198v-90h-548v90h548zM743 386v-91h-548v91h548z" />
    <glyph glyph-name="greater" unicode="&#x3e;" horiz-adv-x="1056" 
d="M844 361v-77l-632 -284v101l503 223l-503 219v101z" />
    <glyph glyph-name="question" unicode="?" horiz-adv-x="468" 
d="M168 138c17 17 37 26 63 26c23 0 43 -8 60 -26c17 -16 25 -37 26 -63c0 -24 -8 -45 -25 -63c-16 -18 -37 -26 -61 -26c-26 0 -46 8 -63 26s-26 39 -25 63c0 26 9 46 25 63zM341 276l-9 -22l-9 -28l-29 -5c-11 -1 -24 -2 -36 -2c-41 0 -75 10 -102 32
c-31 24 -47 54 -47 94c0 29 9 56 24 80c12 18 30 40 56 67c16 19 33 38 49 58c17 20 26 38 26 55c0 18 -9 33 -27 46c-15 10 -33 16 -53 16c-36 0 -62 -15 -80 -46l-9 -15h-20v26l-4 47l30 17c12 6 24 11 39 15c24 7 50 10 76 10c51 0 92 -11 125 -35c39 -30 59 -68 59 -113
c0 -25 -6 -48 -17 -71c-10 -19 -20 -37 -32 -52c-13 -15 -28 -32 -49 -52c-16 -15 -31 -31 -42 -46c-9 -13 -14 -25 -14 -39c0 -27 15 -39 45 -39c8 0 16 1 23 4l15 6z" />
    <glyph glyph-name="at" unicode="@" horiz-adv-x="761" 
d="M744 239v-24c-67 -22 -81 -23 -96 -24c-49 -1 -77 26 -91 71c-36 -49 -82 -73 -141 -73c-91 0 -159 54 -159 147c0 88 59 124 158 152l61 16c29 7 76 11 76 73c0 43 -39 83 -137 83c-160 0 -236 -128 -238 -288c-2 -168 125 -317 293 -317c21 0 84 -4 153 58l10 -7
l-10 -38l-8 -35c-56 -26 -110 -35 -185 -35c-184 0 -405 128 -405 367c0 250 215 360 388 360c95 0 276 -34 276 -185v-185c0 -59 -5 -104 37 -115zM552 478l-59 -17c-56 -19 -84 -57 -84 -115c0 -45 14 -88 62 -88c71 0 81 83 81 147v73z" />
    <glyph glyph-name="A" unicode="A" horiz-adv-x="704" 
d="M44 74c60 130 123 277 190 444l52 135l25 71l37 -3l46 3l26 -71l49 -133c63 -166 125 -314 186 -444l38 -78l-101 2l-88 -2l-21 71l-33 91l-15 46l-56 6c-17 1 -42 2 -71 2s-52 0 -69 -2l-54 -6l-17 -45c-10 -28 -20 -59 -30 -90l-21 -73l-54 2l-57 -2zM217 289l36 -4
c19 -2 40 -3 63 -3c20 0 37 0 53 2l34 5l-17 41l-52 129l-24 60l-25 -60l-51 -129z" />
    <glyph glyph-name="B" unicode="B" horiz-adv-x="645" 
d="M88 50c0 19 1 48 1 89l1 136v319l-2 78l-5 52l36 -2l73 -1l72 1l101 2c61 -1 108 -13 140 -36c41 -28 62 -70 64 -125c0 -36 -11 -69 -34 -99c-23 -26 -51 -46 -86 -59l-34 -9l36 -13c26 -8 48 -21 68 -37c23 -18 39 -40 50 -65c10 -22 14 -47 14 -74
c0 -75 -27 -130 -82 -167c-27 -18 -54 -28 -84 -35c-29 -5 -58 -7 -86 -7l-82 1l-71 1h-50l-45 -2zM244 344l-1 -52v-72l1 -82l3 -67l40 -5c88 0 133 50 134 149c0 15 -1 28 -5 41c-8 38 -34 65 -77 82c-18 5 -37 8 -60 9zM245 413l40 1c28 1 51 8 71 22c34 22 50 57 51 107
c-1 73 -41 111 -122 111l-36 -3l-2 -48l-2 -60v-130z" />
    <glyph glyph-name="C" unicode="C" horiz-adv-x="704" 
d="M633 574c-14 17 -26 30 -36 41c-37 36 -84 54 -142 54c-76 0 -137 -32 -183 -98c-37 -54 -56 -122 -56 -207c0 -58 9 -112 29 -163c18 -47 46 -83 86 -110c40 -26 83 -38 132 -39c59 0 112 17 160 54l31 25l14 -7l-14 -50l-10 -43l-25 -12c-50 -22 -111 -33 -181 -34
c-66 0 -127 12 -184 34c-43 17 -81 42 -115 76c-32 31 -54 63 -69 100c-18 45 -26 96 -26 155c0 123 39 218 118 287c77 66 175 99 296 99c63 0 120 -10 172 -29l40 -14l-14 -53l-14 -66h-9z" />
    <glyph glyph-name="D" unicode="D" horiz-adv-x="821" 
d="M98 46c1 23 1 60 2 111l2 208l-2 209c0 46 -1 78 -2 98l-5 57l42 -6c13 -1 32 -2 57 -2c40 0 81 1 121 3l105 5c61 0 112 -6 152 -20c65 -21 115 -65 154 -135c32 -58 48 -125 49 -200c-1 -113 -38 -207 -111 -280c-67 -69 -161 -102 -281 -102c-29 0 -64 1 -103 4l-89 4
c-26 0 -45 0 -57 -2l-39 -6zM258 71l38 -2l56 -2c85 0 149 30 192 92c38 54 57 125 57 213c0 67 -12 123 -36 169c-30 59 -74 93 -132 105c-26 5 -62 7 -108 9l-67 -4l-1 -80l-2 -211l1 -198z" />
    <glyph glyph-name="E" unicode="E" 
d="M85 45c2 28 3 62 3 101l1 133l-1 192v113l-3 91l-5 54l89 -6c21 -1 55 -2 103 -2c71 0 122 1 153 3l60 5l-2 -46l2 -49l-63 4l-124 4l-56 1v-230l62 -1c39 0 77 1 114 4l60 4l-3 -48l3 -47l-63 5c-33 1 -70 3 -113 4l-60 -1v-254l58 -1c34 0 72 1 113 4l72 5l-2 -48
l2 -47l-68 4l-120 4l-128 -1l-89 -7z" />
    <glyph glyph-name="F" unicode="F" horiz-adv-x="527" 
d="M176 0l-89 -2l2 47l3 99l3 144v210l-1 92l-2 85l-5 54l73 -4l140 -4l125 1l73 7l-3 -41l3 -42l-70 4c-39 2 -81 3 -129 4h-50v-64l-1 -102v-79l45 -1c41 0 87 1 137 5l56 4l-2 -41l2 -44l-56 5c-51 3 -98 4 -140 4h-42v-59l2 -143l3 -96l3 -45z" />
    <glyph glyph-name="G" unicode="G" horiz-adv-x="822" 
d="M658 320l83 2l-5 -53l-3 -90v-73c0 -23 3 -49 8 -80l-53 -12c-49 -12 -89 -19 -121 -23c-30 -4 -62 -6 -95 -6c-130 0 -229 29 -300 86c-84 69 -127 162 -126 279c0 113 33 202 101 267c36 34 78 62 128 83c59 24 122 36 191 36c39 0 79 -4 120 -13c31 -6 59 -15 86 -25
l56 -26l-17 -48c-4 -13 -8 -33 -13 -60h-18l-25 32c-43 49 -102 73 -173 73c-53 0 -101 -13 -143 -42c-44 -29 -75 -67 -93 -115c-20 -50 -28 -101 -28 -156c0 -92 18 -162 56 -211c46 -63 111 -93 193 -93c23 0 46 2 70 6l35 9l6 43c1 17 2 37 2 61s-1 54 -3 90l-5 61z" />
    <glyph glyph-name="H" unicode="H" horiz-adv-x="822" 
d="M173 721l85 3l-4 -67l-2 -85l-3 -92v-43l70 -5c29 -2 50 -2 87 -2c35 0 76 0 102 2l66 5l-1 43v92l-3 85l-5 67l88 -3l82 3l-4 -66c-2 -37 -3 -93 -4 -169v-108l1 -161l3 -148l4 -74l-80 2l-90 -2l3 71l3 126l2 94l1 52l-70 5l-88 3c-43 0 -81 -1 -101 -2l-66 -6v-145
c0 -45 2 -89 5 -132l4 -66l-88 2l-82 -2l1 67l5 148c1 43 1 99 2 168l-1 108c0 82 -1 138 -3 169l-4 66z" />
    <glyph glyph-name="I" unicode="I" horiz-adv-x="351" 
d="M93 51l3 107l2 207l-1 183c0 55 -1 98 -4 131l-3 45l85 -3l85 3l-4 -45c-2 -23 -3 -68 -3 -133l-2 -184v-208c1 -43 2 -79 4 -110l5 -46l-84 2l-86 -2z" />
    <glyph glyph-name="J" unicode="J" horiz-adv-x="351" 
d="M32 -119c31 5 52 30 63 74c5 23 8 57 10 102v285l-2 175l-2 134l-4 74l80 -4l89 4l-6 -73c-1 -27 -2 -71 -2 -135v-170c0 -48 1 -96 6 -146c1 -37 2 -71 2 -104c0 -82 -21 -145 -65 -192c-42 -46 -87 -70 -137 -74l-33 2l-19 46z" />
    <glyph glyph-name="K" unicode="K" horiz-adv-x="664" 
d="M171 721l85 3l-4 -58l-1 -81l-4 -119v-72l63 70l67 83c40 48 71 87 92 118l40 59l67 -3l71 3l-61 -62l-79 -85l-100 -111l-38 -45l61 -95l112 -163l74 -108l43 -57l-101 2l-104 -2l-32 56c-13 22 -34 56 -64 101l-64 100l-46 70l-1 -70v-100c0 -35 1 -66 4 -93l5 -64
l-81 2l-88 -2l3 63l2 91l1 103l1 207l-2 124l-2 81l-3 57z" />
    <glyph glyph-name="L" unicode="L" 
d="M97 42c3 32 4 70 5 114v421c0 38 -1 69 -3 96l-6 51l88 -3l82 3l-4 -51c-2 -29 -3 -62 -4 -98v-508l88 1c45 0 79 1 105 3l54 4l-2 -42l2 -41l-75 6c-32 1 -86 1 -161 2c-45 0 -76 0 -95 -1l-78 -7z" />
    <glyph glyph-name="M" unicode="M" horiz-adv-x="939" 
d="M85 0l-47 -2l13 67c14 76 23 141 32 193l18 128l31 242l11 96l44 -3l40 3l48 -108l73 -155c28 -61 56 -116 82 -165l38 -73l38 70l86 167c40 80 69 143 90 189l31 75l42 -3l41 3l8 -73c7 -77 17 -165 31 -268c14 -113 29 -210 44 -292l17 -93l-84 2l-93 -2l-4 65
c-7 100 -12 160 -14 182l-17 145l-8 86l-43 -89l-65 -126c-40 -78 -68 -140 -87 -184l-33 -79l-22 2l-21 -2l-20 49c-11 24 -26 55 -45 95l-66 137l-54 112l-42 82l-10 -85l-16 -146c-7 -72 -12 -132 -14 -180l-2 -64z" />
    <glyph glyph-name="N" unicode="N" horiz-adv-x="822" 
d="M93 40c1 39 2 90 5 153l2 191l-1 169l-5 104l-3 67l52 -3l52 3l49 -64c22 -27 60 -70 114 -130l121 -132c43 -48 83 -91 119 -128l53 -54l-2 92l-2 116l-4 130l-3 116l-2 54l44 -3l45 3v-45l-4 -111l-3 -209l-1 -198v-108l2 -55l-46 2l-51 -2l-42 54
c-26 33 -58 70 -94 111c-35 40 -80 89 -135 147l-123 133l-54 59l-2 -42l-1 -110l2 -156c0 -67 1 -118 3 -153l3 -43l-43 2l-47 -2z" />
    <glyph glyph-name="O" unicode="O" horiz-adv-x="879" 
d="M160 633c72 68 169 102 290 103c111 0 201 -30 270 -89c36 -30 63 -65 81 -104c23 -51 35 -108 35 -171c0 -117 -38 -210 -115 -282c-74 -69 -169 -104 -286 -105c-116 0 -209 32 -280 95c-73 67 -111 156 -111 270c0 117 39 211 116 283zM216 347c0 -87 15 -154 46 -199
c19 -29 43 -52 72 -69c32 -19 66 -28 103 -27c78 0 137 36 178 106c32 57 49 128 50 212c0 78 -15 145 -46 201c-14 29 -36 52 -65 70c-31 19 -68 28 -110 28c-78 0 -138 -36 -181 -107c-31 -54 -47 -125 -47 -215z" />
    <glyph glyph-name="P" unicode="P" horiz-adv-x="605" 
d="M171 721l90 1l89 2c82 -1 140 -19 175 -54c15 -14 26 -31 34 -50c11 -27 16 -56 16 -88c-1 -146 -93 -220 -278 -220l-48 1v-51l1 -124l4 -91l3 -49l-81 2l-89 -2l2 45l3 85l4 135l-1 167l-2 129c0 52 -1 92 -3 124l-3 41zM249 381l19 -2c90 1 136 53 136 155
c-1 80 -38 119 -112 120l-36 -2l-4 -58l-3 -80l-1 -88z" />
    <glyph glyph-name="Q" unicode="Q" horiz-adv-x="879" 
d="M653 -40c37 -24 73 -45 109 -63l84 -43c-33 -10 -57 -19 -74 -26c-18 -6 -44 -19 -79 -37l-73 56c-36 26 -75 55 -117 86l-78 52l-37 1c-46 4 -90 13 -130 30c-142 57 -214 169 -214 336c0 115 38 209 116 282c74 68 170 102 290 102c114 0 206 -32 276 -95
c72 -67 109 -155 109 -268c0 -76 -17 -144 -50 -202c-36 -62 -86 -109 -151 -139l-54 -23zM215 352c0 -88 15 -154 43 -201c41 -66 99 -100 173 -99c75 -1 136 35 182 108c33 54 48 125 49 214c0 59 -9 113 -27 161c-11 29 -27 55 -52 80c-36 36 -82 54 -139 54
c-76 0 -137 -34 -182 -104c-31 -50 -47 -120 -47 -213z" />
    <glyph glyph-name="R" unicode="R" horiz-adv-x="645" 
d="M164 721l104 1l94 2c65 0 114 -15 149 -42c42 -35 63 -80 64 -138c0 -26 -3 -49 -12 -72c-13 -34 -33 -60 -62 -79c-17 -13 -49 -25 -93 -36l32 -57c56 -96 108 -178 155 -246l42 -56l-103 2l-91 -2l-32 58l-67 120c-19 34 -42 73 -73 121l-27 42v-42l1 -121
c0 -47 1 -87 3 -120l4 -58l-86 2l-83 -2l6 59c1 23 1 63 2 120v392c0 47 -1 85 -3 112l-5 43zM244 382l36 -1c37 1 68 18 93 52c21 28 30 63 31 104c0 82 -41 123 -122 123l-38 -3v-275z" />
    <glyph glyph-name="S" unicode="S" 
d="M78 160h25c24 -73 70 -109 137 -108c38 0 68 8 88 24c25 22 39 50 39 82c0 35 -21 65 -62 91c-22 14 -46 27 -71 40l-66 36c-52 29 -86 66 -102 111c-7 23 -11 49 -11 77c0 36 6 67 17 93c12 30 31 54 58 76c43 35 98 53 164 54c51 0 97 -10 140 -32l26 -16l-19 -49
c-3 -12 -7 -31 -14 -56h-19c-14 32 -29 55 -45 64c-22 15 -48 22 -75 22c-31 0 -55 -7 -75 -24c-22 -18 -34 -41 -33 -70c0 -37 18 -66 54 -89c23 -15 51 -30 82 -46c69 -35 114 -65 137 -94c12 -16 22 -36 29 -59c7 -22 10 -43 10 -66c0 -70 -27 -128 -79 -175
c-47 -40 -107 -61 -183 -61c-24 0 -50 2 -76 7c-24 5 -47 10 -67 20l-39 18c10 29 17 50 20 65c4 15 7 36 10 65z" />
    <glyph glyph-name="T" unicode="T" horiz-adv-x="587" 
d="M26 687l-3 42l83 -3c74 -3 136 -5 186 -5c53 0 114 2 186 5l82 3l-2 -42l2 -41l-67 4l-83 4h-42v-243l2 -204l3 -139l4 -70l-85 2l-85 -2l3 70l4 139l1 204l1 198v45h-42l-84 -4l-67 -4z" />
    <glyph glyph-name="U" unicode="U" horiz-adv-x="821" 
d="M259 679l-2 -72l-3 -131l-1 -129c0 -48 4 -91 11 -131c4 -32 15 -58 29 -80c32 -48 82 -71 154 -72c76 0 129 29 162 90c23 42 35 106 37 193v135l-2 126l-2 70l-4 46l55 -3l50 3l-4 -45l-2 -71l-2 -127c-1 -121 -3 -195 -7 -221c-9 -93 -37 -158 -84 -198
c-30 -27 -65 -46 -107 -59c-39 -12 -79 -17 -122 -17c-99 0 -179 27 -239 82c-35 30 -56 66 -65 109c-8 32 -11 75 -11 128v172l-1 130l-3 75l-4 42l84 -3l86 3z" />
    <glyph glyph-name="V" unicode="V" horiz-adv-x="704" 
d="M121 721l86 3l16 -57c31 -101 75 -229 134 -382l34 -89l35 89c69 179 115 306 136 380l16 59l56 -3l54 3l-27 -60l-69 -162c-33 -77 -67 -164 -105 -263l-63 -174l-25 -67l-44 2l-54 -2l-24 70l-62 168l-102 265c-22 55 -44 109 -65 160l-27 63z" />
    <glyph glyph-name="W" unicode="W" horiz-adv-x="1056" 
d="M216 651c10 -43 23 -93 37 -150c17 -64 34 -126 53 -186l31 -102l37 99c25 67 47 130 68 192l46 140l24 80l56 -3l57 3l21 -76l43 -143c15 -47 37 -111 67 -196l32 -88l30 89c46 138 79 249 100 336l18 78l54 -3l57 3l-34 -80c-11 -29 -28 -75 -50 -140l-88 -251
c-23 -65 -40 -120 -53 -162l-25 -93l-52 2l-56 -2l-26 91c-17 57 -35 114 -55 173l-57 162l-27 83l-31 -82l-60 -160c-18 -48 -38 -108 -62 -180l-28 -87l-50 2l-59 -2l-24 87l-48 170l-69 233c-19 61 -35 113 -49 155l-28 81l96 -3l89 3z" />
    <glyph glyph-name="X" unicode="X" horiz-adv-x="645" 
d="M57 43l71 106l77 118l44 71l-34 62l-102 183l-53 93l-29 48l101 -3l96 3l19 -43l40 -87l40 -76l24 -44l31 45c12 18 26 42 42 71l52 91l22 43l60 -3l62 3l-31 -43l-65 -93l-81 -114l-47 -71l31 -59l68 -124l98 -178l28 -44l-104 2l-93 -2l-18 40c-20 43 -36 79 -51 110
l-35 68l-27 51l-32 -51l-42 -71c-23 -37 -42 -72 -56 -103l-23 -44l-56 2l-61 -2z" />
    <glyph glyph-name="Y" unicode="Y" horiz-adv-x="645" 
d="M121 721l94 3l19 -51c11 -29 25 -62 42 -98c13 -32 31 -69 52 -109l41 -80l41 82c20 42 37 79 51 112c12 25 24 57 37 93l19 51l56 -3l57 3l-33 -53c-9 -12 -25 -44 -50 -94l-95 -186l-42 -92l-7 -55c-1 -17 -2 -42 -2 -77c0 -47 1 -83 3 -108l6 -61l-83 2l-86 -2l4 64
l3 88v149l-46 85l-97 187c-16 28 -35 61 -58 98l-34 55z" />
    <glyph glyph-name="Z" unicode="Z" horiz-adv-x="645" 
d="M349 655l-107 -2l-119 -4l-60 -3l2 45l-2 38l62 -4c39 -3 91 -4 156 -4c72 0 143 1 213 4l112 4l9 -23l-40 -65l-101 -165l-100 -172l-88 -154l-44 -82l51 -1c37 0 79 1 129 3c51 1 90 3 116 8c15 2 39 8 71 15l-3 -53l3 -48l-70 4c-55 2 -150 3 -284 4
c-57 0 -98 0 -123 -1l-102 -7l-11 23l33 48c27 39 61 94 102 164l111 189l88 155l46 84h-50z" />
    <glyph glyph-name="bracketleft" unicode="[" horiz-adv-x="293" 
d="M46 729c51 -5 90 -7 116 -8c26 0 61 3 111 8l-2 -35l1 -36c-23 5 -42 8 -60 8h-41l1 -95l1 -301l-1 -300l-1 -96h41c17 0 37 2 60 9l-1 -37l2 -35c-50 5 -88 8 -113 8s-63 -2 -114 -8l5 126l2 98l1 236l-1 235l-2 98z" />
    <glyph glyph-name="backslash" unicode="\" horiz-adv-x="294" 
d="M106 644c14 -67 34 -143 58 -230c22 -81 48 -169 78 -270l51 -165c-16 3 -29 5 -36 6c-8 0 -19 -2 -35 -6l-45 169l-73 266c-27 96 -50 178 -70 246l-38 127c18 -4 31 -6 40 -6s21 2 39 6z" />
    <glyph glyph-name="bracketright" unicode="]" horiz-adv-x="293" 
d="M244 603l-2 -98v-470l2 -98l5 -126c-51 5 -90 8 -116 8c-24 0 -62 -2 -111 -8l2 35l-1 37c22 -7 42 -9 60 -9h41v96l-1 300l1 301v95h-41c-17 0 -37 -2 -60 -8l1 36l-2 35c49 -5 86 -7 111 -8c26 0 65 3 116 8z" />
    <glyph glyph-name="asciicircum" unicode="^" 
d="M237 622c-44 -38 -93 -70 -150 -97l-36 -13v48l40 32c63 54 109 114 138 181l8 18h53l8 -16c28 -68 75 -128 138 -183l40 -32v-48l-35 13c-21 9 -45 23 -73 42c-33 21 -59 39 -76 55c-7 6 -15 15 -28 28z" />
    <glyph glyph-name="underscore" unicode="_" 
d="M528 -210v-53h-528v53h528z" />
    <glyph glyph-name="grave" unicode="`" horiz-adv-x="587" 
d="M278 755c12 -38 22 -66 30 -85c10 -25 26 -61 48 -108h-40c-62 65 -120 122 -177 172l5 21l64 -2z" />
    <glyph glyph-name="a" unicode="a" 
d="M75 449c53 45 117 65 188 65c129 0 193 -53 193 -158v-205c0 -59 -5 -104 37 -115l18 -1v-24c-67 -22 -81 -23 -96 -24c-49 -1 -77 27 -91 71c-36 -49 -82 -73 -141 -73c-91 0 -159 54 -159 147c0 88 59 124 157 152l62 16c29 7 76 12 76 60c0 58 -44 85 -109 85
c-34 0 -83 -18 -108 -57h-18l-2 30zM319 274l-59 -17c-56 -19 -84 -57 -84 -115c0 -45 14 -88 61 -88c72 0 82 83 82 147v73z" />
    <glyph glyph-name="b" unicode="b" horiz-adv-x="587" 
d="M199 740c-1 -23 -2 -53 -3 -91l-2 -111v-91l25 24c15 12 31 22 53 30c23 9 47 13 73 13c27 0 52 -4 76 -14c86 -35 129 -113 129 -237c0 -48 -7 -92 -23 -132c-17 -44 -43 -77 -82 -106c-37 -26 -79 -40 -127 -40c-55 0 -100 16 -134 49l-21 24l-35 -23l-54 -39h-25l4 71
c2 37 3 82 4 134v177l-2 163l-1 107l-3 93l-2 43l79 -3l74 3zM193 233c0 -25 1 -51 5 -77c2 -23 6 -44 14 -63c15 -37 42 -56 80 -56c57 0 89 41 102 123c2 27 4 54 5 83c0 52 -4 93 -14 125c-14 51 -44 76 -89 76c-39 0 -67 -18 -80 -54c-9 -19 -14 -40 -17 -63
c-3 -32 -5 -62 -6 -94z" />
    <glyph glyph-name="c" unicode="c" 
d="M431 368c-3 14 -6 26 -11 35c-5 13 -12 23 -24 33c-9 9 -22 16 -35 20c-12 4 -25 6 -40 6c-48 0 -84 -23 -110 -70c-19 -36 -28 -81 -28 -133c0 -62 11 -109 36 -144c29 -44 71 -67 126 -67c32 0 61 9 88 26l25 19l17 -8l-12 -28l-10 -28l-25 -15
c-33 -19 -73 -29 -120 -29c-80 0 -145 22 -195 69c-53 47 -78 109 -78 189c0 38 6 73 18 107c13 34 31 63 56 88c23 23 53 42 89 55c36 14 75 21 116 21c59 0 108 -12 152 -35l25 -17l-18 -41l-18 -53h-24z" />
    <glyph glyph-name="d" unicode="d" horiz-adv-x="587" 
d="M465 781l70 3l-4 -56l-2 -100l-1 -125l-1 -238v-116c0 -52 1 -88 3 -109l5 -42l-74 2l-75 -2l6 37l3 37c-21 -32 -41 -54 -62 -66c-26 -15 -55 -21 -89 -21c-71 0 -126 25 -164 77c-31 42 -47 101 -48 179c0 133 44 219 132 256c26 12 55 17 84 17c25 0 49 -4 72 -13
c20 -7 38 -19 53 -35l17 -20l1 57l-1 128c-1 48 -2 81 -4 102l-4 51zM184 267c0 -71 7 -124 23 -160c15 -34 41 -52 79 -52c49 -1 80 34 94 107c6 32 9 64 10 97c0 27 -2 54 -8 81c-4 21 -10 41 -20 59c-18 30 -43 45 -78 45c-38 0 -64 -19 -81 -58c-10 -23 -16 -48 -18 -76
z" />
    <glyph glyph-name="e" unicode="e" 
d="M425 9c-13 -6 -29 -10 -46 -14c-27 -7 -53 -10 -81 -10c-124 0 -203 48 -240 145c-15 38 -22 79 -22 122c0 45 7 85 21 122c10 28 28 53 53 78c43 41 99 62 169 62s124 -20 164 -62c39 -41 59 -96 60 -165l-2 -51l-29 3l-57 3l-55 3h-173l3 -34c4 -45 19 -81 43 -109
c28 -30 63 -45 107 -45c34 0 66 7 101 23l31 15l12 -9l-13 -31l-16 -32zM351 301v28c-2 90 -27 136 -77 137c-37 0 -62 -25 -76 -73c-5 -19 -8 -39 -9 -60l-1 -32h163z" />
    <glyph glyph-name="f" unicode="f" horiz-adv-x="352" 
d="M34 473l-3 35l40 -5l29 -3c10 72 28 134 57 184c41 70 90 105 152 106l21 -1l13 -4l-5 -63l-3 -66l-12 -5l-26 13c-16 8 -32 11 -49 12c-16 0 -28 -4 -39 -12c-10 -8 -17 -20 -17 -34c0 -16 10 -48 31 -96l16 -34l42 3l60 5l-2 -35l2 -37l-57 6l-45 2v-106l1 -123v-98
l3 -80l3 -39l-78 2l-75 -2l3 38l4 82l1 101v121l-1 104l-32 -2l-37 -6z" />
    <glyph glyph-name="g" unicode="g" 
d="M148 212c-22 7 -42 17 -60 33c-32 26 -49 61 -49 107c-1 52 23 95 72 126c37 25 85 36 147 36l63 -2c36 -2 77 -3 125 -3h55l-2 -29l2 -29c-19 3 -34 5 -44 7l-31 1h-16c32 -33 48 -66 49 -102c-1 -72 -41 -121 -118 -147c-24 -8 -45 -12 -61 -12l-52 -1
c-29 0 -41 -11 -40 -32c0 -26 22 -39 66 -41l91 -4c107 -2 160 -45 160 -129c0 -66 -27 -119 -83 -159c-46 -31 -104 -48 -176 -48c-30 0 -59 3 -89 9c-81 16 -122 57 -123 123c0 50 22 85 67 104l25 9l-17 12c-24 16 -35 38 -35 66c0 36 25 65 75 87l28 12zM176 17l-18 -15
c-17 -16 -25 -38 -25 -65c0 -36 14 -62 40 -81c22 -16 51 -24 90 -25c17 0 33 2 49 7c21 5 39 16 53 35c14 18 21 40 22 64c0 48 -28 74 -84 77l-51 1zM177 355c0 -74 23 -111 71 -110c47 0 71 40 72 120c-1 67 -25 100 -71 102c-47 -1 -71 -38 -72 -112z" />
    <glyph glyph-name="h" unicode="h" horiz-adv-x="587" 
d="M63 66l3 134l1 199v187c-1 58 -2 103 -3 133l-5 66l84 -3l72 3l-6 -66c-1 -29 -2 -74 -3 -132v-153l26 30c32 34 76 51 128 51c112 0 168 -68 168 -201v-75l-1 -96c0 -41 1 -73 3 -95l6 -50l-73 2l-80 -2l4 57c1 35 2 67 3 93l1 89l-1 79c-3 72 -33 109 -89 110
c-40 0 -67 -17 -82 -52c-8 -17 -12 -38 -13 -64l-2 -70v-91l3 -88l6 -63l-73 2l-81 -2z" />
    <glyph glyph-name="i" unicode="i" horiz-adv-x="294" 
d="M73 44l2 92l2 110l-1 106l-3 97l-4 53l76 -3l77 3l-4 -51c-1 -21 -2 -53 -3 -97l-1 -108l2 -110l2 -92l4 -46l-77 2l-76 -2zM89 750c17 16 36 23 58 24c21 0 40 -7 56 -23c16 -15 23 -34 24 -57c0 -21 -7 -40 -24 -57c-16 -16 -34 -23 -56 -23s-41 7 -58 23
c-15 15 -22 34 -22 57c0 21 7 40 22 56z" />
    <glyph glyph-name="j" unicode="j" horiz-adv-x="294" 
d="M145 500l77 3l-3 -51l-4 -101l-1 -109l2 -112l-1 -116c-2 -72 -20 -123 -54 -159c-34 -34 -86 -57 -155 -71l-19 40c25 7 42 16 53 24c12 11 22 28 27 52c5 21 8 60 10 118v224l-1 110c-1 37 -2 68 -3 97l-4 54zM89 751c17 16 36 23 58 24c21 0 40 -7 56 -24
c16 -16 23 -34 24 -56c0 -22 -7 -41 -24 -57c-16 -16 -34 -23 -56 -23s-41 7 -58 23c-15 15 -22 34 -22 57c0 21 7 40 22 56z" />
    <glyph glyph-name="k" unicode="k" 
d="M58 343l-1 139l-2 170l-3 93l-3 40l73 -3l81 3l-2 -39l-3 -92l-2 -174l-2 -140v-58l10 -1c8 2 23 15 47 40l59 65c18 19 38 45 61 80l25 37l59 -3l63 3l-44 -41l-86 -87l-64 -64l33 -53l76 -118l65 -103l28 -39l-85 2l-91 -2l-20 40l-60 102c-27 46 -46 75 -59 85l-17 10
v-37l1 -81l3 -76l2 -43l-66 2l-85 -2l4 44l3 77l1 84z" />
    <glyph glyph-name="l" unicode="l" horiz-adv-x="294" 
d="M72 65l4 144l2 201l-1 159c-1 67 -2 118 -4 153l-3 63l75 -3l78 3l-3 -63c-2 -42 -3 -93 -4 -153l-1 -160l1 -195l4 -149l3 -67l-77 2l-76 -2z" />
    <glyph glyph-name="m" unicode="m" horiz-adv-x="879" 
d="M60 34l5 88l1 124l-1 126c0 33 -1 60 -3 82l-4 49l81 -3l71 3l-7 -37l-2 -34l26 29c34 37 79 56 133 57c28 0 53 -7 79 -19c25 -14 45 -37 58 -73c47 61 102 92 163 92c51 0 91 -17 122 -51c26 -27 39 -70 40 -125l-1 -90v-134c0 -33 1 -62 4 -86l4 -34l-74 2l-79 -2
l3 31c3 27 4 59 5 94v134c-1 55 -2 92 -7 108c-8 41 -33 62 -76 63c-52 0 -82 -31 -87 -94l-2 -74v-133c0 -41 1 -74 4 -97l4 -32l-72 2l-81 -2l4 39c1 18 2 49 3 91v141c-1 51 -3 85 -8 102c-13 38 -37 57 -76 57c-50 1 -78 -31 -83 -95l-4 -59l-1 -77l1 -77l5 -84l3 -38
l-72 2l-81 -2z" />
    <glyph glyph-name="n" unicode="n" horiz-adv-x="587" 
d="M138 499l69 3c-4 -18 -6 -31 -7 -40l-1 -30l34 33c36 32 78 48 128 49c48 0 87 -15 118 -46c17 -16 27 -32 34 -50c10 -25 14 -54 14 -87l-1 -109v-92c0 -40 1 -69 3 -89l6 -44l-79 3l-74 -3l2 50l5 92l1 87l-2 90c-3 73 -33 109 -88 109c-58 -1 -90 -38 -94 -111l-3 -85
v-88c0 -39 1 -72 3 -98l6 -46l-73 3l-81 -3l6 51l2 96l1 101l-1 125c-1 37 -2 66 -3 86l-5 46z" />
    <glyph glyph-name="o" unicode="o" horiz-adv-x="587" 
d="M45 326c15 59 45 106 92 139c44 33 98 49 162 49c78 0 141 -23 188 -69c44 -43 68 -105 69 -186c0 -139 -59 -225 -177 -261c-27 -9 -57 -13 -88 -13c-77 0 -139 21 -186 66c-46 43 -70 104 -71 184c0 30 3 60 11 91zM185 242c1 -140 36 -209 108 -209
c74 0 110 76 111 229c0 135 -34 203 -102 204c-78 -1 -117 -76 -117 -224z" />
    <glyph glyph-name="p" unicode="p" horiz-adv-x="587" 
d="M122 500l74 3l-7 -34l-2 -34l14 20c14 18 31 31 52 41c25 12 53 18 83 18c70 0 124 -28 163 -84c31 -47 47 -107 48 -182c0 -75 -17 -136 -48 -181c-38 -54 -93 -82 -164 -82c-24 0 -45 4 -65 11c-25 6 -44 18 -60 35l-23 23l1 -61l1 -91l5 -86l2 -35l-71 3l-80 -3l4 36
c2 26 3 52 4 81v393l-2 95l-3 80l-3 37zM190 246l3 -50c2 -25 6 -48 14 -70c16 -48 45 -71 87 -71c55 0 86 39 97 118c3 25 4 50 5 77c0 21 -1 38 -3 55c-11 93 -44 140 -100 140c-37 0 -66 -24 -84 -70c-9 -24 -14 -50 -18 -77c-1 -12 -1 -29 -1 -52z" />
    <glyph glyph-name="q" unicode="q" horiz-adv-x="587" 
d="M392 -180c1 17 2 45 4 83l1 99v57c-9 -13 -17 -23 -24 -29c-12 -14 -28 -24 -48 -32c-22 -8 -46 -13 -71 -13c-28 0 -56 5 -81 15c-26 10 -47 23 -65 42c-46 46 -69 112 -69 200c0 79 16 140 47 185c42 58 97 86 166 87c60 0 109 -25 146 -78v30c-1 8 -4 20 -8 37l79 -3
l74 3l-3 -37l-3 -80l-1 -143l-1 -246v-97c0 -36 0 -62 2 -78l6 -41l-74 3l-80 -3zM191 248c0 -22 1 -46 5 -74c3 -26 9 -48 20 -68c15 -34 40 -51 76 -51c34 0 59 18 77 54c9 20 16 42 20 68c4 23 7 48 7 73c0 22 -2 45 -6 70c-3 24 -9 47 -18 68c-17 37 -43 56 -79 57
c-40 0 -69 -26 -85 -75c-12 -36 -17 -76 -17 -122z" />
    <glyph glyph-name="r" unicode="r" horiz-adv-x="411" 
d="M73 38c1 20 2 49 3 90l1 125c0 60 0 99 -1 119l-5 96l-2 34l76 -3l72 3l-7 -59l-1 -59c38 85 89 128 151 128l28 -1c-5 -41 -8 -72 -8 -95l1 -49l-10 -6l-21 11c-12 4 -26 8 -41 8c-27 0 -50 -10 -67 -30c-18 -23 -27 -57 -28 -101v-86c0 -41 1 -81 4 -122l4 -44l-70 3
l-83 -3z" />
    <glyph glyph-name="s" unicode="s" horiz-adv-x="411" 
d="M352 430l-12 -47h-21c-19 57 -55 83 -107 83c-21 0 -39 -5 -54 -16c-14 -12 -23 -29 -23 -49c0 -23 13 -40 38 -53c17 -8 38 -17 63 -25c52 -18 88 -37 106 -55c26 -25 39 -59 39 -100c0 -21 -3 -43 -10 -64c-10 -27 -24 -49 -43 -68s-39 -32 -63 -39
c-22 -9 -48 -12 -77 -12c-44 0 -82 7 -114 23l-33 19l9 44l6 44h21l19 -28c27 -36 63 -54 110 -54c22 0 40 6 55 16c17 15 24 32 24 52c0 26 -20 46 -60 61l-49 20l-49 22c-20 8 -36 18 -50 31c-25 24 -38 58 -38 104c-1 53 16 95 51 129c32 30 77 46 132 46
c41 0 80 -8 116 -26l28 -16z" />
    <glyph glyph-name="t" unicode="t" horiz-adv-x="352" 
d="M15 475l2 33c17 -4 28 -7 38 -8h33v28c0 18 -1 39 -5 62l-4 34l73 30l70 31l10 -8l-3 -44c-3 -46 -5 -81 -5 -105v-28l46 2l53 6l-3 -35l3 -37c-25 4 -43 5 -57 7l-42 1v-315c0 -34 2 -55 6 -64c10 -20 27 -31 53 -32c8 0 18 1 27 4l19 6v-36l-14 -6
c-12 -3 -26 -6 -42 -9c-21 -4 -39 -6 -53 -6c-20 0 -39 3 -60 9c-33 10 -54 28 -63 52c-7 19 -10 47 -9 85v312l-38 -1c-9 -1 -21 -2 -38 -7z" />
    <glyph glyph-name="u" unicode="u" horiz-adv-x="587" 
d="M203 461c-2 -24 -3 -50 -4 -79v-102l2 -108c2 -65 31 -98 86 -98c22 0 41 7 59 20c16 15 27 32 33 53c3 15 5 34 6 56l1 77l-1 102c0 37 0 64 -2 81l-5 40l77 -4l76 4l-5 -42c-2 -22 -3 -48 -4 -79v-213l1 -80c0 -23 0 -41 2 -54l6 -37l-74 2l-76 -2l6 37c1 11 1 26 2 49
c-36 -66 -89 -99 -157 -99c-34 0 -66 8 -97 25c-35 18 -56 43 -65 74c-5 23 -8 48 -8 78l1 116v103c0 35 -1 61 -3 82l-6 40l79 -4l75 4z" />
    <glyph glyph-name="v" unicode="v" 
d="M111 499l79 3l18 -63l40 -133l35 -108l18 -53l19 49l40 107c17 49 33 97 46 143l16 58l48 -3l44 3l-35 -81l-44 -108c-17 -43 -36 -93 -57 -149l-38 -109l-20 -57l-59 2l-56 -2l-19 59l-44 128l-43 121l-39 103l-39 93z" />
    <glyph glyph-name="w" unicode="w" horiz-adv-x="822" 
d="M114 499l69 3l13 -58c8 -35 19 -76 32 -123l35 -117l19 -65l20 63l35 118l34 123l15 59l64 -3l59 3l15 -59l35 -129l32 -108l20 -64l23 65c12 38 24 74 33 108c11 38 22 81 33 129l13 58l45 -3l45 3l-25 -58c-34 -84 -75 -208 -125 -371l-23 -75l-59 2l-63 -2l-21 80
c-18 69 -35 130 -52 185l-27 87l-27 -86c-25 -82 -42 -143 -52 -184l-22 -82l-63 2l-59 -2l-23 81c-23 77 -49 157 -76 240l-42 124l-21 59z" />
    <glyph glyph-name="x" unicode="x" 
d="M61 39l100 138l37 54l-29 51l-54 87l-56 88l-28 45l93 -3l84 3l20 -41l39 -72l29 -50l36 51c19 26 34 50 47 72l23 40l42 -3l51 3l-28 -39l-102 -130l-35 -46l29 -49l62 -104l61 -100l24 -36l-84 2l-94 -2l-20 38l-49 93l-26 47l-33 -48c-23 -36 -41 -65 -54 -88l-25 -42
l-40 2l-52 -2z" />
    <glyph glyph-name="y" unicode="y" 
d="M106 500l80 3l19 -62l37 -105l42 -112l19 -47l19 46l42 110c18 48 31 84 38 109l18 61l40 -3l49 3l-25 -62l-73 -170l-72 -174l-62 -155l-42 -102l-19 -57l-47 2l-50 -2l35 59c13 23 28 55 48 97l28 61l-41 97l-71 171l-70 171l-27 64z" />
    <glyph glyph-name="z" unicode="z" 
d="M54 74l108 154c18 27 54 82 109 167l26 41c-21 4 -38 7 -51 7l-64 -1l-80 -2l-45 -4l3 38l-3 34c53 -6 100 -9 139 -9h104c68 1 113 2 136 4l50 5v-43l-75 -111l-95 -139l-100 -152l37 -7h104l80 4l45 4l-2 -36l2 -37l-56 5c-57 2 -139 4 -249 4h-39
c-25 -1 -59 -3 -107 -9v47z" />
    <glyph glyph-name="braceleft" unicode="{" 
d="M334 80l2 -88c2 -58 5 -97 10 -118c6 -25 15 -42 27 -52c11 -9 28 -17 53 -24l-19 -41c-69 14 -121 37 -155 71c-27 29 -44 68 -50 119l-6 129c-2 58 -5 97 -10 118c-6 25 -15 42 -27 52c-11 11 -36 20 -53 24v34c17 3 43 15 53 25c12 10 21 27 27 51c5 21 8 60 10 118
l6 118c6 51 23 90 50 119c34 34 86 57 155 71l19 -40c-25 -8 -42 -16 -53 -25c-12 -10 -21 -27 -27 -51c-5 -22 -8 -61 -10 -119l-2 -77c-3 -72 -20 -123 -54 -159c-19 -19 -44 -35 -74 -48c30 -12 55 -28 74 -47c34 -36 51 -88 54 -160z" />
    <glyph glyph-name="bar" unicode="|" 
d="M290 792v-1056h-53v1056h53z" />
    <glyph glyph-name="braceright" unicode="}" 
d="M191 80c3 72 20 124 54 160c19 19 44 35 74 47c-30 13 -55 29 -74 48c-34 36 -51 87 -54 159l-2 77c-2 58 -5 97 -10 119c-6 24 -15 41 -27 51c-11 9 -28 17 -53 25l19 40c69 -14 121 -37 155 -71c27 -29 44 -68 50 -119l6 -118c2 -58 5 -97 10 -118c6 -24 15 -41 27 -51
c10 -10 36 -22 53 -25v-34c-17 -4 -42 -13 -53 -24c-12 -10 -21 -27 -27 -52c-5 -21 -8 -60 -10 -118l-6 -129c-6 -51 -23 -90 -50 -119c-34 -34 -86 -57 -155 -71l-19 41c25 7 42 15 53 24c12 10 21 27 27 52c5 21 8 60 10 118z" />
    <glyph glyph-name="asciitilde" unicode="~" horiz-adv-x="1056" 
d="M214 268c30 45 60 75 90 88c27 14 57 19 92 21c35 0 79 -13 135 -40c55 -26 99 -38 134 -38c41 -1 79 14 115 45l16 14l64 -49c-16 -21 -32 -37 -46 -50c-20 -18 -43 -31 -71 -41c-22 -8 -46 -13 -70 -13c-35 0 -67 7 -99 18l-65 28c-48 21 -87 32 -116 32
c-54 -2 -95 -27 -127 -76l-67 36z" />
    <glyph glyph-name="afii10051" unicode="&#x402;" horiz-adv-x="880" 
d="M26 687l-3 43l84 -3c74 -4 136 -6 185 -6c53 0 152 2 224 6l83 3l-3 -43l3 -41l-68 5l-97 4h-66l-2 -259c53 27 125 53 192 53c89 0 254 -53 254 -242c0 -134 -114 -225 -227 -225c-46 0 -65 7 -145 44c10 29 10 29 13 44s6 36 9 65h26c24 -74 49 -85 92 -85
c44 0 75 49 75 147c0 100 -52 178 -140 178c-50 0 -151 -21 -151 -151v-27l7 -128l4 -71l-83 2l-85 -2l3 71l4 138l1 204l1 198v46h-42l-83 -4l-68 -5z" />
    <glyph glyph-name="afii10052" unicode="&#x403;" horiz-adv-x="531" 
d="M93 725c67 -4 137 -5 206 -5s137 1 207 5c-3 -15 -4 -28 -4 -44c0 -15 2 -31 4 -48c-70 9 -135 13 -195 13c-16 0 -34 -1 -46 -2c-1 -30 -2 -194 -2 -287c0 -110 1 -253 11 -362c-32 3 -62 5 -92 5c-32 0 -57 -2 -89 -5c10 121 11 241 11 364c0 137 -2 261 -11 366z
M401 953l65 2l5 -21c-55 -47 -114 -104 -177 -172h-40c22 48 38 82 48 108c8 18 17 46 31 85z" />
    <glyph glyph-name="quotesinglbase" unicode="&#x201a;" horiz-adv-x="294" 
d="M42 -168l57 229c15 65 44 97 85 97c17 0 33 -5 45 -19c13 -13 21 -28 21 -44c0 -19 -6 -36 -16 -53l-26 -36l-138 -187z" />
    <glyph glyph-name="afii10100" unicode="&#x453;" horiz-adv-x="381" 
d="M17 -2l4 46l2 92l2 110l-1 107l-3 94l-9 61l81 -6h112c39 0 101 4 154 9l-2 -34l2 -38l-130 6l-63 2c-1 -22 -2 -52 -3 -92l-1 -109l2 -110l2 -92l4 -46l-77 2zM304 722l57 2l2 -17c-54 -36 -112 -80 -176 -133h-36c25 37 42 64 56 84c7 14 20 36 36 66z" />
    <glyph glyph-name="quotedblbase" unicode="&#x201e;" horiz-adv-x="488" 
d="M69 -168l59 228c17 66 45 98 84 98c18 0 33 -5 46 -19c14 -13 20 -28 20 -45c0 -18 -5 -36 -15 -53l-26 -35l-138 -187zM322 60c8 32 16 55 24 65c16 22 35 33 60 33c17 0 33 -5 47 -19c12 -13 20 -28 20 -44c0 -19 -7 -36 -17 -54l-25 -35l-139 -187l-28 13z" />
    <glyph glyph-name="ellipsis" unicode="&#x2026;" horiz-adv-x="939" 
d="M104 127c13 15 31 22 53 23c20 0 36 -7 52 -22c15 -15 22 -32 22 -53c0 -20 -7 -37 -22 -53c-13 -15 -31 -22 -51 -22c-22 0 -38 6 -53 21c-15 14 -22 32 -22 53s6 38 21 53zM416 127c14 15 32 22 53 23c19 0 37 -7 53 -22c15 -15 22 -32 22 -53c0 -20 -7 -37 -22 -53
c-15 -15 -32 -22 -52 -22c-21 0 -38 6 -53 21c-15 14 -22 32 -22 53s6 38 21 53zM728 127c14 15 32 22 53 23c19 0 37 -7 53 -22c15 -15 22 -32 22 -53c0 -20 -7 -37 -22 -53c-15 -15 -31 -22 -51 -22c-22 0 -38 6 -54 21c-14 14 -21 32 -22 53c0 21 7 38 21 53z" />
    <glyph glyph-name="dagger" unicode="&#x2020;" horiz-adv-x="587" 
d="M59 386c6 26 8 45 8 59c0 13 -2 32 -8 60l50 -4c30 -4 55 -5 78 -5h52l-2 86l-3 96l-4 52c30 -6 52 -8 67 -9c15 0 38 3 69 9l-5 -52l-3 -97l-1 -85h49c21 0 47 1 79 5l52 4c-6 -27 -9 -47 -9 -60s2 -33 9 -59l-52 3l-79 4l-49 1l-2 -71v-146c0 -50 1 -90 4 -119l7 -75
c-31 6 -53 8 -69 9c-15 0 -37 -3 -67 -9l7 75c2 39 3 100 4 182v84l-2 70l-52 -1l-78 -4z" />
    <glyph glyph-name="daggerdbl" unicode="&#x2021;" horiz-adv-x="587" 
d="M57 162c6 25 9 45 9 59s-2 33 -9 60l51 -4l76 -4h53v59l-1 95l-1 46l-56 -1l-72 -3l-50 -4c6 26 9 45 9 59s-2 34 -9 60l53 -4l71 -3l52 -1l-1 48l-6 67l-2 39c32 -6 56 -8 72 -9c16 0 40 3 73 9l-8 -104l-1 -50l51 1l72 3l52 4c-6 -26 -8 -46 -8 -60s2 -33 8 -59l-50 4
l-72 3l-55 1l-2 -46l-1 -95v-59h53l77 4l50 4c-6 -26 -8 -46 -8 -60s2 -33 8 -59l-52 4c-28 2 -53 3 -76 4h-49v-58l5 -75l4 -54c-32 6 -55 8 -71 9c-15 0 -38 -3 -70 -9l3 54l5 75l1 58h-49c-24 0 -49 -1 -76 -4z" />
    <glyph glyph-name="perthousand" unicode="&#x2030;" horiz-adv-x="1329" 
d="M325 81l78 188l66 164l79 198l31 80l36 -2l33 2l-41 -93l-79 -188l-69 -165c-24 -58 -48 -121 -74 -187l-36 -96l-28 3l-38 -3zM553 286c33 30 76 45 130 46c54 0 97 -15 129 -45c33 -32 49 -73 49 -127c0 -50 -15 -94 -48 -126c-32 -33 -73 -49 -123 -49
c-61 0 -108 18 -142 55c-29 29 -42 70 -42 119c0 54 16 95 47 127zM619 141c0 -79 21 -118 63 -117c35 -1 55 20 61 63c3 28 4 57 6 89c0 76 -22 115 -64 117c-33 0 -53 -21 -60 -64c-4 -29 -6 -57 -6 -88zM950 286c34 30 77 45 130 46c54 0 97 -15 129 -45
c32 -32 49 -73 49 -127c0 -50 -15 -94 -48 -126c-33 -33 -73 -49 -124 -49c-54 0 -98 15 -134 45c-34 32 -50 74 -50 129c0 54 15 96 48 127zM1015 144c0 -34 2 -60 7 -77c9 -29 27 -44 56 -43c36 -1 56 20 61 63c3 30 4 61 5 92c0 74 -21 112 -63 114
c-33 0 -53 -21 -60 -64c-4 -27 -6 -54 -6 -85zM117 648c33 31 76 45 130 46c54 0 96 -14 129 -46c32 -31 47 -72 48 -125c0 -51 -15 -94 -47 -126c-33 -34 -74 -50 -124 -50c-54 0 -99 15 -134 45c-33 31 -51 74 -51 129c0 54 17 95 49 127zM182 506c0 -27 2 -51 6 -70
c5 -34 24 -51 57 -50c35 -1 55 19 61 62c2 27 4 56 5 89c0 28 -2 51 -5 69c-5 31 -24 48 -58 49c-34 0 -54 -21 -60 -64c-4 -26 -6 -55 -6 -85z" />
    <glyph glyph-name="afii10058" unicode="&#x409;" horiz-adv-x="1014" 
d="M509 0l-36 119l-106 283l-45 129c-78 -173 -142 -356 -206 -531c-12 3 -34 4 -51 5c-16 0 -35 -1 -47 -4c111 240 210 477 308 724c12 -3 32 -4 47 -4c16 -1 32 2 48 4c35 -106 74 -211 114 -313l162 3c117 0 279 -44 279 -207c0 -107 -65 -184 -165 -202
c-30 -5 -59 -8 -87 -7l-135 6zM566 331l102 -262l12 -1c88 0 134 49 134 148c0 82 -54 132 -142 132c-44 0 -81 -8 -106 -17z" />
    <glyph glyph-name="guilsinglleft" unicode="&#x2039;" horiz-adv-x="294" 
d="M86 304c17 23 33 47 51 74l41 64c21 -22 45 -37 76 -45l-31 -35c-13 -16 -28 -37 -45 -64l-29 -46l27 -43c18 -29 35 -53 52 -73l27 -31c-28 -5 -53 -19 -77 -42l-35 55c-16 24 -36 53 -61 84l-38 50z" />
    <glyph glyph-name="afii10059" unicode="&#x40a;" horiz-adv-x="1126" 
d="M726 428l62 2c117 0 278 -48 278 -210c0 -107 -66 -197 -166 -215c-29 -5 -58 -7 -86 -7l-80 1v-1l-80 2l-89 -2h-1l4 71l3 127l1 153h-163c-43 0 -75 -1 -95 -2l-65 -6v-145c0 -45 1 -89 4 -132l4 -66l-87 2l-83 -2l1 67l6 148c1 43 1 99 2 168l-1 108
c0 82 -1 138 -4 169l-4 66l86 -3l84 3l-4 -67l-2 -85l-2 -92v-43l69 -5c29 -2 61 -3 98 -3l156 1v50l-1 119l-1 58l-6 67l88 -3l82 3v-1h1l-3 -54l-2 -74l-2 -52zM728 359l-1 -91v-48l3 -148v-1l39 -5c89 0 135 60 135 159c0 81 -55 138 -142 138c-14 0 -23 -2 -34 -4z" />
    <glyph glyph-name="afii10061" unicode="&#x40c;" horiz-adv-x="664" 
d="M171 721l85 3l-4 -58l-1 -81l-4 -120v-71l63 70l67 83c40 48 71 87 92 118l40 59l67 -3l71 3l-61 -62l-79 -85l-100 -112l-38 -44l61 -95l112 -164l74 -107l43 -57l-101 2l-104 -2l-32 56c-13 22 -34 56 -64 101l-64 100l-46 70l-1 -70v-100c0 -35 1 -67 4 -93l5 -64
l-81 2l-88 -2l3 63l2 91l1 103l1 207l-2 124l-2 81l-3 57zM462 956l64 2l5 -21c-55 -47 -114 -104 -177 -172h-40c22 48 38 82 48 108c8 18 17 46 31 85z" />
    <glyph glyph-name="afii10060" unicode="&#x40b;" horiz-adv-x="849" 
d="M27 687l-4 42l84 -3c74 -3 136 -5 186 -5c52 0 152 2 223 5l83 3l-2 -42l2 -41l-68 4l-97 4h-65l2 -251v3c43 25 120 45 187 45c88 0 227 -56 234 -244l11 -209l-90 3l-80 -3l3 50l2 89c-2 156 -33 240 -125 240c-48 0 -142 -21 -142 -124l-1 -60l1 -125l4 -70l-82 2
l-86 -2l3 70l5 139l1 204l1 198v45h-43l-83 -4l-68 -4z" />
    <glyph glyph-name="afii10145" unicode="&#x40f;" horiz-adv-x="822" 
d="M728 74l9 -76l-86 3l-85 -3h-59c-54 0 -75 -42 -61 -155h-59c8 113 -16 155 -72 155h-61l-88 3l-82 -3l4 66c2 37 3 93 4 169v108l-1 162l-3 147l-4 74l80 -2l90 2l-3 -70l-4 -127l-1 -94l-1 -52l1 -139v-92l1 -63l63 -9h205l57 12l1 60l2 92l1 140l-1 144l-3 132l-6 66
l88 -2l82 2l-1 -67l-7 -154v-162l1 -108z" />
    <glyph glyph-name="afii10099" unicode="&#x452;" horiz-adv-x="606" 
d="M317 -190c25 8 42 16 54 25c11 10 21 27 26 51c6 22 9 61 11 119v114l2 118l-1 79c-3 72 -33 109 -89 110c-40 0 -67 -17 -82 -52c-8 -17 -12 -38 -13 -64l-2 -70v-91l3 -88l5 -63l-72 2l-81 -2l4 68l3 134l1 199v168l-36 -1c-9 -1 -21 -2 -38 -6l3 39l2 33
c17 -5 29 -8 38 -9h33l-4 67l-5 34l73 29l70 32l11 -9l-4 -44c-3 -45 -5 -80 -5 -105v-4l103 1l52 7l-3 -35l3 -37c-25 3 -43 4 -57 6l-97 2v-133l25 30c33 34 77 51 129 51c112 0 168 -68 168 -201v-75l-1 -122l-1 -117c-2 -71 -20 -123 -54 -159c-34 -34 -85 -57 -155 -71
z" />
    <glyph glyph-name="quoteleft" unicode="&#x2018;" horiz-adv-x="293" 
d="M265 723l-59 -228c-16 -65 -45 -98 -83 -98c-18 0 -34 6 -47 19s-19 28 -21 44c0 18 7 35 17 54l25 35l139 187z" />
    <glyph glyph-name="quoteright" unicode="&#x2019;" horiz-adv-x="294" 
d="M67 410l58 228l11 43c13 37 37 55 72 55c18 0 34 -6 46 -19c14 -13 21 -27 21 -44c0 -19 -6 -36 -16 -54l-26 -35l-138 -187z" />
    <glyph glyph-name="quotedblleft" unicode="&#x201c;" horiz-adv-x="489" 
d="M268 722l-57 -228c-18 -66 -45 -98 -84 -98c-18 0 -34 5 -48 18c-12 13 -19 27 -19 45c0 17 6 35 17 53l25 36l138 187zM463 722l-58 -228c-10 -32 -18 -55 -26 -66c-13 -21 -34 -32 -58 -32c-18 0 -34 5 -47 18c-14 13 -20 27 -20 45s5 36 17 53l24 36l139 187z" />
    <glyph glyph-name="quotedblright" unicode="&#x201d;" horiz-adv-x="489" 
d="M42 410l58 228c5 18 9 31 13 43c13 37 37 55 72 55c17 0 32 -6 45 -19c14 -13 20 -27 20 -44c0 -19 -5 -36 -15 -54l-26 -35l-138 -187zM294 638l12 43c13 37 36 55 72 55c18 0 33 -6 47 -19c13 -13 20 -27 20 -44c0 -19 -6 -36 -17 -54l-25 -35l-139 -187l-28 13z" />
    <glyph glyph-name="bullet" unicode="&#x2022;" horiz-adv-x="762" 
d="M195 565c52 50 113 76 186 77c71 0 133 -27 186 -78c50 -51 77 -112 77 -185c0 -48 -12 -91 -36 -132c-23 -40 -55 -72 -96 -96c-40 -23 -83 -35 -131 -35c-73 0 -134 25 -186 76s-77 113 -77 187c0 73 25 134 77 186z" />
    <glyph glyph-name="endash" unicode="&#x2013;" horiz-adv-x="587" 
d="M30 325h539v-97h-539v97z" />
    <glyph glyph-name="emdash" unicode="&#x2014;" horiz-adv-x="939" 
d="M895 325v-97h-851v97h851z" />
    <glyph glyph-name="trademark" unicode="&#x2122;" horiz-adv-x="673" 
d="M39 735l115 -5l78 3l37 2l-1 -18l1 -20l-28 2l-55 1v-19l3 -177l1 -61v-30h-73l2 30l3 61v196l-54 -1l-29 -2v38zM282 413l-19 -2l4 30c8 34 11 62 22 142l14 106l5 42l19 -2l18 2l20 -47l86 -173l95 187l13 33l19 -2l18 2l4 -32l31 -246l8 -42l-36 2l-41 -2l-2 29
l-14 145l-3 38l-19 -40l-68 -137l-14 -35l-10 2l-10 -2l-27 64l-72 146c-18 -138 -17 -160 -18 -181l-1 -29z" />
    <glyph glyph-name="afii10106" unicode="&#x459;" horiz-adv-x="762" 
d="M395 269l66 -178l21 -54c5 -1 14 -1 17 -1c56 0 82 63 82 118c0 70 -41 122 -106 122c-27 0 -50 1 -80 -7zM335 443l44 -127l1 -3c72 8 82 8 115 8c181 0 237 -75 237 -160c0 -138 -123 -174 -243 -174l-101 12l-57 -1l-18 63l-40 133l-35 108l-18 53l-19 -49l-40 -106
l-46 -144l-16 -58l-48 2l-44 -2l35 81l44 108l57 149l38 110l20 57l59 -3l56 3z" />
    <glyph glyph-name="guilsinglright" unicode="&#x203a;" horiz-adv-x="293" 
d="M208 202c-22 -27 -42 -56 -61 -84l-36 -55c-22 22 -46 36 -76 42l27 31c18 22 35 46 53 73l26 43l-30 46c-15 26 -30 47 -45 64l-29 35c28 7 53 22 74 45l42 -64c14 -25 32 -49 51 -74l41 -52z" />
    <glyph glyph-name="afii10107" unicode="&#x45a;" horiz-adv-x="860" 
d="M529 355l1 -55l78 1c171 -1 222 -64 222 -153c0 -127 -134 -163 -253 -163c-40 0 -84 11 -124 15l-61 -2h-2h-7c2 27 4 53 5 77l1 61l3 96l-60 5h-82l-51 -5l2 -96l2 -92l5 -46l-77 2l-76 -2l4 46l2 92l2 110l-1 107l-3 97l-4 53l76 -4l77 4l-5 -51c-1 -21 -2 -54 -3 -97
l-1 -55l52 -5h138l1 58l-3 97l-4 53l76 -4l77 4l-4 -51c-1 -21 -2 -54 -3 -97zM530 242c0 -41 -1 -67 0 -92l3 -96c18 -7 38 -11 48 -11c61 0 101 36 101 105c0 70 -44 100 -109 100c-16 0 -30 -4 -43 -6z" />
    <glyph glyph-name="afii10109" unicode="&#x45c;" 
d="M49 -2l4 43l3 77l1 85v153l-3 97l-5 53l76 -4l78 4l-5 -51c-1 -21 -4 -54 -4 -97v-76l10 -1c8 2 23 15 47 40l59 64c18 19 38 46 61 81l25 36l59 -3l63 3l-44 -41l-86 -86l-64 -65l33 -52l76 -119l65 -102l28 -39l-85 2l-91 -2l-20 40l-60 101c-27 47 -46 75 -59 86
l-17 9v-37l1 -81l3 -76l2 -42l-66 2zM408 722l57 2l3 -17c-54 -36 -112 -80 -177 -133h-36c26 37 43 64 56 84c8 14 20 36 36 66z" />
    <glyph glyph-name="afii10108" unicode="&#x45b;" horiz-adv-x="606" 
d="M81 66l4 134l1 199v168l-36 -1c-9 -1 -21 -2 -38 -6l3 39l2 33c17 -5 28 -8 38 -9h33l-5 67l-4 34l73 29l70 32l10 -9l-3 -44c-3 -45 -5 -80 -5 -105v-4l102 1l53 7l-3 -35l3 -37c-25 3 -43 4 -57 6l-97 2v-133l25 30c33 34 76 51 129 51c112 0 168 -68 168 -201v-75
l-1 -96c0 -41 1 -73 3 -95l5 -50l-73 2l-80 -2l4 57c2 35 3 67 4 93l1 89l-1 79c-4 72 -33 109 -89 110c-40 0 -68 -17 -82 -52c-8 -17 -12 -38 -13 -64l-2 -70v-91l3 -88l5 -63l-73 2l-80 -2z" />
    <glyph glyph-name="afii10193" unicode="&#x45f;" horiz-adv-x="596" 
d="M204 -2l-71 -2l-78 -6l6 55l3 85l1 125l-1 101l-2 96l-6 51l81 -2l72 2l-5 -46c-2 -26 -3 -59 -3 -98v-87l3 -86l7 -132l42 -3h73l52 3l8 130l2 90l-1 87l-6 92l-2 50l75 -2l78 2l-5 -44c-2 -20 -3 -49 -3 -89v-240l3 -48l13 -92l-141 7c-72 1 -83 -36 -81 -168h-54
c12 132 -5 169 -60 169z" />
    <glyph glyph-name="afii10062" unicode="&#x40e;" horiz-adv-x="697" 
d="M290 113l-277 556l-28 56l100 -4l86 4l23 -56l193 -418l23 50l152 364l21 60l56 -4l54 4l-32 -61l-233 -494l-95 -231l-59 5l-60 -4l85 155zM555 959l6 -62l12 -49l-36 -16c-40 -9 -103 -22 -164 -22c-63 0 -107 3 -147 20l-42 18c9 27 9 35 12 50l6 61h19
c12 -35 24 -48 42 -62c23 -22 68 -31 110 -31c41 0 96 11 119 31c18 15 33 27 45 62h18z" />
    <glyph glyph-name="afii10110" unicode="&#x45e;" 
d="M106 499l80 3l19 -62l37 -105l42 -112l19 -47l19 46l42 110c18 48 31 85 38 109l18 61l40 -3l49 3l-25 -62l-73 -170l-72 -174l-62 -154l-42 -103l-19 -57l-47 2l-50 -2l35 59c13 24 28 55 48 97l28 62l-41 96l-71 171l-70 171l-27 64zM443 724l4 -42c2 -14 5 -32 11 -58
l-29 -12c-35 -9 -88 -19 -140 -19c-54 0 -98 6 -133 18l-29 11c5 27 8 45 11 59l6 43h15c11 -31 20 -42 36 -56c19 -18 57 -25 93 -25s83 8 102 26c14 14 28 24 40 55h13z" />
    <glyph glyph-name="afii10057" unicode="&#x408;" horiz-adv-x="351" 
d="M32 -119c31 5 52 30 63 74c5 23 8 57 10 102v285l-2 175l-2 134l-4 74l80 -4l89 4l-6 -73c-1 -27 -2 -71 -2 -135v-170c0 -48 1 -96 6 -146c1 -37 2 -71 2 -104c0 -82 -21 -145 -65 -192c-42 -46 -87 -70 -137 -74l-33 2l-19 46z" />
    <glyph glyph-name="currency" unicode="&#xa4;" horiz-adv-x="587" 
d="M118 634l68 -67l26 14c39 19 79 29 122 30c41 0 79 -10 115 -29l25 -15l68 67l67 -68l-71 -68l13 -21c19 -36 27 -75 28 -118c0 -41 -8 -77 -26 -109l-15 -24l71 -69l-67 -66l-68 65l-37 -21c-33 -16 -68 -23 -107 -23c-38 0 -73 7 -107 23l-37 21l-68 -65l-68 66l70 69
l-15 27c-17 33 -24 68 -24 106c0 37 7 74 24 110l15 29l-70 68zM185 361c0 -25 7 -50 18 -72c13 -22 31 -40 54 -53s48 -19 73 -19c40 0 74 14 101 42c29 27 43 62 44 102c-1 40 -15 74 -44 101c-27 29 -60 43 -101 44c-25 0 -50 -7 -73 -20c-22 -13 -40 -30 -54 -53
c-11 -22 -18 -46 -18 -72z" />
    <glyph glyph-name="afii10050" unicode="&#x490;" horiz-adv-x="531" 
d="M93 725c67 -4 137 -5 206 -5h69c58 1 68 53 55 150h57c22 -214 24 -219 26 -236c-89 9 -144 12 -195 12c-16 0 -34 -1 -46 -2c-1 -29 -2 -194 -2 -287c0 -110 1 -252 11 -362c-32 3 -62 5 -92 5c-32 0 -57 -2 -89 -5c10 121 11 242 11 364c0 137 -2 261 -11 366z" />
    <glyph glyph-name="brokenbar" unicode="&#xa6;" 
d="M237 -237v474h53v-474h-53zM290 764v-474h-53v474h53z" />
    <glyph glyph-name="section" unicode="&#xa7;" horiz-adv-x="587" 
d="M425 563h-11l-11 34c-14 43 -48 65 -101 66c-22 -1 -39 -4 -54 -12c-19 -12 -29 -26 -29 -44c0 -21 13 -38 38 -52l38 -19l71 -32c64 -27 106 -57 124 -88c9 -18 14 -39 14 -64c-1 -46 -23 -90 -66 -131c9 -15 17 -26 24 -38c9 -18 14 -37 14 -58
c-1 -51 -21 -93 -61 -128c-19 -18 -43 -29 -69 -38c-30 -9 -61 -14 -95 -14c-36 0 -76 7 -121 22l-40 13c8 31 12 54 16 70l8 64h14c15 -36 32 -63 52 -79c26 -22 55 -32 89 -32c24 0 44 5 60 16c19 14 29 32 30 55c0 27 -17 48 -51 65l-75 35c-29 11 -54 24 -75 35
c-18 10 -33 21 -45 34c-25 26 -36 57 -35 93c0 47 22 91 66 133l-18 34c-8 17 -12 36 -12 57c0 50 21 90 64 120c20 15 42 26 70 33c21 5 43 8 67 8c34 0 73 -8 118 -25l33 -15l-20 -51zM182 438c-11 -12 -17 -22 -17 -32c0 -24 13 -43 37 -59c20 -14 47 -28 81 -40
c32 -14 61 -26 85 -38l32 -18l11 14c4 6 6 13 6 22c0 21 -16 40 -47 58c-25 12 -54 26 -85 41c-35 14 -62 26 -81 37z" />
    <glyph glyph-name="afii10023" unicode="&#x401;" 
d="M85 45c2 28 3 62 3 101l1 133l-1 192v113l-3 91l-5 54l89 -6c21 -1 55 -2 103 -2c71 0 122 1 153 3l60 5l-2 -46l2 -49l-63 4l-124 4l-56 1v-230l62 -1c39 0 77 1 114 4l60 4l-3 -48l3 -47l-63 5c-33 1 -70 2 -113 4l-60 -2v-253l58 -1c34 0 72 1 113 4l72 5l-2 -48
l2 -47l-68 4l-120 4l-128 -1l-89 -7zM116 935c16 15 34 22 54 23c20 0 37 -7 52 -22c16 -12 22 -29 23 -51c0 -18 -6 -36 -23 -52c-15 -14 -31 -21 -52 -21c-20 0 -38 7 -54 21c-13 14 -21 30 -21 52c0 20 8 37 21 50zM347 935c16 15 33 22 54 23c19 0 37 -7 52 -22
c15 -12 22 -29 23 -51c0 -18 -7 -36 -23 -52c-15 -14 -32 -21 -52 -21c-21 0 -38 7 -54 21c-14 14 -21 30 -21 52c0 20 7 37 21 50z" />
    <glyph glyph-name="copyright" unicode="&#xa9;" 
d="M52 663c21 38 50 67 89 89c38 22 80 34 124 34s85 -10 125 -33c38 -22 67 -51 89 -90c22 -38 33 -80 34 -124c0 -44 -12 -85 -34 -125c-21 -38 -50 -67 -89 -90c-38 -21 -80 -33 -124 -33c-68 0 -126 24 -174 72c-49 47 -73 105 -73 176c0 42 11 83 33 124zM56 539
c0 -36 8 -71 27 -106c18 -32 44 -58 77 -77s68 -27 106 -28c58 0 107 21 148 62s62 91 62 149s-20 107 -62 148c-41 41 -90 62 -148 62s-108 -20 -149 -61c-40 -40 -61 -90 -61 -149zM356 629c-6 7 -11 11 -15 17c-15 13 -33 21 -56 21c-31 0 -55 -13 -74 -39
c-15 -21 -22 -49 -22 -83c0 -23 3 -45 12 -65c7 -19 17 -34 33 -44c17 -11 34 -15 53 -16c24 0 46 7 65 22l12 9l5 -3l-5 -19l-4 -18l-10 -4c-20 -9 -44 -14 -72 -14c-27 0 -51 5 -74 14c-17 6 -32 17 -46 31c-12 11 -22 25 -27 40c-8 17 -11 38 -11 61c0 50 15 88 47 115
c31 27 70 39 119 39c24 0 48 -3 69 -10l16 -7l-6 -21l-6 -26h-3z" />
    <glyph glyph-name="afii10053" unicode="&#x404;" horiz-adv-x="704" 
d="M569 384l3 -48l-134 10l-183 -3l-38 -4c-2 -32 8 -87 28 -138c18 -47 46 -83 86 -110c40 -26 83 -38 132 -39c59 0 112 17 160 54l31 25l14 -7l-14 -50l-10 -43l-25 -12c-50 -22 -111 -33 -181 -34c-66 0 -127 12 -184 34c-43 17 -81 42 -115 76c-32 31 -54 63 -69 100
c-18 45 -26 96 -26 155c0 123 39 218 118 287c77 66 175 99 296 99c63 0 120 -10 172 -29l40 -14l-14 -53l-14 -66h-9c-14 17 -26 30 -36 41c-37 36 -84 54 -142 54c-76 0 -137 -32 -183 -98c-28 -40 -46 -87 -53 -143l37 -5l180 -1l136 12z" />
    <glyph glyph-name="guillemotleft" unicode="&#xab;" horiz-adv-x="468" 
d="M85 304c17 23 34 47 52 74l40 64c21 -22 45 -37 76 -45l-31 -35c-12 -16 -27 -37 -45 -64l-29 -46l28 -43c18 -29 35 -53 52 -73l26 -31c-28 -5 -53 -19 -77 -42l-35 55c-16 24 -36 53 -60 84l-38 50zM260 304c17 23 34 47 52 74l40 64c21 -22 46 -37 76 -45l-30 -35
c-13 -16 -28 -37 -46 -64l-28 -46l27 -43c18 -29 35 -53 52 -73l26 -31c-27 -5 -53 -19 -77 -42l-35 55c-16 24 -36 53 -60 84l-38 50z" />
    <glyph glyph-name="logicalnot" unicode="&#xac;" horiz-adv-x="939" 
d="M743 417v-319h-91v229h-457v90h548z" />
    <glyph glyph-name="hyphen" unicode="-" horiz-adv-x="294" 
d="M280 332v-118h-264v118h264z" />
    <glyph glyph-name="hyphen" unicode="&#x2010;" horiz-adv-x="294" 
d="M280 332v-118h-264v118h264z" />
    <glyph glyph-name="hyphen" unicode="&#xad;" horiz-adv-x="294" 
d="M280 332v-118h-264v118h264z" />
    <glyph glyph-name="registered" unicode="&#xae;" 
d="M52 663c21 38 50 67 89 89c38 22 80 34 124 34s85 -10 125 -33c38 -22 67 -51 89 -90c22 -38 33 -80 34 -124c0 -44 -12 -85 -34 -125c-21 -38 -50 -67 -89 -90c-38 -21 -80 -33 -124 -33c-68 0 -126 24 -174 72c-49 47 -73 105 -73 176c0 42 11 83 33 124zM56 539
c0 -36 8 -71 27 -106c18 -32 44 -58 77 -77s68 -27 106 -28c58 0 107 21 148 62s62 91 62 149s-20 107 -62 148c-41 41 -90 62 -148 62s-108 -20 -149 -61c-40 -40 -61 -90 -61 -149zM201 690l41 1l38 1c25 0 45 -6 59 -17c17 -15 25 -32 26 -56c0 -9 -2 -19 -5 -28
c-5 -14 -14 -24 -24 -32c-8 -5 -20 -9 -38 -15l12 -22c24 -39 44 -71 63 -98l17 -23l-42 1l-36 -1l-13 23l-27 49c-7 13 -17 29 -29 48l-11 17v-65c0 -19 1 -35 2 -49l1 -23l-34 1l-33 -1l2 24c1 10 1 25 1 48v157c0 19 0 34 -1 44l-2 18zM232 555h15c15 0 27 6 37 20
c8 12 12 25 13 42c0 33 -17 49 -50 49l-15 -1v-110z" />
    <glyph glyph-name="afii10056" unicode="&#x407;" horiz-adv-x="405" 
d="M121 50l3 108l2 207l-1 183c0 55 -1 98 -4 131l-3 45l85 -3l85 3l-4 -45c-2 -24 -3 -68 -3 -133l-2 -184v-208c1 -43 2 -79 4 -110l5 -46l-84 2l-86 -2zM50 935c16 15 34 22 54 23c20 0 37 -7 52 -22c15 -13 22 -29 23 -52c0 -18 -7 -35 -23 -51c-15 -14 -31 -21 -52 -21
c-20 0 -38 7 -54 21c-14 13 -21 30 -21 51c0 20 7 37 21 51zM247 935c16 15 33 22 54 23c19 0 37 -7 52 -22c15 -13 22 -29 23 -52c0 -18 -7 -35 -23 -51c-15 -14 -32 -21 -52 -21c-21 0 -38 7 -54 21c-14 13 -21 30 -21 51c0 20 7 37 21 51z" />
    <glyph glyph-name="degree" unicode="&#xb0;" horiz-adv-x="587" 
d="M171 657c35 33 77 51 127 52c49 0 90 -18 125 -52c34 -34 51 -75 52 -125c0 -49 -18 -91 -52 -126c-34 -33 -75 -51 -125 -51s-91 17 -127 51c-34 34 -51 76 -51 126c0 49 17 90 51 125zM192 532c0 -29 11 -54 31 -75c21 -20 45 -31 75 -31c28 0 52 11 73 31
c21 21 31 45 32 75c0 29 -10 54 -31 74c-20 20 -44 31 -74 32c-30 0 -54 -11 -75 -31c-20 -20 -29 -44 -31 -75z" />
    <glyph glyph-name="plusminus" unicode="&#xb1;" horiz-adv-x="939" 
d="M743 -83v-90h-548v90h548zM423 298v229h91v-229h229v-91h-229v-230h-91v230h-228v91h228z" />
    <glyph glyph-name="afii10055" unicode="&#x406;" horiz-adv-x="351" 
d="M93 51l3 107l2 207l-1 183c0 55 -1 98 -4 131l-3 45l85 -3l85 3l-4 -45c-2 -23 -3 -68 -3 -133l-2 -184v-208c1 -43 2 -79 4 -110l5 -46l-84 2l-86 -2z" />
    <glyph glyph-name="afii10103" unicode="&#x456;" horiz-adv-x="294" 
d="M73 44l2 92l2 110l-1 106l-3 97l-4 53l76 -3l77 3l-4 -51c-1 -21 -2 -53 -3 -97l-1 -108l2 -110l2 -92l4 -46l-77 2l-76 -2zM89 750c17 16 36 23 58 24c21 0 40 -7 56 -23c16 -15 23 -34 24 -57c0 -21 -7 -40 -24 -57c-16 -16 -34 -23 -56 -23s-41 7 -58 23
c-15 15 -22 34 -22 57c0 21 7 40 22 56z" />
    <glyph glyph-name="afii10098" unicode="&#x491;" horiz-adv-x="381" 
d="M17 -2l4 46l2 92l3 110l-1 106l-4 94l-9 62l81 -6h112c90 0 95 38 75 150h54l16 -142l9 -71l-23 1l-107 5l-63 1c-1 -21 -2 -51 -3 -91l-1 -109l2 -110l2 -92l4 -46l-77 2z" />
    <glyph glyph-name="mu" unicode="&#xb5;" horiz-adv-x="626" 
d="M141 505h148l-68 -230l-16 -57c-5 -22 -7 -41 -7 -57c0 -23 7 -41 23 -55c16 -13 34 -19 56 -19c41 0 72 22 91 66c6 17 13 38 22 64l84 288h155l-147 -505h-122l18 62c-10 -14 -21 -24 -31 -34c-27 -28 -61 -42 -101 -43c-22 0 -41 5 -57 18c-17 9 -28 25 -34 50
l-69 -241h-150z" />
    <glyph glyph-name="mu" unicode="&#x3bc;" horiz-adv-x="626" 
d="M141 505h148l-68 -230l-16 -57c-5 -22 -7 -41 -7 -57c0 -23 7 -41 23 -55c16 -13 34 -19 56 -19c41 0 72 22 91 66c6 17 13 38 22 64l84 288h155l-147 -505h-122l18 62c-10 -14 -21 -24 -31 -34c-27 -28 -61 -42 -101 -43c-22 0 -41 5 -57 18c-17 9 -28 25 -34 50
l-69 -241h-150z" />
    <glyph glyph-name="paragraph" unicode="&#xb6;" horiz-adv-x="587" 
d="M560 743h-71v-911h-41v911h-51v-911h-41v462l-32 7c-61 12 -109 40 -145 80c-36 43 -55 95 -55 154c0 38 8 74 25 107c37 74 104 119 202 136c35 5 72 8 112 8h97v-43z" />
    <glyph glyph-name="periodcentered" unicode="&#xb7;" horiz-adv-x="294" 
d="M86 424c17 16 37 25 61 26c24 0 44 -9 61 -26s27 -37 27 -61c0 -23 -9 -44 -26 -61s-37 -26 -61 -27c-24 0 -44 9 -61 26c-17 16 -26 37 -27 61c0 24 9 45 26 62z" />
    <glyph glyph-name="periodcentered" unicode="&#x22c5;" horiz-adv-x="294" 
d="M86 424c17 16 37 25 61 26c24 0 44 -9 61 -26s27 -37 27 -61c0 -23 -9 -44 -26 -61s-37 -26 -61 -27c-24 0 -44 9 -61 26c-17 16 -26 37 -27 61c0 24 9 45 26 62z" />
    <glyph glyph-name="periodcentered" unicode="&#x2219;" horiz-adv-x="294" 
d="M86 424c17 16 37 25 61 26c24 0 44 -9 61 -26s27 -37 27 -61c0 -23 -9 -44 -26 -61s-37 -26 -61 -27c-24 0 -44 9 -61 26c-17 16 -26 37 -27 61c0 24 9 45 26 62z" />
    <glyph glyph-name="afii10071" unicode="&#x451;" 
d="M425 10c-13 -7 -29 -11 -46 -15c-27 -6 -53 -10 -81 -10c-124 0 -203 48 -240 145c-15 38 -22 79 -22 122c0 45 7 85 21 122c10 28 28 54 53 78c43 41 99 62 169 62s124 -20 164 -62c39 -41 59 -96 60 -165l-2 -50l-29 3l-57 2l-55 3h-173l3 -34c4 -45 19 -81 43 -108
c28 -31 63 -46 107 -46c34 0 66 8 101 23l31 15l12 -8l-13 -32l-16 -32zM351 301v29c-2 89 -27 136 -77 137c-37 0 -62 -26 -76 -74c-5 -19 -8 -39 -9 -59l-1 -33h163zM109 706c15 15 33 23 53 24c20 0 37 -8 52 -23c16 -12 22 -29 23 -51c0 -18 -6 -36 -23 -52
c-15 -14 -31 -21 -52 -21c-20 0 -38 7 -53 21c-14 14 -22 31 -22 52c0 20 8 37 22 50zM328 706c16 15 33 23 54 24c19 0 37 -8 52 -23c14 -12 22 -29 23 -51c0 -18 -7 -36 -23 -52c-15 -14 -32 -21 -52 -21c-21 0 -38 7 -54 21c-15 14 -21 31 -21 52c0 20 6 37 21 50z" />
    <glyph glyph-name="afii61352" unicode="&#x2116;" horiz-adv-x="1208" 
d="M93 40c1 39 2 90 4 153l2 191l-1 169l-4 104l-3 67l52 -3l51 3l50 -64c22 -27 60 -70 114 -130l120 -132c44 -48 84 -91 120 -128l52 -54l-2 92l-2 116l-3 130l-3 116l-2 54l44 -3l44 3v-45l-4 -111l-2 -209l-1 -198v-108l2 -55l-46 2l-51 -2l-42 54
c-27 33 -58 70 -94 111c-35 40 -80 89 -135 147l-124 133l-54 59l-2 -42l-1 -110l2 -156c0 -67 1 -118 4 -153l3 -43l-44 2l-46 -2zM848 657c33 30 76 45 130 46c54 0 96 -15 128 -46s48 -72 49 -125c0 -52 -16 -94 -47 -127c-33 -33 -74 -49 -124 -49c-55 0 -99 15 -134 45
c-34 31 -52 74 -52 129c0 54 17 95 50 127zM912 515c0 -27 2 -52 7 -71c5 -33 24 -50 57 -49c34 -1 54 19 61 62c2 26 4 56 5 89c0 27 -2 50 -5 68c-5 32 -24 49 -58 50c-34 0 -54 -21 -60 -64c-5 -27 -7 -55 -7 -85zM1140 267v-91l-330 1v90h330z" />
    <glyph glyph-name="afii10101" unicode="&#x454;" 
d="M304 238h-120c0 -99 60 -189 161 -190c32 0 61 9 88 26l25 19l17 -8l-12 -28l-10 -28l-25 -15c-33 -19 -73 -29 -120 -29c-157 0 -273 98 -273 258c0 73 22 143 74 195c23 23 53 42 89 55c36 14 75 21 116 21c59 0 108 -12 152 -35l25 -17l-18 -41l-18 -53h-24
c-3 14 -6 26 -11 35c-17 38 -56 59 -99 59c-82 0 -137 -80 -137 -168h116l43 4l59 5l-2 -35l2 -37l-59 5z" />
    <glyph glyph-name="guillemotright" unicode="&#xbb;" horiz-adv-x="469" 
d="M207 202c-21 -27 -41 -56 -60 -84l-36 -55c-22 22 -47 36 -76 42l26 31c18 22 35 46 53 73l26 43l-29 46c-17 27 -32 48 -44 64l-31 35c28 7 54 22 75 45l41 -64c15 -25 33 -49 52 -74l40 -52zM237 136c17 22 34 46 52 73l27 43l-30 46c-17 27 -32 48 -44 64l-31 35
c29 7 54 22 75 45l41 -64c15 -25 33 -49 52 -74l40 -52l-37 -50c-21 -27 -41 -56 -60 -84l-36 -55c-22 22 -46 36 -76 42z" />
    <glyph glyph-name="afii10105" unicode="&#x458;" horiz-adv-x="294" 
d="M-13 -176c25 7 42 16 53 24c12 11 22 28 27 52c5 21 8 60 10 118v224l-1 110c-1 37 -2 68 -3 97l-4 54l76 -3l77 3l-3 -51l-4 -101l-1 -109l2 -112l-1 -116c-2 -72 -20 -123 -54 -159c-34 -34 -86 -57 -155 -71zM89 751c17 16 36 23 58 24c21 0 40 -7 56 -24
c16 -16 23 -34 24 -56c0 -22 -7 -41 -24 -57c-16 -16 -34 -23 -56 -23s-41 7 -58 23c-15 15 -22 34 -22 57c0 21 7 40 22 56z" />
    <glyph glyph-name="afii10054" unicode="&#x405;" 
d="M78 160h25c24 -73 70 -109 137 -108c38 0 68 8 88 24c25 22 39 50 39 82c0 35 -21 65 -62 91c-22 14 -46 27 -71 40l-66 36c-52 29 -86 66 -102 111c-7 23 -11 49 -11 77c0 36 6 67 17 93c12 30 31 54 58 76c43 35 98 53 164 54c51 0 97 -10 140 -32l26 -16l-19 -49
c-3 -12 -7 -31 -14 -56h-19c-14 32 -29 55 -45 64c-22 15 -48 22 -75 22c-31 0 -55 -7 -75 -24c-22 -18 -34 -41 -33 -70c0 -37 18 -66 54 -89c23 -15 51 -30 82 -46c69 -35 114 -65 137 -94c12 -16 22 -36 29 -59c7 -22 10 -43 10 -66c0 -70 -27 -128 -79 -175
c-47 -40 -107 -61 -183 -61c-24 0 -50 2 -76 7c-24 5 -47 10 -67 20l-39 18c10 29 17 50 20 65c4 15 7 36 10 65z" />
    <glyph glyph-name="afii10102" unicode="&#x455;" horiz-adv-x="411" 
d="M352 430l-12 -47h-21c-19 57 -55 83 -107 83c-21 0 -39 -5 -54 -16c-14 -12 -23 -29 -23 -49c0 -23 13 -40 38 -53c17 -8 38 -17 63 -25c52 -18 88 -37 106 -55c26 -25 39 -59 39 -100c0 -21 -3 -43 -10 -64c-10 -27 -24 -49 -43 -68s-39 -32 -63 -39
c-22 -9 -48 -12 -77 -12c-44 0 -82 7 -114 23l-33 19l9 44l6 44h21l19 -28c27 -36 63 -54 110 -54c22 0 40 6 55 16c17 15 24 32 24 52c0 26 -20 46 -60 61l-49 20l-49 22c-20 8 -36 18 -50 31c-25 24 -38 58 -38 104c-1 53 16 95 51 129c32 30 77 46 132 46
c41 0 80 -8 116 -26l28 -16z" />
    <glyph glyph-name="afii10104" unicode="&#x457;" horiz-adv-x="387" 
d="M121 44l2 92l2 110l-1 106l-3 97l-4 53l76 -3l77 3l-4 -51c-1 -21 -2 -53 -3 -97l-1 -108l2 -110l2 -92l4 -46l-77 2l-76 -2zM54 753c14 14 30 20 49 21c18 0 34 -6 48 -20c13 -11 20 -27 21 -47c0 -17 -6 -33 -21 -48c-14 -12 -29 -19 -48 -19s-35 7 -49 19
c-13 13 -19 29 -19 48c0 18 6 34 19 46zM234 753c15 14 31 20 50 21c18 0 34 -6 47 -20c14 -11 20 -27 21 -47c0 -17 -6 -33 -21 -48c-13 -12 -28 -19 -47 -19s-35 7 -50 19c-12 13 -19 29 -19 48c0 18 7 34 19 46z" />
    <glyph glyph-name="afii10017" unicode="&#x410;" horiz-adv-x="704" 
d="M44 74c60 130 123 277 190 444l52 135l25 71l37 -3l46 3l26 -71l49 -133c63 -166 125 -314 186 -444l38 -78l-101 2l-88 -2l-21 71l-33 91l-15 46l-56 6c-17 1 -42 2 -71 2s-52 0 -69 -2l-54 -6l-17 -45c-10 -28 -20 -59 -30 -90l-21 -73l-54 2l-57 -2zM217 289l36 -4
c19 -2 40 -3 63 -3c20 0 37 0 53 2l34 5l-17 41l-52 129l-24 60l-25 -60l-51 -129z" />
    <glyph glyph-name="afii10018" unicode="&#x411;" horiz-adv-x="645" 
d="M245 413l58 1c118 0 280 -44 280 -207c0 -107 -65 -184 -166 -202c-29 -5 -58 -7 -86 -7l-82 1l-71 1h-50l-45 -2l5 52c0 19 1 48 1 89l1 137v318l-2 75l-5 54l73 -4l140 -4l166 1l73 7l-4 -41l4 -42l-73 4c-39 2 -119 3 -167 4h-51l3 -45l-2 -60v-130zM244 344l-1 -52
v-72l1 -82l3 -67l40 -4c88 0 134 49 134 148c0 82 -54 133 -142 132z" />
    <glyph glyph-name="afii10019" unicode="&#x412;" horiz-adv-x="645" 
d="M88 50c0 19 1 48 1 89l1 136v319l-2 78l-5 52l36 -2l73 -1l72 1l101 2c61 -1 108 -13 140 -36c41 -28 62 -70 64 -125c0 -36 -11 -69 -34 -99c-23 -26 -51 -46 -86 -59l-34 -9l36 -13c26 -8 48 -21 68 -37c23 -18 39 -40 50 -65c10 -22 14 -47 14 -74
c0 -75 -27 -130 -82 -167c-27 -18 -54 -28 -84 -35c-29 -5 -58 -7 -86 -7l-82 1l-71 1h-50l-45 -2zM244 344l-1 -52v-72l1 -82l3 -67l40 -5c88 0 133 50 134 149c0 15 -1 28 -5 41c-8 38 -34 65 -77 82c-18 5 -37 8 -60 9zM245 413l40 1c28 1 51 8 71 22c34 22 50 57 51 107
c-1 73 -41 111 -122 111l-36 -3l-2 -48l-2 -60v-130z" />
    <glyph glyph-name="afii10020" unicode="&#x413;" horiz-adv-x="531" 
d="M93 725c67 -4 137 -5 206 -5s137 1 207 5c-3 -15 -4 -28 -4 -44c0 -15 2 -31 4 -48c-70 9 -135 13 -195 13c-16 0 -34 -1 -46 -2c-1 -30 -2 -194 -2 -287c0 -110 1 -252 11 -362c-32 3 -62 5 -92 5c-32 0 -57 -2 -89 -5c10 121 11 241 11 364c0 137 -2 261 -11 366z" />
    <glyph glyph-name="afii10021" unicode="&#x414;" horiz-adv-x="794" 
d="M396 722l54 2l24 -69l62 -169l102 -265c20 -51 41 -100 60 -147l92 11l-9 -46l-18 -201h-59c7 97 5 160 -54 160c-45 1 -93 0 -165 1l1 -1c-13 1 -35 1 -56 1h-121l-165 -1c-59 0 -61 -63 -54 -160h-59l-18 201l-9 46l92 -11l63 146c33 77 67 164 105 264l63 173l25 67z
M360 526l-35 -89c-66 -171 -111 -293 -133 -368h4c50 -2 92 -3 129 -3h143h57c-31 99 -74 223 -131 371z" />
    <glyph glyph-name="afii10022" unicode="&#x415;" 
d="M85 45c2 28 3 62 3 101l1 133l-1 192v113l-3 91l-5 54l89 -6c21 -1 55 -2 103 -2c71 0 122 1 153 3l60 5l-2 -46l2 -49l-63 4l-124 4l-56 1v-230l62 -1c39 0 77 1 114 4l60 4l-3 -48l3 -47l-63 5c-33 1 -70 3 -113 4l-60 -1v-254l58 -1c34 0 72 1 113 4l72 5l-2 -48
l2 -47l-68 4l-120 4l-128 -1l-89 -7z" />
    <glyph glyph-name="afii10024" unicode="&#x416;" horiz-adv-x="988" 
d="M692 421l61 -95l112 -163l74 -108l43 -57l-101 2l-103 -2l-33 56c-13 22 -34 56 -63 101l-65 100l-45 80l-1 -80v-100c0 -35 1 -66 3 -93l5 -64l-81 2l-79 -2l5 64c2 27 3 58 3 93v100l-1 80l-45 -80l-65 -100c-29 -45 -50 -79 -63 -101l-33 -56l-103 2l-101 -2l43 57
l74 108l112 163l61 95l-156 159l-81 85l-67 59l72 -3l66 3l47 -62l240 -259v63l-3 119l-1 81l-4 58l80 -3l80 3l-4 -58l-1 -81l-3 -119v-63l240 259l47 62l66 -3l72 3l-67 -59l-81 -85z" />
    <glyph glyph-name="afii10025" unicode="&#x417;" horiz-adv-x="598" 
d="M176 416c14 -4 36 -7 48 -7c87 0 146 33 146 132c0 88 -47 133 -112 133c-73 0 -112 -33 -133 -87h-19c-4 35 -21 73 -33 106c54 26 111 47 196 47c171 0 265 -85 265 -190c0 -91 -82 -153 -164 -164v-9c67 -11 177 -50 177 -183c0 -152 -146 -214 -300 -214
c-53 0 -152 8 -210 44l19 60l10 71h25c20 -57 73 -109 153 -109c75 0 141 57 141 143c0 109 -71 159 -157 159c-10 0 -32 -2 -52 -6v74z" />
    <glyph glyph-name="afii10026" unicode="&#x418;" horiz-adv-x="821" 
d="M742 724h9c-6 -62 -9 -174 -9 -322c0 -128 -2 -289 9 -404c-32 3 -50 2 -81 2c-30 0 -58 1 -89 -2c10 120 8 237 8 360c0 47 -1 103 -3 141c-141 -161 -277 -332 -408 -501h-90l10 360c0 137 -2 261 -11 366l87 -3l84 3c-10 -109 -9 -230 -9 -365v-141
c148 159 290 328 414 503z" />
    <glyph glyph-name="afii10027" unicode="&#x419;" horiz-adv-x="821" 
d="M742 724h9c-6 -62 -9 -174 -9 -322c0 -128 -2 -289 9 -404c-32 3 -50 2 -81 2c-30 0 -58 1 -89 -2c10 120 8 237 8 360c0 47 -1 103 -3 141c-141 -161 -277 -332 -408 -501h-90l10 360c0 137 -2 260 -11 366l87 -3l84 3c-10 -109 -9 -230 -9 -365v-141
c148 159 290 328 414 503zM625 958l5 -62l13 -49l-36 -15c-40 -10 -103 -23 -165 -23s-106 4 -146 21l-43 17c10 28 10 35 13 50l5 61h19c13 -35 25 -47 42 -62c24 -21 68 -31 110 -31c41 0 96 11 120 31c18 16 32 27 45 62h18z" />
    <glyph glyph-name="afii10028" unicode="&#x41a;" horiz-adv-x="664" 
d="M171 721l85 3l-4 -58l-1 -81l-4 -119v-72l63 70l67 83c40 48 71 87 92 118l40 59l67 -3l71 3l-61 -62l-79 -85l-100 -111l-38 -45l61 -95l112 -163l74 -108l43 -57l-101 2l-104 -2l-32 56c-13 22 -34 56 -64 101l-64 100l-46 70l-1 -70v-100c0 -35 1 -66 4 -93l5 -64
l-81 2l-88 -2l3 63l2 91l1 103l1 207l-2 124l-2 81l-3 57z" />
    <glyph glyph-name="afii10029" unicode="&#x41b;" horiz-adv-x="716" 
d="M360 720c16 0 32 2 48 5c90 -247 187 -487 285 -730c-30 3 -62 5 -94 5c-31 0 -70 -2 -93 -5c-53 177 -127 352 -190 530c-73 -177 -143 -353 -201 -530c-11 2 -33 5 -50 5c-16 0 -35 -2 -48 -5c103 243 208 480 298 730c11 -3 29 -5 45 -5z" />
    <glyph glyph-name="afii10030" unicode="&#x41c;" horiz-adv-x="939" 
d="M85 0l-47 -2l13 67l32 193l18 128l31 242l11 96l44 -3l40 3l48 -108l73 -155l82 -165l38 -73l38 70l86 167c40 80 69 143 90 189l31 75l42 -3l41 3l8 -73l32 -267l43 -293l17 -93l-84 2l-93 -2l-4 65l-14 182l-17 145l-8 86l-43 -89l-65 -126l-87 -184l-33 -79l-22 2
l-21 -2l-20 49l-45 95l-120 249l-42 82l-10 -85l-16 -146l-14 -180l-2 -64z" />
    <glyph glyph-name="afii10031" unicode="&#x41d;" horiz-adv-x="822" 
d="M173 721l85 3l-4 -67l-2 -85l-3 -92v-43l70 -5c29 -2 60 -3 97 -3c35 0 66 1 92 3l66 5l-1 43v92l-3 85l-5 67l88 -3l82 3l-4 -66c-2 -37 -3 -93 -4 -169v-108l1 -161l3 -148l4 -74l-80 2l-90 -2l3 71l3 126l2 94l1 52l-70 4l-94 4c-43 0 -75 -1 -95 -2l-66 -6v-145
c0 -45 2 -89 5 -132l4 -66l-88 2l-82 -2l1 67l5 148c1 43 1 99 2 168l-1 108c0 82 -1 138 -3 169l-4 66z" />
    <glyph glyph-name="afii10032" unicode="&#x41e;" horiz-adv-x="879" 
d="M160 633c72 68 169 102 290 103c111 0 201 -30 270 -89c36 -30 63 -65 81 -104c23 -51 35 -108 35 -171c0 -117 -38 -210 -115 -282c-74 -69 -169 -104 -286 -105c-116 0 -209 32 -280 95c-73 67 -111 156 -111 270c0 117 39 211 116 283zM216 347c0 -87 15 -154 46 -199
c19 -29 43 -52 72 -69c32 -19 66 -28 103 -27c78 0 137 36 178 106c32 57 49 128 50 212c0 78 -15 145 -46 201c-14 29 -36 52 -65 70c-31 19 -68 28 -110 28c-78 0 -138 -36 -181 -107c-31 -54 -47 -125 -47 -215z" />
    <glyph glyph-name="afii10033" unicode="&#x41f;" horiz-adv-x="807" 
d="M573 341v96l-1 43v92l-1 63l-62 9h-225l-57 -12l-1 -60l-2 -92v-39l-1 -1v-100l1 -144c0 -45 1 -89 4 -132l4 -66l-87 2l-83 -2l1 67l6 148c1 43 1 99 2 168l-1 108c0 82 -1 138 -3 169l-5 66l86 -3l84 3h333l87 -3l83 3l-4 -66c-3 -37 -4 -93 -5 -169v-108l1 -161
l4 -148l4 -74l-80 2l-90 -2l3 71l3 126l1 94z" />
    <glyph glyph-name="afii10034" unicode="&#x420;" horiz-adv-x="605" 
d="M171 721l90 1l89 2c82 -1 140 -19 175 -54c15 -14 26 -31 34 -50c11 -27 16 -56 16 -88c-1 -146 -93 -220 -278 -220l-48 1v-51l1 -124l4 -91l3 -49l-81 2l-89 -2l2 45l3 85l4 135l-1 167l-2 129c0 52 -1 92 -3 124l-3 41zM249 381l19 -2c90 1 136 53 136 155
c-1 80 -38 119 -112 120l-36 -2l-4 -58l-3 -80l-1 -88z" />
    <glyph glyph-name="afii10035" unicode="&#x421;" horiz-adv-x="704" 
d="M668 124l-14 -50l-10 -43l-25 -12c-50 -22 -111 -33 -181 -34c-66 0 -127 12 -184 34c-43 17 -81 42 -115 76c-32 31 -54 63 -69 100c-18 45 -26 96 -26 155c0 123 39 218 118 287c77 66 175 99 296 99c63 0 120 -10 172 -29l40 -14l-14 -53l-14 -66h-9
c-14 17 -26 30 -36 41c-37 36 -84 54 -142 54c-76 0 -137 -32 -183 -98c-37 -54 -56 -122 -56 -207c0 -58 9 -112 29 -163c18 -47 46 -83 86 -110c40 -26 83 -38 132 -39c59 0 112 17 160 54l31 25z" />
    <glyph glyph-name="afii10036" unicode="&#x422;" horiz-adv-x="587" 
d="M26 687l-3 42l83 -3c74 -3 136 -5 186 -5c53 0 114 2 186 5l82 3l-2 -42l2 -41l-67 4l-83 4h-42v-243l2 -204l3 -139l4 -70l-85 2l-85 -2l3 70l4 139l1 204l1 198v45h-42l-84 -4l-67 -4z" />
    <glyph glyph-name="afii10037" unicode="&#x423;" horiz-adv-x="718" 
d="M315 112l-277 556l-28 56l100 -3l86 3l23 -56l193 -418l23 50l152 365l21 59l56 -3l54 3l-32 -60l-233 -495l-95 -231l-59 6l-60 -5l85 156z" />
    <glyph glyph-name="afii10038" unicode="&#x424;" horiz-adv-x="952" 
d="M395 81c-186 0 -344 104 -344 292c0 164 114 275 343 275l-1 30l-3 51c26 -3 57 -5 84 -5c28 0 60 2 83 5l-3 -48l-1 -33c270 0 343 -137 343 -275c0 -161 -140 -292 -343 -292c0 -25 2 -90 3 -104c-26 4 -54 5 -82 5c-27 0 -61 -2 -85 -5c2 15 6 79 6 104zM553 598v-461
c110 0 173 116 173 236c0 114 -61 225 -173 225zM395 137v462c-108 0 -174 -111 -174 -226c0 -122 64 -236 174 -236z" />
    <glyph glyph-name="afii10039" unicode="&#x425;" horiz-adv-x="645" 
d="M57 43l71 106l77 118l44 71l-34 62l-102 183l-53 93l-29 48l101 -3l96 3l19 -43l40 -87l40 -76l24 -44l31 45c12 18 26 42 42 71l52 91l22 43l60 -3l62 3l-31 -43l-65 -93l-81 -114l-47 -71l31 -59l68 -124l98 -178l28 -44l-104 2l-93 -2l-18 40c-20 43 -36 79 -51 110
l-35 68l-27 51l-32 -51l-42 -71c-23 -37 -42 -72 -56 -103l-23 -44l-56 2l-61 -2z" />
    <glyph glyph-name="afii10040" unicode="&#x426;" horiz-adv-x="838" 
d="M697 -2l13 1l-62 2l-84 -3h-313l-88 3l-82 -3l4 67c2 37 4 92 5 168v108l-1 162l-4 147l-4 74l80 -2l90 2l-3 -70l-3 -127l-1 -94l-1 -52v-96l1 -43v-92l1 -63l62 -9h205l57 12l1 60l2 92v39l1 1v100l-1 144c0 45 -1 90 -4 132l-4 66l87 -2l83 2l-2 -67l-5 -148
c-1 -43 -1 -99 -2 -168l1 -108l-1 -159h19l92 11l-9 -46l-17 -201h-60c7 97 6 160 -53 160z" />
    <glyph glyph-name="afii10041" unicode="&#x427;" horiz-adv-x="774" 
d="M609 722h50l45 2l-5 -52c0 -19 -2 -49 -3 -227l-1 -252l2 -130l7 -65l-80 2l-91 -2l3 65l4 130l2 123c-44 -25 -121 -45 -187 -45c-89 0 -246 56 -254 244l-10 209l90 -3l80 3l-3 -51l-2 -88c2 -156 51 -240 143 -240c54 0 144 0 145 157l-4 149l-6 73z" />
    <glyph glyph-name="afii10042" unicode="&#x428;" horiz-adv-x="1170" 
d="M674 -2l-84 2l-334 -2l-88 3l-82 -3l4 66c2 37 3 93 4 169v108l-1 161l-3 148l-4 74l80 -2l90 2l-3 -71l-4 -126l-1 -94l-1 -52v-96l1 -43v-92l1 -63l63 -9l171 -1l25 7l2 74l2 207l-1 183c0 55 -1 98 -4 131l-3 45l85 -3l85 3l-3 -45c-2 -23 -3 -68 -3 -133l-3 -184
v-208c1 -28 1 -46 3 -69l23 -7h165l57 12l2 60l2 92v39l1 1v100l-1 144c0 45 -1 89 -5 132l-4 66l88 -2l82 2l-1 -67l-5 -148c-1 -43 -1 -99 -2 -168l1 -108c0 -82 1 -138 3 -169l4 -66l-85 3l-85 -3h-234z" />
    <glyph glyph-name="afii10043" unicode="&#x429;" horiz-adv-x="1206" 
d="M660 -2l-83 2l-335 -2l-88 3l-82 -3l4 67c2 36 3 92 5 168v108l-2 162l-3 147l-4 74l80 -2l90 2l-3 -70l-3 -127l-1 -94l-1 -52v-96l1 -43v-92l1 -63l62 -9l171 -1l25 8l2 73l3 207l-2 183c0 55 -1 98 -4 131l-3 45l86 -3l84 3l-3 -45c-2 -23 -3 -68 -3 -133l-2 -184
v-208c1 -28 1 -46 2 -68l23 -8h166l57 12l1 60l2 92v39l1 1v100l-1 144c0 45 -1 90 -4 132l-5 66l88 -2l82 2l-1 -67l-5 -148c-1 -43 -1 -99 -2 -168l1 -108c0 -75 1 -125 3 -157h19l92 11l-8 -46l-18 -201h-60c5 60 10 124 -23 152c-17 13 -45 6 -83 9l-85 -3h-234z" />
    <glyph glyph-name="afii10044" unicode="&#x42a;" horiz-adv-x="765" 
d="M300 0h-49l-46 -2l6 52c0 19 1 48 1 89l1 137v318l-1 53l-120 -4l-60 -3l2 45l-2 38l63 -4c39 -3 51 -3 117 -3l66 3l97 4l-3 -54l-2 -74l-2 -52v-111h58c117 0 280 -51 280 -201c0 -174 -110 -235 -253 -233l-82 1zM368 361l-2 -69v-72l1 -82l3 -67l39 -4
c89 0 134 68 134 159c0 81 -53 139 -140 138z" />
    <glyph glyph-name="afii10045" unicode="&#x42b;" horiz-adv-x="977" 
d="M718 51l4 107l2 207l-1 183c0 55 -1 98 -5 131l-3 45l86 -3l84 3l-3 -45c-2 -23 -3 -68 -3 -133l-2 -184v-208c1 -43 2 -79 4 -110l4 -46l-83 2l-87 -2zM177 0h-50l-45 -2l5 52c0 19 1 48 1 89l1 137v318l-2 75l-5 54l73 -4l97 4l-3 -54l-2 -74l-3 -52v-111h58
c118 0 280 -51 280 -201c0 -174 -110 -235 -252 -233l-82 1zM244 361l-2 -69v-72l1 -82l4 -67l39 -4c88 0 134 68 134 159c0 81 -53 139 -141 138z" />
    <glyph glyph-name="afii10046" unicode="&#x42c;" horiz-adv-x="642" 
d="M178 0h-50l-45 -2l5 52c0 19 1 48 1 89l1 137v318l-2 75l-5 54l73 -4l97 4l-3 -54l-3 -74l-2 -52v-111h58c118 0 280 -51 280 -201c0 -174 -110 -235 -252 -233l-82 1zM245 361l-2 -69v-72l1 -82l3 -67l40 -4c88 0 134 68 134 159c0 81 -53 139 -141 138z" />
    <glyph glyph-name="afii10047" unicode="&#x42d;" horiz-adv-x="704" 
d="M142 384l-3 50l136 -12l181 1l39 5c0 119 -107 241 -241 241c-46 0 -151 -20 -171 -86h-19c-5 35 -19 73 -33 105c71 33 164 48 234 48c232 0 399 -128 399 -370c0 -221 -165 -381 -397 -381c-58 0 -132 0 -217 45l11 119l17 1c56 -68 92 -95 177 -95
c164 0 240 135 240 284l-38 4l-184 3l-134 -10z" />
    <glyph glyph-name="afii10048" unicode="&#x42e;" horiz-adv-x="1181" 
d="M93 51l3 107l2 207l-1 183c0 55 -1 98 -4 131l-4 45l86 -3l84 3l-3 -45c-2 -23 -3 -68 -3 -133l-2 -146l16 -5h74l6 4c9 95 49 171 115 234c72 68 169 102 289 103c112 0 202 -30 271 -89c35 -30 63 -65 81 -104c23 -51 35 -108 35 -171c0 -117 -38 -210 -115 -282
c-74 -69 -169 -104 -286 -105c-117 0 -210 32 -280 95c-65 59 -103 133 -110 229l-6 6h-74l-16 -6v-155c1 -43 2 -79 4 -110l4 -46l-83 2l-87 -2zM518 347c0 -87 15 -154 45 -199c19 -29 44 -52 73 -69c32 -19 66 -28 103 -27c78 0 137 36 178 106c32 57 49 128 50 212
c0 78 -15 145 -46 201c-15 29 -37 52 -65 70c-31 19 -68 28 -110 28c-78 0 -138 -36 -182 -107c-30 -54 -46 -125 -46 -215z" />
    <glyph glyph-name="afii10049" unicode="&#x42f;" horiz-adv-x="650" 
d="M590 726l-4 -43c-3 -27 -4 -65 -4 -112v-392c1 -57 1 -97 2 -120l6 -59l-83 2l-86 -2l4 58c2 33 3 73 3 120l1 153h-26l-148 -268l-31 -63l-90 2l-103 -2l44 59l170 272c-80 26 -156 83 -156 181c-1 117 74 215 262 215c53 -1 106 -3 159 -4zM429 389v270l-38 3
c-81 0 -155 -42 -155 -127c0 -79 42 -150 158 -150c12 0 24 1 35 4z" />
    <glyph glyph-name="afii10065" unicode="&#x430;" 
d="M75 449c53 45 117 65 188 65c129 0 193 -53 193 -158v-205c0 -59 -5 -104 37 -115l18 -1v-24c-67 -22 -81 -23 -96 -24c-49 -1 -77 27 -91 71c-36 -49 -82 -73 -141 -73c-91 0 -159 54 -159 147c0 88 59 124 157 152l62 16c29 7 76 12 76 60c0 58 -44 85 -109 85
c-34 0 -83 -18 -108 -57h-18l-2 30zM319 274l-59 -17c-56 -19 -84 -57 -84 -115c0 -45 14 -88 61 -88c72 0 82 83 82 147v73z" />
    <glyph glyph-name="afii10066" unicode="&#x431;" horiz-adv-x="587" 
d="M550 263c0 -160 -91 -278 -259 -278c-152 0 -235 88 -235 248v86c0 154 73 287 125 336c53 51 118 91 191 90c27 0 89 -11 118 38l28 -13c-8 -37 -18 -76 -42 -105c-42 -51 -139 -39 -212 -58c-66 -17 -104 -84 -96 -163h14c25 22 68 49 89 57c24 9 48 13 74 13
c132 0 205 -101 205 -251zM193 233c1 -75 4 -196 98 -196c82 0 108 101 108 206c0 97 -14 201 -103 201c-103 0 -101 -133 -103 -211z" />
    <glyph glyph-name="afii10067" unicode="&#x432;" horiz-adv-x="534" 
d="M58 -2c6 87 8 169 8 252c0 92 -6 184 -11 264c26 -3 56 -7 82 -7c66 0 32 7 132 7c134 0 221 -36 221 -126c0 -70 -57 -109 -133 -118c90 -12 151 -56 151 -138c0 -103 -95 -145 -229 -145c-67 0 -103 13 -153 13c-34 0 -46 -1 -68 -2zM206 456c-3 -39 -2 -107 -3 -164
c26 -4 36 -4 64 -4c58 0 72 39 72 91s-29 90 -78 90c-24 0 -29 -2 -55 -13zM202 237c0 -41 0 -101 1 -126l3 -62c23 -10 31 -10 61 -10c57 0 90 34 90 98c0 70 -31 106 -93 106c-17 0 -39 0 -62 -6z" />
    <glyph glyph-name="afii10068" unicode="&#x433;" horiz-adv-x="381" 
d="M17 -3l4 47l2 92l3 110l-1 106l-4 94l-9 61l81 -5h112c39 0 101 3 154 9l-2 -34l2 -38l-130 6l-63 1c-1 -21 -2 -52 -3 -92l-1 -108l2 -110l2 -92l4 -47l-77 3z" />
    <glyph glyph-name="afii10069" unicode="&#x434;" horiz-adv-x="649" 
d="M272 503l54 -2l74 2l20 -59l42 -128l47 -131l51 -131l33 2l39 8l-16 -235h-53c12 89 9 169 -55 169h-369c-64 0 -68 -80 -57 -169h-54l-11 235l39 -8l35 -2l8 11l113 266l39 111zM180 65l-3 -11h226l-46 146l-35 104l-25 65l-25 -63l-44 -120z" />
    <glyph glyph-name="afii10070" unicode="&#x435;" 
d="M425 9c-13 -6 -29 -10 -46 -14c-27 -7 -53 -10 -81 -10c-124 0 -203 48 -240 145c-15 38 -22 79 -22 122c0 45 7 85 21 122c10 28 28 53 53 78c43 41 99 62 169 62s124 -20 164 -62c39 -41 59 -96 60 -165l-2 -51l-29 3l-57 3l-55 3h-173l3 -34c4 -45 19 -81 43 -109
c28 -30 63 -45 107 -45c34 0 66 7 101 23l31 15l12 -9l-13 -31l-16 -32zM351 301v28c-2 90 -27 136 -77 137c-37 0 -62 -25 -76 -73c-5 -19 -8 -39 -9 -60l-1 -32h163z" />
    <glyph glyph-name="afii10072" unicode="&#x436;" horiz-adv-x="791" 
d="M326 506l76 -3l64 2l-4 -50c-2 -21 -5 -54 -5 -97v-76l10 -1c8 2 23 14 47 40l59 64c18 19 38 45 62 80l24 37l59 -3l63 3l-44 -41l-85 -87l-65 -64l33 -53l76 -118l65 -102l28 -39l-85 2l-90 -2l-21 40l-60 101c-27 46 -46 75 -59 86l-17 9v-37l1 -81l4 -76l2 -42l-53 3
l-85 -2l4 43l3 77l1 84v31l-17 -9c-13 -11 -32 -40 -59 -86l-60 -101l-20 -40l-91 2l-85 -2l28 39l65 102l76 118l33 53l-64 64l-86 87l-44 41l63 -3l59 3l24 -37c24 -35 44 -61 62 -80l59 -64c24 -26 39 -38 47 -40l10 1v75l-3 97z" />
    <glyph glyph-name="afii10073" unicode="&#x437;" horiz-adv-x="489" 
d="M53 119h21l19 -27c27 -39 64 -53 110 -53c57 0 105 34 105 98c0 70 -43 101 -109 101c-26 0 -26 -1 -56 -6l4 33l-4 33c29 -7 56 -7 57 -7c59 0 85 40 85 92s-41 76 -90 76c-38 0 -72 -8 -100 -60h-20c0 22 -1 45 -3 73c63 32 97 42 144 42c125 0 220 -40 220 -130
c0 -71 -51 -108 -127 -116c90 -12 150 -49 150 -131c0 -102 -113 -152 -247 -152c-47 0 -112 7 -174 47l8 43z" />
    <glyph glyph-name="afii10074" unicode="&#x438;" horiz-adv-x="613" 
d="M396 39c2 24 3 51 4 79v190l-164 -189l-94 -120l-38 2l-38 -2l5 41c2 22 3 48 4 79v213l-3 77c-1 24 -1 45 -2 57l-4 37l74 -2l79 2l-3 -39c-1 -10 -4 -79 -5 -101v-169l170 193l80 115l41 -2l43 2l-6 -76l-2 -87l-1 -116v-104c0 -35 1 -61 3 -81l6 -40l-78 3l-75 -3z
" />
    <glyph glyph-name="afii10075" unicode="&#x439;" horiz-adv-x="613" 
d="M396 39c2 24 3 51 4 79v190l-164 -189l-94 -120l-38 2l-38 -2l5 41c2 22 3 49 4 79v213l-3 78c-1 23 -1 44 -2 57l-4 37l74 -3l79 3l-3 -40c-1 -10 -4 -79 -5 -101v-169l170 193l80 115l41 -2l43 2l-6 -76l-2 -87l-1 -116v-104c0 -35 1 -61 3 -81l6 -40l-78 3l-75 -3z
M473 724l3 -42c2 -14 5 -32 12 -58l-30 -12c-35 -8 -88 -19 -139 -19c-54 0 -98 7 -133 18l-30 12c5 26 9 44 12 58l5 43h16c10 -30 20 -42 36 -56c19 -18 57 -25 93 -25s82 8 101 26c15 14 29 25 40 55h14z" />
    <glyph glyph-name="afii10076" unicode="&#x43a;" 
d="M49 -2l4 43l3 77l1 84v154l-3 97l-5 52l76 -3l78 3l-5 -50c-1 -21 -4 -54 -4 -97v-76l10 -1c8 2 23 14 47 40l59 64c18 19 38 45 61 80l25 37l59 -3l63 3l-44 -41l-86 -86l-64 -65l33 -53l76 -118l65 -102l28 -39l-85 2l-91 -2l-20 40l-60 101c-27 47 -46 75 -59 86
l-17 9v-37l1 -81l3 -76l2 -42l-66 2z" />
    <glyph glyph-name="afii10077" unicode="&#x43b;" 
d="M423 0l-79 -2l-18 63l-40 133l-35 108l-18 53l-19 -49l-40 -107l-46 -143l-16 -58l-48 2l-44 -2l35 81l44 108l57 149l38 109l20 57l59 -2l56 2l19 -59l44 -128l43 -121l39 -103l39 -93z" />
    <glyph glyph-name="afii10078" unicode="&#x43c;" horiz-adv-x="788" 
d="M54 -2l12 46l68 383l10 75l62 -3l43 3l16 -45l31 -76l65 -136l26 -57l17 -35l31 75l81 176l46 98l62 -4l43 4l4 -50l12 -75l20 -126l40 -207l13 -46l-78 2l-76 -2l-5 55l-19 132l-16 91l-8 48l-31 -57l-89 -217l-17 -52l-38 3l-58 -3l-5 9l-52 119l-88 201l-33 -275
l-6 -54l-42 2z" />
    <glyph glyph-name="afii10079" unicode="&#x43d;" horiz-adv-x="593" 
d="M388 44l2 92l2 96l-59 4h-82l-51 -4l2 -96l2 -92l4 -46l-77 2l-76 -2l5 46l2 92l2 110l-1 106l-3 98l-5 52l76 -3l77 3l-4 -50c-1 -21 -2 -54 -3 -97l-1 -55l52 -6h80l61 5l-2 53l-3 98l-4 52l76 -3l77 3l-5 -50c-1 -21 -2 -54 -3 -97l-1 -109l2 -110l2 -92l5 -46l-77 2
l-76 -2z" />
    <glyph glyph-name="afii10080" unicode="&#x43e;" horiz-adv-x="587" 
d="M45 326c15 59 45 106 92 139c44 33 98 49 162 49c78 0 141 -23 188 -69c44 -43 68 -105 69 -186c0 -139 -59 -225 -177 -261c-27 -9 -57 -13 -88 -13c-77 0 -139 21 -186 66c-46 43 -70 104 -71 184c0 30 3 60 11 91zM185 242c1 -140 36 -209 108 -209
c74 0 110 76 111 229c0 135 -34 203 -102 204c-78 -1 -117 -76 -117 -224z" />
    <glyph glyph-name="afii10081" unicode="&#x43f;" horiz-adv-x="594" 
d="M134 496l72 -2h186l89 3l58 5l-4 -51l-5 -89v-231c0 -40 1 -70 3 -90l6 -43l-78 2l-75 -2l2 49l5 92l1 88l-2 81l-7 130h-172l-8 -132l-3 -86v-79c0 -39 1 -72 3 -98l5 -45l-72 2l-81 -2l6 50l2 96l1 93l-1 125l-3 85l-6 55z" />
    <glyph glyph-name="afii10082" unicode="&#x440;" horiz-adv-x="587" 
d="M122 500l74 3l-7 -34l-2 -34l14 20c14 18 31 31 52 41c25 12 53 18 83 18c70 0 124 -28 163 -84c31 -47 47 -107 48 -182c0 -75 -17 -136 -48 -181c-38 -54 -93 -82 -164 -82c-24 0 -45 4 -65 11c-25 6 -44 18 -60 35l-23 23l1 -61l1 -91l5 -86l2 -35l-71 3l-80 -3l4 36
c2 26 3 52 4 81v393l-2 95l-3 80l-3 37zM190 246l3 -50c2 -25 6 -48 14 -70c16 -48 45 -71 87 -71c55 0 86 39 97 118c3 25 4 50 5 77c0 21 -1 38 -3 55c-11 93 -44 140 -100 140c-37 0 -66 -24 -84 -70c-9 -24 -14 -50 -18 -77c-1 -12 -1 -29 -1 -52z" />
    <glyph glyph-name="afii10083" unicode="&#x441;" 
d="M431 368c-3 14 -6 26 -11 35c-5 13 -12 23 -24 33c-9 9 -22 16 -35 20c-12 4 -25 6 -40 6c-48 0 -84 -23 -110 -70c-19 -36 -28 -81 -28 -133c0 -62 11 -109 36 -144c29 -44 71 -67 126 -67c32 0 61 9 88 26l25 19l17 -8l-12 -28l-10 -28l-25 -15
c-33 -19 -73 -29 -120 -29c-80 0 -145 22 -195 69c-53 47 -78 109 -78 189c0 38 6 73 18 107c13 34 31 63 56 88c23 23 53 42 89 55c36 14 75 21 116 21c59 0 108 -12 152 -35l25 -17l-18 -41l-18 -53h-24z" />
    <glyph glyph-name="afii10084" unicode="&#x442;" horiz-adv-x="491" 
d="M168 -2l4 46l2 92l2 110l-1 106l-3 86l-64 -1l-96 -6l2 38l-2 33c53 -5 70 -8 110 -8h234c39 0 67 3 120 8l-2 -33l2 -38l-96 6l-63 1c-1 -21 -2 -43 -3 -83l-1 -109l2 -110l2 -92l4 -46l-77 2z" />
    <glyph glyph-name="afii10085" unicode="&#x443;" 
d="M106 500l80 3l19 -62l37 -105l42 -112l19 -47l19 46l42 110c18 48 31 84 38 109l18 61l40 -3l49 3l-25 -62l-73 -170l-72 -174l-62 -155l-42 -102l-19 -57l-47 2l-50 -2l35 59c13 23 28 55 48 97l28 61l-41 97l-71 171l-70 171l-27 64z" />
    <glyph glyph-name="afii10086" unicode="&#x444;" horiz-adv-x="930" 
d="M333 496c20 -10 44 -24 68 -52l-4 30l-5 180l-3 91l-1 39l76 -3l77 3l-2 -40l-3 -93l-7 -182l-2 -24c28 29 47 41 68 51c25 12 53 18 83 18c70 0 124 -28 163 -84c32 -47 47 -107 48 -182c0 -75 -16 -136 -48 -181c-38 -54 -93 -82 -164 -82c-24 0 -45 4 -65 11
c-24 6 -58 28 -83 54l2 -54l1 -97c1 -29 2 -57 4 -84l2 -34l-77 3l-71 -3l2 34l4 87l1 91l2 57c-25 -26 -59 -48 -83 -54c-20 -7 -41 -11 -65 -11c-71 0 -126 28 -164 82c-32 45 -48 106 -48 181c1 75 16 135 48 182c39 56 93 84 163 84c30 0 58 -6 83 -18zM525 249l8 -125
c21 -40 61 -69 103 -69c82 0 101 92 101 195c0 114 -39 195 -102 195c-37 0 -84 -28 -102 -74zM403 249l-8 122c-18 46 -65 74 -102 74c-63 0 -103 -86 -103 -195c0 -103 20 -195 102 -195c42 0 82 29 103 69z" />
    <glyph glyph-name="afii10087" unicode="&#x445;" 
d="M61 39l100 138l37 54l-29 51l-54 87l-56 88l-28 45l93 -3l84 3l20 -41l39 -72l29 -50l36 51c19 26 34 50 47 72l23 40l42 -3l51 3l-28 -39l-102 -130l-35 -46l29 -49l62 -104l61 -100l24 -36l-84 2l-94 -2l-20 38l-49 93l-26 47l-33 -48c-23 -36 -41 -65 -54 -88l-25 -42
l-40 2l-52 -2z" />
    <glyph glyph-name="afii10088" unicode="&#x446;" horiz-adv-x="647" 
d="M133 -4l-78 -6l5 55l3 85l2 125l-2 101l-2 96l-5 51l80 -2l73 2l-5 -46c-2 -26 -3 -59 -3 -98v-87l3 -86l7 -132h167l7 130l3 90l-1 87l-6 92l-2 50l75 -2l78 2l-5 -44c-2 -20 -3 -49 -3 -89v-240l2 -44l25 -32l33 2l39 8l-16 -235h-54c13 89 10 169 -55 169h-293z" />
    <glyph glyph-name="afii10089" unicode="&#x447;" horiz-adv-x="587" 
d="M390 426l-6 76l72 -3l77 3l-5 -78l-1 -96v-187c1 -58 3 -48 4 -79l5 -65l-84 3l-72 -3l6 65c1 30 1 20 2 78l2 84c-32 -20 -80 -38 -144 -38c-112 0 -177 65 -177 198l-7 117l78 -4l78 5l-6 -90c0 -71 19 -138 91 -138c31 0 72 5 87 29v123z" />
    <glyph glyph-name="afii10090" unicode="&#x448;" horiz-adv-x="893" 
d="M210 63h165l3 76v115l-1 102l-2 96l-5 50l80 -2l73 2l-5 -45c-2 -26 -3 -59 -3 -98v-88l4 -76l7 -132l157 -1l7 121l2 90l-1 88l-5 92l-2 49l75 -2l78 2l-6 -43c-2 -20 -3 -50 -3 -90v-231l4 -89l5 -51l-65 2h-639l-79 -2l8 58l3 85l1 112l-1 102l-2 96l-5 50l80 -2l73 2
l-6 -45c-2 -27 -3 -59 -3 -98v-88l3 -73l8 -132z" />
    <glyph glyph-name="afii10091" unicode="&#x449;" horiz-adv-x="954" 
d="M210 64h166l3 76v115l-1 101l-2 96l-5 51l80 -2l73 2l-6 -46c-2 -26 -3 -59 -3 -98v-221l7 -78l161 2l7 122l3 90l-1 87l-6 92l-2 50l75 -2l78 2l-5 -44c-2 -20 -3 -49 -3 -89v-232l2 -45l27 -37l33 2l39 8l-16 -235h-54c12 84 10 160 -44 168l-43 1h-640l-78 -2l7 58
l4 86l1 112l-1 101l-3 96l-5 51l80 -2l73 2l-5 -46c-2 -26 -3 -59 -3 -98v-88l3 -72l7 -132z" />
    <glyph glyph-name="afii10092" unicode="&#x44a;" horiz-adv-x="609" 
d="M125 498h79c33 0 56 2 81 5l-5 -57c-3 -40 -1 -73 -3 -130c28 3 55 3 78 3c171 -2 225 -75 225 -161c0 -137 -136 -173 -256 -173l-124 15c-34 0 -46 -1 -68 -2c5 88 7 169 7 252c0 68 -1 130 -4 190h-56l-57 -5l2 37l-2 35l60 -6zM280 51c18 -8 31 -11 41 -11
c60 0 108 56 108 120c0 70 -45 113 -110 113l-42 -3c0 -41 -1 -98 0 -123z" />
    <glyph glyph-name="afii10093" unicode="&#x44b;" horiz-adv-x="762" 
d="M119 0c-34 0 -45 -1 -67 -2c5 88 7 169 7 252c0 92 -2 172 -7 253c26 -4 45 -5 71 -5c33 0 56 2 82 5l-6 -57c-3 -39 -1 -73 -3 -130c29 3 55 3 78 3c171 -2 225 -75 225 -161c0 -137 -136 -173 -255 -173zM199 51c18 -8 31 -11 42 -11c60 0 107 56 107 121
c0 69 -44 113 -109 113l-43 -4c0 -41 -1 -98 0 -123zM559 48l3 91l2 110l-1 107l-4 97l-4 53l76 -3l77 3l-4 -51c-1 -21 -2 -54 -3 -97l-1 -109l2 -110l2 -91l4 -47l-77 2l-76 -2z" />
    <glyph glyph-name="afii10094" unicode="&#x44c;" horiz-adv-x="499" 
d="M90 0c-34 0 -46 -1 -68 -2c5 88 8 169 8 252c0 92 -3 172 -8 253c27 -4 46 -5 72 -5c33 0 56 3 81 5l-5 -57c-3 -39 -1 -73 -3 -130c28 3 55 3 78 3c171 -2 225 -75 225 -161c0 -137 -136 -173 -256 -173zM170 51c18 -8 38 -11 49 -11c60 0 100 56 100 121
c0 69 -44 113 -110 113l-42 -4c0 -41 -1 -98 0 -123z" />
    <glyph glyph-name="afii10095" unicode="&#x44d;" 
d="M225 238l-39 -2l-59 -5l2 37l-2 35l59 -5l43 -4h116c0 88 -58 160 -141 160c-32 0 -95 -7 -123 -60h-20l-1 38l-2 34c57 32 107 48 165 48c148 0 270 -111 270 -259c0 -149 -98 -271 -279 -271c-59 0 -108 12 -152 35l-25 17l18 41l18 53h24c8 -57 53 -94 110 -94
c94 0 138 100 138 202h-120z" />
    <glyph glyph-name="afii10096" unicode="&#x44e;" horiz-adv-x="811" 
d="M25 44l2 92l2 110l-1 106l-3 98l-4 52l76 -3l77 3l-4 -50c-1 -21 -2 -54 -3 -97l-1 -65h95c2 12 4 24 7 36c15 59 45 106 92 139c44 33 98 49 162 49c79 0 141 -23 188 -69c45 -43 68 -105 69 -186c0 -139 -59 -225 -176 -261c-28 -9 -57 -13 -89 -13
c-77 0 -138 21 -186 66c-44 41 -67 99 -71 175h-91l2 -90l2 -92l4 -46l-77 2l-76 -2zM408 242c2 -140 36 -209 108 -209c74 0 110 76 111 229c0 135 -34 203 -101 204c-78 -1 -118 -76 -118 -224z" />
    <glyph glyph-name="afii10097" unicode="&#x44f;" horiz-adv-x="567" 
d="M518 -3l-85 3l-66 -3l2 43l3 59l1 81l-2 35h-10l-25 -33l-97 -136l-36 -49l-81 3l-92 -3l177 226c-72 13 -129 58 -129 144c0 100 72 147 179 147c84 0 99 -8 185 -12l76 3l-4 -53l-4 -97v-153l2 -84l3 -77zM371 441v7c-26 12 -24 14 -61 14c-50 0 -81 -42 -81 -99
c0 -56 41 -98 79 -100c33 -1 44 4 63 9l2 99z" />
    <glyph glyph-name="nbspace" horiz-adv-x="292" 
 />
    </font>
</defs>
</svg>
