<?xml version="1.0" standalone="no"?>
<!DOCTYPE svg PUBLIC "-//W3C//DTD SVG 1.1//EN" "http://www.w3.org/Graphics/SVG/1.1/DTD/svg11.dtd" >
<svg xmlns="http://www.w3.org/2000/svg" xmlns:xlink="http://www.w3.org/1999/xlink" version="1.1">
<metadata>
Created by FontForge 20201107 at Wed Aug 16 18:52:45 2006
 By Jimmy Wärting
Copyright   1996 TypeMarket Ltd. 119136, Russia, Moscow, Box 20; phone:(095)1427712; Created by S.Shanovich
</metadata>
<defs>
<font id="OpiumNew-Regular" horiz-adv-x="587" >
  <font-face 
    font-family="OpiumNew"
    font-weight="400"
    font-stretch="normal"
    units-per-em="1000"
    panose-1="2 0 5 3 6 0 0 2 0 3"
    ascent="800"
    descent="-200"
    x-height="503"
    cap-height="724"
    bbox="-64 -259 1207 983"
    underline-thickness="51"
    underline-position="-199"
    stemh="45"
    stemv="80"
    unicode-range="U+0020-2122"
  />
<missing-glyph horiz-adv-x="500" 
 />
    <glyph glyph-name=".notdef" horiz-adv-x="500" 
 />
    <glyph glyph-name="space" unicode=" " horiz-adv-x="292" 
 />
    <glyph glyph-name="space" unicode="&#xa0;" horiz-adv-x="292" 
 />
    <glyph glyph-name="exclam" unicode="!" horiz-adv-x="294" 
d="M150 108c33 0 61 -28 61 -63c0 -34 -30 -59 -61 -59c-36 0 -61 28 -61 61s26 61 61 61zM164 163h-28c-13 159 -40 456 -40 479c0 53 17 79 54 79s54 -29 54 -79c0 -23 -27 -320 -40 -479z" />
    <glyph glyph-name="quotedbl" unicode="&#x22;" horiz-adv-x="429" 
d="M147 459h-37c-9 74 -25 190 -25 219c0 40 15 58 44 58c30 0 46 -18 46 -58c0 -29 -16 -145 -28 -219zM323 459h-37c-9 74 -25 190 -25 219c0 40 15 58 44 58c30 0 46 -18 46 -58c0 -29 -16 -145 -28 -219z" />
    <glyph glyph-name="numbersign" unicode="#" 
d="M224 721c10 -2 29 -3 34 -3c9 0 25 2 37 3c-9 -34 -34 -156 -48 -235h126c14 89 29 214 29 235l37 -3l35 3c-15 -41 -35 -155 -47 -235c63 0 105 2 131 8c-2 -13 -3 -26 -3 -36c0 -6 1 -19 3 -28c-41 4 -108 9 -139 9l-26 -161c33 0 97 4 131 10c-1 -13 -2 -27 -2 -34
c0 -5 1 -23 2 -32c-38 7 -78 9 -98 9h-40c-22 -118 -30 -185 -30 -246c-12 2 -23 3 -33 3c-9 0 -25 -1 -39 -3c17 75 44 215 47 246h-130c-9 -55 -25 -164 -31 -246c-12 2 -24 3 -36 3c-8 0 -23 -1 -34 -3c11 39 39 174 51 246c-33 0 -92 -5 -125 -9c1 9 2 25 2 33
c0 7 -1 22 -2 33c37 -5 109 -10 132 -10c10 51 22 116 27 161c-52 0 -96 -3 -127 -9c1 9 2 21 2 31c0 11 -1 25 -2 33c47 -5 105 -8 135 -8c23 132 31 206 31 235zM236 439c-9 -39 -22 -118 -27 -161h132l25 161h-130z" />
    <glyph glyph-name="dollar" unicode="$" 
d="M251 785c10 -2 24 -3 35 -3c10 0 20 1 30 3c-5 -19 -8 -51 -8 -74c68 -5 114 -18 173 -56c-17 -24 -36 -60 -41 -91c-35 61 -76 96 -132 100v-251l49 -20c99 -40 156 -88 156 -184c0 -112 -91 -204 -205 -219c0 -37 2 -73 8 -105c-10 2 -24 3 -30 3c-10 0 -25 -1 -35 -3
c4 32 8 68 8 102c-79 0 -139 29 -177 64c12 30 21 59 26 91c35 -73 81 -105 151 -110v299c-146 50 -180 106 -180 182c0 105 67 176 180 194c0 21 -3 55 -8 78zM308 317v-283c73 15 123 71 123 143c0 54 -33 102 -85 124zM259 426v235c-64 -9 -98 -56 -98 -120
c0 -62 25 -78 98 -115z" />
    <glyph glyph-name="percent" unicode="%" horiz-adv-x="939" 
d="M565 721c7 -2 18 -3 23 -3c7 0 18 1 27 3c-82 -246 -162 -493 -240 -740c-11 3 -18 4 -23 4s-18 -1 -27 -4c83 246 161 493 240 740zM688 330c91 0 149 -76 149 -170c0 -88 -49 -167 -149 -167c-99 0 -154 73 -154 167c0 96 61 170 154 170zM686 296
c-54 0 -82 -44 -82 -124c0 -77 18 -145 82 -145c54 0 81 45 81 138c0 88 -27 131 -81 131zM258 711c91 0 149 -76 149 -170c0 -88 -49 -167 -149 -167c-99 0 -154 73 -154 167c0 96 61 170 154 170zM256 677c-54 0 -82 -44 -82 -124c0 -77 18 -145 82 -145
c54 0 81 45 81 138c0 88 -27 131 -81 131z" />
    <glyph glyph-name="ampersand" unicode="&#x26;" horiz-adv-x="762" 
d="M355 402c50 -66 123 -159 182 -223c36 49 100 169 119 205c8 -11 15 -19 42 -42c-31 -55 -106 -159 -136 -191c17 -24 95 -108 137 -154c-19 2 -44 3 -64 3c-19 0 -47 -1 -64 -3c-14 22 -47 68 -65 90c-75 -74 -137 -102 -224 -102c-122 0 -194 75 -194 179
c0 83 49 160 180 227c-45 65 -66 117 -66 164c0 89 65 152 159 152c78 0 134 -44 134 -114c0 -57 -33 -120 -140 -191zM481 114c-51 61 -159 200 -188 243c-85 -44 -115 -106 -115 -163c0 -83 56 -154 146 -154c50 0 103 25 157 74zM332 433c60 44 93 91 93 149
c0 44 -30 80 -74 80c-45 0 -79 -42 -79 -85c0 -30 11 -76 60 -144z" />
    <glyph glyph-name="quotesingle" unicode="'" horiz-adv-x="294" 
d="M168 459h-37c-9 74 -25 190 -25 219c0 40 15 58 44 58c30 0 46 -18 46 -58c0 -29 -16 -145 -28 -219z" />
    <glyph glyph-name="parenleft" unicode="(" horiz-adv-x="293" 
d="M241 736l26 -23c-95 -124 -116 -249 -116 -410c0 -142 21 -270 116 -401l-27 -29c-117 124 -163 273 -163 432c0 155 43 301 164 431z" />
    <glyph glyph-name="parenright" unicode=")" horiz-adv-x="293" 
d="M26 713l26 23c121 -130 164 -276 164 -431c0 -159 -46 -308 -163 -432l-27 29c95 131 116 259 116 401c0 161 -21 286 -116 410z" />
    <glyph glyph-name="asterisk" unicode="*" horiz-adv-x="586" 
d="M110 605c18 16 30 36 35 62l17 -15c18 -16 37 -31 57 -44l41 -30l15 -10l-1 23l-2 55c-2 16 -5 35 -10 59l-4 20l36 -3l36 3l-4 -20c-5 -20 -8 -39 -10 -59l-2 -55l-1 -23l16 10l41 30c16 10 35 26 56 44l17 15c4 -25 16 -46 35 -62l-21 -8c-38 -12 -74 -29 -106 -49
l-21 -14l21 -15c24 -15 59 -31 106 -49l21 -7c-19 -18 -31 -38 -35 -63l-17 16c-17 13 -35 28 -56 44l-41 29l-16 10l1 -22l2 -56c2 -20 4 -39 10 -58l4 -20l-36 2l-36 -2l4 20c5 22 8 41 10 58l2 56l1 22l-15 -10l-41 -29c-23 -17 -42 -32 -57 -44l-17 -16
c-4 24 -16 45 -35 63l22 7c38 13 73 30 106 49l21 15l-21 14c-37 22 -72 38 -106 49z" />
    <glyph glyph-name="plus" unicode="+" horiz-adv-x="939" 
d="M441 292v244h54v-244h246v-56h-246v-246h-54v246h-246v56h246z" />
    <glyph glyph-name="comma" unicode="," horiz-adv-x="294" 
d="M69 -198l-22 13l73 238c12 38 31 55 54 55c27 0 40 -13 40 -40c0 -15 -9 -39 -28 -72z" />
    <glyph glyph-name="hyphenminus" horiz-adv-x="364" 
d="M18 292h332v-56h-332v56z" />
    <glyph glyph-name="period" unicode="." horiz-adv-x="294" 
d="M149 108c33 0 61 -28 61 -63c0 -34 -30 -59 -61 -59c-36 0 -61 28 -61 61s26 61 61 61z" />
    <glyph glyph-name="slash" unicode="/" horiz-adv-x="294" 
d="M248 783c15 -2 35 -3 42 -3s26 2 39 3c-47 -109 -250 -671 -275 -800c-17 2 -31 3 -41 3c-11 0 -30 -1 -42 -3c36 69 250 675 277 800z" />
    <glyph glyph-name="zero" unicode="0" 
d="M297 709c178 0 248 -159 248 -357c0 -206 -68 -367 -258 -367c-170 0 -241 152 -241 348c0 170 48 376 251 376zM293 664c-136 0 -150 -187 -150 -344c0 -119 14 -290 151 -290c140 0 153 190 153 320c0 211 -52 314 -154 314z" />
    <glyph glyph-name="one" unicode="1" 
d="M156 547c-11 17 -31 39 -42 48c42 13 186 76 255 114c-7 -55 -8 -211 -8 -324c0 -126 2 -278 8 -388c-16 2 -34 3 -50 3c-18 0 -35 -1 -51 -3c6 110 8 262 8 388c0 113 -1 206 -2 230z" />
    <glyph glyph-name="two" unicode="2" 
d="M140 541l-42 67c32 56 107 101 190 101c121 0 204 -68 204 -182c0 -111 -59 -180 -169 -296l-152 -161c145 0 260 2 330 10c-2 -16 -3 -41 -3 -46c0 -8 1 -29 3 -43c-37 6 -117 9 -164 9h-112c-52 0 -132 -4 -176 -9l-7 12l233 247c100 106 120 190 120 268
c0 97 -42 146 -121 146c-64 0 -109 -34 -134 -123z" />
    <glyph glyph-name="three" unicode="3" 
d="M129 579c-5 21 -17 49 -27 67c61 48 117 63 176 63c103 0 182 -64 182 -162c0 -72 -32 -141 -115 -171c116 -23 151 -89 151 -172c0 -145 -125 -219 -264 -219c-49 0 -101 5 -160 38c5 24 8 43 11 83c63 -68 97 -82 149 -82c103 0 162 68 162 176c0 93 -50 145 -134 145
c-14 0 -36 -2 -59 -9c1 8 2 23 2 29c0 5 -1 20 -2 28c22 -7 39 -9 47 -9c78 0 115 70 115 154c0 76 -37 132 -106 132c-45 0 -84 -24 -128 -91z" />
    <glyph glyph-name="four" unicode="4" 
d="M454 697v-2c-6 -48 -9 -142 -9 -233v-197c38 0 61 3 95 10c-1 -15 -2 -31 -2 -46c0 -7 1 -31 2 -42c-19 6 -47 8 -69 8h-26c0 -68 2 -132 9 -198c-16 1 -32 3 -48 3c-20 0 -36 -2 -54 -3c5 66 7 155 7 198h-149c-55 0 -136 -4 -188 -8l-7 7c76 96 299 412 346 503
c15 -2 35 -3 49 -3s30 1 44 3zM128 268c21 -1 77 -3 104 -3h82c12 0 34 1 46 2c2 65 3 183 3 202v144c-71 -98 -182 -256 -235 -345z" />
    <glyph glyph-name="five" unicode="5" 
d="M483 703c-1 -14 -3 -38 -3 -44c0 -9 2 -30 3 -45c-78 7 -190 10 -289 10c-4 -52 -8 -141 -8 -209c59 19 87 23 113 23c128 0 206 -89 206 -203c0 -144 -104 -250 -267 -250c-62 0 -114 14 -166 44c7 18 18 52 23 77c61 -66 102 -76 144 -76c97 0 166 83 166 189
c0 97 -47 174 -141 174c-40 0 -78 -18 -116 -52l-10 6c5 56 9 155 9 182c0 47 -4 123 -9 174c28 -4 79 -9 93 -9h144c23 0 75 4 108 9z" />
    <glyph glyph-name="six" unicode="6" 
d="M162 328c35 63 93 97 171 97c120 0 203 -77 203 -203c0 -137 -84 -237 -232 -237c-158 0 -239 113 -239 302c0 223 110 422 316 422c9 0 30 -1 49 -4c4 -13 13 -38 18 -51c-25 6 -51 8 -66 8c-133 0 -202 -142 -220 -334zM310 380c-93 0 -141 -93 -141 -180
c0 -95 47 -170 136 -170c92 0 134 88 134 184c0 85 -38 166 -129 166z" />
    <glyph glyph-name="seven" unicode="7" 
d="M555 697l7 -12l-210 -374c-112 -200 -142 -259 -158 -314c-15 2 -30 3 -45 3c-22 0 -43 -1 -59 -3c102 145 286 465 371 615h-160c-81 0 -161 -3 -192 -9c1 13 2 38 2 48c0 14 -1 38 -2 52c47 -6 134 -9 201 -9h140c39 0 88 2 105 3z" />
    <glyph glyph-name="eight" unicode="8" 
d="M202 395c-65 12 -115 74 -115 146c0 102 86 168 202 168c107 0 202 -62 202 -168c0 -68 -28 -124 -115 -146c99 -24 149 -113 149 -203c0 -148 -118 -207 -236 -207c-117 0 -236 59 -236 206c0 80 34 174 149 204zM289 371c-90 0 -139 -83 -139 -181
c0 -96 50 -160 139 -160c91 0 139 69 139 159s-46 182 -139 182zM289 664c-68 0 -110 -66 -110 -130c0 -69 40 -118 110 -118c69 0 110 48 110 117c0 70 -46 131 -110 131z" />
    <glyph glyph-name="nine" unicode="9" horiz-adv-x="586" 
d="M429 368c-43 -68 -94 -96 -167 -96c-122 0 -202 92 -202 207c0 139 94 230 232 230c163 0 234 -129 234 -302c0 -246 -142 -422 -309 -422c-29 0 -51 3 -84 17c-4 20 -14 48 -24 71c48 -30 85 -43 114 -43c139 0 206 199 206 338zM291 664c-90 0 -134 -79 -134 -178
c0 -104 46 -169 131 -169c95 0 134 100 134 177c0 79 -37 170 -131 170z" />
    <glyph glyph-name="colon" unicode=":" horiz-adv-x="294" 
d="M147 108c33 0 61 -28 61 -63c0 -34 -30 -59 -61 -59c-36 0 -61 28 -61 61s26 61 61 61zM147 469c33 0 61 -28 61 -63c0 -34 -30 -59 -61 -59c-36 0 -61 28 -61 61s26 61 61 61z" />
    <glyph glyph-name="semicolon" unicode=";" horiz-adv-x="294" 
d="M63 -198l-22 13l73 238c12 38 31 55 54 55c27 0 40 -13 40 -40c0 -15 -9 -39 -28 -72zM147 469c33 0 61 -28 61 -63c0 -34 -30 -59 -61 -59c-36 0 -61 28 -61 61s26 61 61 61z" />
    <glyph glyph-name="semicolon" unicode="&#x37e;" horiz-adv-x="294" 
d="M63 -198l-22 13l73 238c12 38 31 55 54 55c27 0 40 -13 40 -40c0 -15 -9 -39 -28 -72zM147 469c33 0 61 -28 61 -63c0 -34 -30 -59 -61 -59c-36 0 -61 28 -61 61s26 61 61 61z" />
    <glyph glyph-name="less" unicode="&#x3c;" horiz-adv-x="1056" 
d="M829 620c0 -27 4 -45 21 -62c-108 -41 -376 -164 -541 -242c115 -56 426 -199 541 -242c-16 -16 -21 -34 -21 -62c-159 78 -495 231 -617 279c3 7 5 19 5 30c0 8 -1 15 -4 20c180 73 551 244 616 279z" />
    <glyph glyph-name="equal" unicode="=" horiz-adv-x="926" 
d="M736 225v-55h-546v55h546zM736 357v-56h-546v56h546z" />
    <glyph glyph-name="greater" unicode="&#x3e;" horiz-adv-x="1056" 
d="M227 620c65 -35 436 -206 616 -279c-3 -5 -4 -12 -4 -20c0 -11 2 -23 5 -30c-122 -48 -458 -201 -617 -279c0 28 -5 46 -21 62c115 43 426 186 541 242c-165 78 -433 201 -541 242c17 17 21 35 21 62z" />
    <glyph glyph-name="question" unicode="?" horiz-adv-x="411" 
d="M208 108c33 0 61 -28 61 -63c0 -34 -30 -59 -61 -59c-36 0 -61 28 -61 61s26 61 61 61zM94 688c41 22 78 33 111 33c92 0 151 -57 151 -145c0 -56 -22 -96 -93 -181c-67 -80 -80 -107 -80 -127c0 -36 20 -55 59 -58c7 0 21 4 38 14l-21 -56h-23c-74 0 -126 46 -126 123
c0 44 15 91 90 168c63 65 83 100 83 135c0 48 -39 85 -88 85c-29 0 -60 -17 -92 -48z" />
    <glyph glyph-name="at" unicode="@" horiz-adv-x="704" 
d="M651 128l7 -12l-9 -62c-83 -46 -156 -59 -235 -59c-232 0 -371 144 -371 368c0 248 194 358 383 358c118 0 218 -34 218 -191v-246c0 -55 13 -58 32 -58c7 0 15 1 21 2l6 -25c-33 -13 -59 -16 -71 -16c-33 0 -57 10 -69 65c-49 -36 -98 -65 -161 -65
c-93 0 -150 49 -150 132c0 100 63 131 147 147l102 19c54 10 62 13 62 62c0 103 -68 128 -159 128c-115 0 -254 -94 -254 -311c0 -185 103 -323 281 -323c63 0 135 14 220 87zM563 302v154l-64 -10c-96 -15 -152 -46 -152 -112c0 -58 30 -89 97 -89c40 0 85 15 119 57z" />
    <glyph glyph-name="A" unicode="A" horiz-adv-x="704" 
d="M345 721h25c36 -90 245 -582 319 -723c-16 1 -43 2 -56 2s-42 -1 -58 -2c-28 67 -85 216 -111 272c-52 8 -104 9 -139 9c-38 0 -83 -2 -124 -9c-33 -67 -88 -220 -106 -272c-11 1 -26 2 -38 2c-14 0 -32 -1 -42 -2c76 130 297 649 330 723zM333 572l-101 -233
c24 -3 68 -7 101 -7c23 0 66 3 99 7c-21 56 -41 102 -99 233z" />
    <glyph glyph-name="B" unicode="B" horiz-adv-x="648" 
d="M96 724c25 -1 86 -3 102 -3c27 0 75 3 93 3c142 0 254 -27 254 -155c0 -91 -58 -142 -160 -177c143 -30 183 -96 183 -182c0 -147 -125 -213 -284 -213c-38 0 -98 3 -128 3c-13 0 -46 -2 -60 -3c6 110 8 262 8 388c0 113 -1 284 -8 339zM194 358v-303c22 -1 59 -2 85 -2
c102 0 187 43 187 158c0 90 -49 147 -244 147h-28zM194 666v-253c11 -1 29 -2 53 -2c111 0 196 46 196 138c0 85 -74 119 -165 119c-23 0 -63 -1 -84 -2z" />
    <glyph glyph-name="C" unicode="C" horiz-adv-x="705" 
d="M675 687l-25 -84h-16c-74 67 -140 86 -201 86c-199 0 -280 -169 -280 -334c0 -159 86 -323 281 -323c64 0 140 17 219 86l8 -11l-10 -63c-82 -46 -155 -59 -234 -59c-221 0 -372 140 -372 369c0 234 158 382 394 382c73 0 161 -10 236 -49z" />
    <glyph glyph-name="D" unicode="D" horiz-adv-x="812" 
d="M96 724c24 -2 69 -3 108 -3c54 0 128 3 186 3c232 0 370 -124 370 -337c0 -262 -181 -390 -450 -390c-36 0 -95 3 -128 3c-29 0 -68 -1 -86 -3c6 110 8 262 8 388c0 113 -1 284 -8 339zM197 666c-1 -38 -3 -262 -3 -310c0 -46 1 -217 3 -301c27 -1 89 -2 119 -2
c213 0 336 86 336 327c0 221 -116 288 -345 288c-31 0 -84 -1 -110 -2z" />
    <glyph glyph-name="E" unicode="E" horiz-adv-x="528" 
d="M96 724c23 -2 99 -3 148 -3h111c19 0 84 3 123 8c-2 -10 -3 -22 -3 -33c0 -12 1 -26 3 -36c-63 6 -131 8 -196 8c-28 0 -71 -1 -82 -2c-3 -61 -6 -118 -6 -140v-123h76c100 0 129 3 181 9c-2 -9 -4 -25 -4 -35c0 -9 2 -23 4 -35c-28 5 -159 8 -257 8v-146
c0 -31 2 -123 4 -151h97c49 0 122 4 184 8c-1 -12 -3 -35 -3 -39c0 -5 1 -15 3 -25c-41 2 -115 3 -176 3h-74c-62 0 -101 -1 -133 -3c6 110 8 262 8 388c0 113 -1 284 -8 339z" />
    <glyph glyph-name="F" unicode="F" horiz-adv-x="521" 
d="M96 724c42 -2 98 -3 146 -3h100c19 0 108 4 147 8c-2 -10 -3 -22 -3 -33c0 -12 1 -26 3 -36c-63 6 -164 8 -209 8h-83c-1 -17 -3 -73 -3 -114v-146h76c100 0 144 2 196 8c-2 -9 -4 -25 -4 -35c0 -9 2 -23 4 -35c-28 5 -174 9 -272 9c0 -119 3 -282 8 -358
c-17 2 -34 3 -51 3c-18 0 -39 -1 -55 -3c6 110 8 262 8 388c0 113 -1 284 -8 339z" />
    <glyph glyph-name="G" unicode="G" horiz-adv-x="822" 
d="M703 591l-13 -4c-78 75 -163 102 -240 102c-197 0 -297 -156 -297 -328c0 -199 101 -329 310 -329c44 0 109 7 158 32c6 54 9 97 9 127c0 13 -5 97 -9 142c16 -2 41 -3 55 -3s36 1 52 3c-7 -53 -8 -147 -8 -210c0 -32 5 -79 8 -97c-141 -33 -189 -41 -278 -41
c-254 0 -405 131 -405 369c0 246 167 382 414 382c87 0 166 -10 271 -67c-10 -21 -24 -57 -27 -78z" />
    <glyph glyph-name="H" unicode="H" horiz-adv-x="819" 
d="M202 724c-7 -55 -8 -226 -8 -305c105 -5 189 -7 234 -7c43 0 113 2 197 8c0 78 -1 249 -8 304c18 -1 44 -3 57 -3c9 0 33 2 49 3c-7 -55 -8 -226 -8 -339c0 -126 2 -278 8 -388c-16 1 -42 3 -50 3c-12 0 -40 -2 -56 -3c6 110 8 275 8 354c-84 6 -147 8 -202 8
c-59 0 -124 -2 -229 -8c0 -81 2 -244 8 -354c-16 1 -42 3 -50 3c-12 0 -40 -2 -56 -3c6 110 8 262 8 388c0 113 -1 284 -8 339c18 -1 44 -3 57 -3c9 0 33 2 49 3z" />
    <glyph glyph-name="I" unicode="I" horiz-adv-x="298" 
d="M96 724c18 -1 44 -3 57 -3c9 0 33 2 49 3c-7 -55 -8 -226 -8 -339c0 -126 2 -278 8 -388c-16 1 -42 3 -50 3c-12 0 -40 -2 -56 -3c6 110 8 262 8 388c0 113 -1 284 -8 339z" />
    <glyph glyph-name="J" unicode="J" horiz-adv-x="297" 
d="M95 724c18 -1 44 -3 57 -3c9 0 33 2 49 3c-6 -71 -7 -170 -7 -255v-261c0 -30 3 -99 3 -121c0 -124 -49 -232 -220 -241c0 15 -2 27 -5 38c129 15 132 91 132 326v258c0 78 -2 206 -9 256z" />
    <glyph glyph-name="K" unicode="K" horiz-adv-x="645" 
d="M202 724c-7 -55 -8 -226 -8 -333c85 64 256 250 329 333c17 -1 38 -3 53 -3s38 2 52 3c-95 -87 -231 -215 -340 -326c86 -103 258 -300 350 -401c-21 2 -43 3 -65 3c-17 0 -50 -1 -67 -3c-81 111 -208 254 -312 367c0 -105 2 -257 8 -367c-16 1 -42 3 -50 3
c-12 0 -40 -2 -56 -3c6 110 8 262 8 388c0 113 -1 284 -8 339c18 -1 44 -3 57 -3c9 0 33 2 49 3z" />
    <glyph glyph-name="L" unicode="L" horiz-adv-x="520" 
d="M96 724c18 -1 44 -3 57 -3c9 0 33 2 49 3c-7 -55 -8 -226 -8 -339c0 -80 1 -302 3 -332h123c53 0 122 2 164 8c-1 -13 -3 -30 -3 -39c0 -5 1 -15 3 -25c-16 1 -79 3 -118 3h-161c-27 0 -74 -1 -109 -3c6 110 8 264 8 388c0 113 -1 284 -8 339z" />
    <glyph glyph-name="M" unicode="M" horiz-adv-x="939" 
d="M146 721h20c48 -101 250 -485 307 -572c82 153 207 382 310 572h19c22 -216 66 -594 87 -724c-16 2 -33 3 -49 3c-15 0 -37 -1 -53 -3c-6 77 -39 402 -55 531c-40 -66 -185 -347 -273 -528h-19c-56 116 -179 359 -266 519c-15 -93 -52 -406 -52 -522c-12 2 -26 3 -38 3
c-14 0 -31 -1 -42 -3c27 137 85 563 104 724z" />
    <glyph glyph-name="N" unicode="N" horiz-adv-x="804" 
d="M96 721h28l521 -550v214c0 113 -1 284 -8 339c15 -2 32 -3 36 -3c6 0 26 2 35 3c-7 -55 -8 -226 -8 -339c0 -126 2 -289 8 -399h-28c-34 40 -100 115 -144 161l-377 394v-156c0 -126 2 -278 8 -388c-11 2 -24 3 -35 3c-10 0 -26 -1 -36 -3c6 110 8 262 8 388
c0 113 -1 281 -8 336z" />
    <glyph glyph-name="O" unicode="O" horiz-adv-x="877" 
d="M439 736c224 0 393 -137 393 -365c0 -220 -166 -386 -400 -386c-221 0 -387 138 -387 370c0 227 168 381 394 381zM441 689c-178 0 -288 -125 -288 -334c0 -172 93 -323 283 -323c172 0 288 128 288 336c0 194 -98 321 -283 321z" />
    <glyph glyph-name="P" unicode="P" horiz-adv-x="605" 
d="M96 724c33 -1 78 -3 101 -3c35 0 80 3 106 3c185 0 257 -56 257 -182c0 -163 -137 -215 -300 -215c-9 0 -47 2 -66 4v-173c0 -50 2 -111 8 -161c-17 2 -34 3 -51 3c-18 0 -39 -1 -55 -3c6 110 8 262 8 388c0 113 -1 284 -8 339zM194 384c12 -2 32 -4 42 -4
c140 0 222 56 222 162c0 99 -78 126 -175 126c-17 0 -75 -1 -89 -3v-281z" />
    <glyph glyph-name="Q" unicode="Q" horiz-adv-x="876" 
d="M809 -169c-32 -14 -66 -31 -94 -47c-66 64 -161 148 -240 201h-38c-240 0 -392 138 -392 370c0 235 172 381 392 381c227 0 394 -135 394 -359c0 -160 -91 -328 -266 -374c76 -59 175 -131 244 -172zM440 689c-196 0 -287 -147 -287 -340c0 -165 96 -317 275 -317
c189 0 295 154 295 343c0 183 -101 314 -283 314z" />
    <glyph glyph-name="R" unicode="R" horiz-adv-x="648" 
d="M96 724c29 -2 90 -3 114 -3c27 0 100 3 138 3c128 0 210 -56 210 -165c0 -98 -72 -183 -215 -198c186 -238 225 -285 295 -364c-23 2 -49 3 -70 3c-22 0 -46 -1 -66 -3c-71 104 -191 257 -272 353h-36c0 -120 1 -243 8 -353c-17 2 -34 3 -51 3c-18 0 -39 -1 -55 -3
c6 110 8 262 8 388c0 113 -1 284 -8 339zM194 665v-262h33c95 0 223 24 223 145c0 75 -58 120 -174 120c-34 0 -68 -1 -82 -3z" />
    <glyph glyph-name="S" unicode="S" horiz-adv-x="528" 
d="M413 610l-13 -2c-33 61 -83 81 -133 81c-70 0 -125 -42 -125 -121c0 -77 46 -110 114 -136l93 -36c79 -30 122 -95 122 -176c0 -136 -108 -235 -253 -235c-52 0 -110 7 -170 64c6 19 16 56 17 76l13 2c48 -64 102 -95 164 -95c88 0 148 57 148 149c0 71 -54 114 -111 137
l-89 36c-85 34 -129 99 -129 185c0 130 102 197 218 197c57 0 110 -12 161 -51c-9 -22 -21 -55 -27 -75z" />
    <glyph glyph-name="T" unicode="T" horiz-adv-x="578" 
d="M338 668c-3 -55 -4 -205 -4 -283c0 -126 2 -278 8 -388c-16 1 -42 3 -50 3c-12 0 -40 -2 -56 -3c6 110 8 262 8 388c0 78 -1 228 -4 283h-19c-109 0 -161 -3 -196 -8c1 11 3 26 3 33c0 8 -2 24 -3 36c50 -3 173 -8 264 -8c92 0 214 5 264 8c-1 -12 -3 -28 -3 -36
c0 -7 2 -22 3 -33c-35 5 -87 8 -196 8h-19z" />
    <glyph glyph-name="U" unicode="U" horiz-adv-x="807" 
d="M96 724c18 -1 44 -3 57 -3c9 0 33 2 49 3c-6 -71 -7 -170 -7 -255v-189c0 -158 79 -239 221 -239c199 0 230 132 230 344c0 113 -1 284 -8 339c13 -2 29 -3 37 -3c7 0 22 1 36 3c-7 -55 -8 -226 -8 -339c0 -299 -91 -400 -312 -400c-180 0 -286 91 -286 276v207
c0 78 -2 206 -9 256z" />
    <glyph glyph-name="V" unicode="V" horiz-adv-x="704" 
d="M10 724c19 -1 48 -3 64 -3c14 0 40 2 57 3c34 -116 165 -438 238 -605c60 143 203 505 230 605c17 -2 34 -3 42 -3c7 0 29 2 43 3c-49 -96 -216 -504 -301 -727c-11 2 -27 3 -35 3c-14 0 -29 -1 -39 -3c-27 89 -234 585 -299 727z" />
    <glyph glyph-name="W" unicode="W" horiz-adv-x="1056" 
d="M18 724c25 -2 46 -3 64 -3c10 0 32 2 47 3c29 -124 118 -424 182 -621c54 158 174 511 200 621c11 -1 30 -3 35 -3c8 0 22 2 32 3c26 -93 132 -413 197 -604c48 134 165 530 184 604c11 -2 31 -3 38 -3c9 0 28 2 41 3c-75 -196 -223 -614 -250 -727c-11 2 -25 3 -37 3
s-27 -1 -37 -3c-31 108 -150 484 -186 592c-61 -177 -148 -417 -205 -592c-10 1 -24 3 -36 3c-10 0 -26 -2 -37 -3c-54 188 -193 638 -232 727z" />
    <glyph glyph-name="X" unicode="X" horiz-adv-x="645" 
d="M51 724c27 -2 45 -3 67 -3c9 0 39 1 53 3c38 -73 121 -218 160 -281c64 94 154 242 173 281c14 -2 33 -3 46 -3s28 1 39 3c-43 -53 -153 -214 -227 -326c36 -66 181 -304 247 -401c-22 2 -47 3 -66 3c-17 0 -40 -2 -59 -3c-40 85 -119 224 -176 321
c-63 -99 -146 -238 -190 -321c-12 2 -26 3 -39 3s-33 -1 -46 -3c40 55 225 331 244 368c-29 51 -197 325 -226 359z" />
    <glyph glyph-name="Y" unicode="Y" horiz-adv-x="645" 
d="M17 724c21 -1 53 -3 64 -3c21 0 49 2 65 3c63 -131 117 -226 194 -357c72 114 169 291 194 357c15 -1 35 -3 45 -3s32 2 48 3c-37 -47 -179 -278 -257 -407c0 -61 3 -219 8 -320c-16 1 -42 3 -50 3c-12 0 -40 -2 -56 -3c6 85 8 218 8 296c-192 322 -217 361 -263 431z
" />
    <glyph glyph-name="Z" unicode="Z" horiz-adv-x="645" 
d="M57 729c31 -5 166 -8 251 -8c82 0 139 1 296 8l5 -22c-122 -158 -331 -467 -448 -654h181c74 0 217 3 265 8c-2 -10 -3 -28 -3 -35c0 -4 1 -26 3 -34c-34 5 -140 8 -225 8h-201c-40 0 -113 -4 -160 -8l-11 16c75 103 400 580 450 660c-135 0 -342 -3 -403 -8
c1 13 2 29 2 37c0 6 -1 26 -2 32z" />
    <glyph glyph-name="bracketleft" unicode="[" horiz-adv-x="294" 
d="M76 730c34 -6 78 -9 108 -9c20 0 70 5 103 9v-63c-36 8 -82 14 -118 16v-804c39 4 86 10 118 16v-63c-41 5 -90 9 -111 9c-23 0 -56 -2 -100 -9c5 119 10 330 10 407v95c0 50 -5 270 -10 396z" />
    <glyph glyph-name="backslash" unicode="\" horiz-adv-x="294" 
d="M-35 783c14 -2 37 -3 45 -3c9 0 24 1 36 3c38 -145 188 -586 277 -800c-12 2 -26 3 -38 3c-14 0 -32 -1 -43 -3c-59 232 -202 610 -277 800z" />
    <glyph glyph-name="bracketright" unicode="]" horiz-adv-x="294" 
d="M7 667v63c33 -4 83 -9 103 -9c30 0 74 3 108 9c-5 -126 -10 -346 -10 -396v-95c0 -77 5 -288 10 -407c-44 7 -77 9 -100 9c-21 0 -70 -4 -111 -9v63c32 -6 79 -12 118 -16v804c-36 -2 -82 -8 -118 -16z" />
    <glyph glyph-name="asciicircum" unicode="^" horiz-adv-x="528" 
d="M239 792h53c36 -84 82 -152 186 -231v-48c-82 31 -158 81 -212 138c-46 -51 -129 -111 -213 -138v48c99 74 154 151 186 231z" />
    <glyph glyph-name="underscore" unicode="_" horiz-adv-x="528" 
d="M528 -179v-53h-528v53h528z" />
    <glyph glyph-name="grave" unicode="`" 
d="M362 565h-38c-45 47 -112 106 -172 153l6 13c23 -3 41 -5 55 -5c13 0 32 2 59 5c21 -52 59 -121 90 -166z" />
    <glyph glyph-name="a" unicode="a" horiz-adv-x="508" 
d="M82 394v58c57 44 111 61 171 61c105 0 178 -53 178 -184v-241c0 -57 11 -63 32 -63c7 0 15 1 21 2l6 -25c-39 -14 -61 -16 -72 -16c-33 0 -54 15 -62 44l-6 22c-54 -43 -113 -66 -162 -66c-91 0 -150 48 -150 132c0 90 61 132 140 146l121 22c34 6 52 16 52 41
c0 109 -46 147 -122 147c-59 0 -108 -22 -135 -80h-12zM351 101v154l-66 -10c-72 -11 -152 -36 -152 -112c0 -58 32 -89 97 -89c40 0 80 14 121 57z" />
    <glyph glyph-name="b" unicode="b" horiz-adv-x="588" 
d="M68 785c17 -1 39 -3 51 -3c11 0 32 2 47 3c-8 -76 -9 -221 -9 -300v-78c49 78 109 106 180 106c128 0 213 -104 213 -245c0 -156 -92 -282 -238 -282c-57 0 -111 21 -145 71l-89 -71l-10 4c8 76 9 222 9 300v195c0 79 -1 224 -9 300zM311 468c-119 0 -150 -127 -150 -235
c0 -114 29 -202 140 -202s153 114 153 232c0 116 -45 205 -143 205z" />
    <glyph glyph-name="c" unicode="c" horiz-adv-x="505" 
d="M482 469l-25 -75h-12c-35 57 -84 80 -139 80c-117 0 -173 -113 -173 -223c0 -127 70 -226 194 -226c41 0 78 6 136 69l9 -11l-12 -49c-48 -32 -102 -48 -164 -48c-156 0 -258 109 -258 263c0 161 110 264 271 264c52 0 109 -10 173 -44z" />
    <glyph glyph-name="d" unicode="d" horiz-adv-x="589" 
d="M423 785c17 -1 39 -3 51 -3c11 0 32 2 47 3c-8 -76 -9 -221 -9 -300v-188c0 -78 1 -224 9 -300c-15 2 -31 3 -46 3c-17 0 -37 -1 -52 -3c4 46 6 83 6 98c-39 -76 -100 -109 -176 -109c-143 0 -215 122 -215 264c0 148 88 263 229 263c61 0 139 -30 165 -97v69
c0 79 -1 224 -9 300zM284 468c-102 0 -151 -71 -151 -212c0 -108 30 -225 141 -225c106 0 152 95 152 225c0 113 -44 212 -142 212z" />
    <glyph glyph-name="e" unicode="e" horiz-adv-x="528" 
d="M470 104l9 -10l-12 -50c-65 -46 -128 -58 -182 -58c-152 0 -247 103 -247 259c0 155 80 268 242 268c140 0 213 -79 213 -237c0 -7 -1 -25 -2 -35c-38 4 -108 8 -125 8h-233c0 -148 57 -224 174 -224c69 0 117 29 163 79zM133 294h264v29c0 79 -48 151 -122 151
c-87 0 -133 -78 -142 -180z" />
    <glyph glyph-name="f" unicode="f" horiz-adv-x="293" 
d="M319 787c-1 -14 -3 -37 -3 -45c0 -10 2 -30 3 -47c-32 12 -49 15 -62 15c-57 0 -87 -30 -87 -89c0 -23 2 -67 9 -121c29 0 77 4 110 8c-1 -10 -2 -24 -2 -32c0 -9 1 -21 2 -29c-34 5 -70 8 -82 8h-30v-158c0 -78 1 -224 9 -300c-15 2 -31 3 -46 3c-17 0 -37 -1 -52 -3
c8 76 9 222 9 300v158h-17c-9 0 -23 -1 -53 -8c2 10 3 25 3 30s-1 20 -3 31c22 -7 37 -8 53 -8h17c0 162 111 290 194 290c13 0 21 -1 28 -3z" />
    <glyph glyph-name="g" unicode="g" horiz-adv-x="532" 
d="M502 516c-1 -8 -2 -19 -2 -25s1 -23 2 -31l-98 8c36 -30 55 -68 55 -112c0 -95 -96 -165 -193 -165h-46c-46 0 -70 -14 -70 -42c0 -29 25 -42 74 -42h117c96 0 171 -39 171 -125c0 -120 -117 -198 -256 -198c-104 0 -216 33 -216 137c0 55 40 95 121 122
c-43 11 -77 32 -77 78c0 36 26 65 81 87c-80 22 -112 76 -112 142c0 123 111 163 221 163c49 0 96 -5 109 -5c41 0 85 3 119 8zM274 39c-83 0 -164 -23 -164 -113c0 -73 68 -103 149 -103c95 0 174 38 174 120c0 64 -52 96 -159 96zM256 474c-68 0 -107 -51 -107 -121
c0 -82 33 -123 104 -123c66 0 110 48 110 124c0 62 -36 120 -107 120z" />
    <glyph glyph-name="h" unicode="h" horiz-adv-x="568" 
d="M68 785c17 -1 39 -3 51 -3c11 0 32 2 47 3c-8 -76 -9 -221 -9 -300v-66c35 66 101 94 164 94c97 0 173 -61 173 -163c0 -25 -3 -68 -3 -100c0 -42 1 -177 9 -253c-15 2 -31 3 -46 3c-17 0 -37 -1 -52 -3c8 76 9 211 9 253c0 153 -46 206 -124 206
c-122 0 -130 -124 -130 -219c0 -18 1 -164 9 -240c-15 2 -31 3 -46 3c-17 0 -37 -1 -52 -3c8 76 9 222 9 300v188c0 79 -1 224 -9 300z" />
    <glyph glyph-name="i" unicode="i" horiz-adv-x="288" 
d="M93 503c17 -1 39 -3 51 -3c11 0 32 2 47 3c-8 -75 -9 -201 -9 -253c0 -42 1 -177 9 -253c-15 2 -31 3 -46 3c-17 0 -37 -1 -52 -3c8 76 9 211 9 253c0 51 -1 178 -9 253zM144 742c34 0 54 -17 54 -53c0 -32 -20 -55 -54 -55s-54 23 -54 55c0 30 22 53 54 53z" />
    <glyph glyph-name="j" unicode="j" horiz-adv-x="293" 
d="M6 -216l-9 32l28 7c69 17 82 124 82 192v188c0 79 -1 224 -9 300c17 -1 39 -3 51 -3c11 0 32 2 47 3c-8 -76 -9 -221 -9 -300v-188c0 -105 -4 -200 -181 -231zM149 742c34 0 54 -17 54 -53c0 -32 -20 -55 -54 -55s-54 23 -54 55c0 30 22 53 54 53z" />
    <glyph glyph-name="k" unicode="k" horiz-adv-x="522" 
d="M68 785c17 -1 39 -3 51 -3c11 0 32 2 47 3c-8 -76 -9 -221 -9 -300v-202h16c33 0 202 192 218 220c14 -1 37 -3 49 -3c10 0 34 2 49 3l-239 -214c30 -36 189 -215 261 -292c-27 2 -46 3 -60 3c-18 0 -45 -1 -66 -3c-37 58 -150 191 -212 259h-16c0 -37 1 -183 9 -259
c-15 2 -31 3 -46 3c-17 0 -37 -1 -52 -3c8 76 9 222 9 300v188c0 79 -1 224 -9 300z" />
    <glyph glyph-name="l" unicode="l" horiz-adv-x="278" 
d="M90 785c17 -1 39 -3 51 -3c11 0 32 2 47 3c-8 -76 -9 -221 -9 -300v-188c0 -78 1 -224 9 -300c-15 2 -31 3 -46 3c-17 0 -37 -1 -52 -3c8 76 9 222 9 300v188c0 79 -1 224 -9 300z" />
    <glyph glyph-name="m" unicode="m" horiz-adv-x="866" 
d="M68 503c17 -1 39 -3 51 -3c11 0 32 2 47 3c-2 -17 -5 -59 -5 -75c36 61 97 85 155 85c71 0 121 -24 148 -104c30 60 88 104 171 104c97 0 157 -61 157 -163c0 -25 -3 -68 -3 -100c0 -42 1 -177 9 -253c-15 2 -31 3 -46 3c-17 0 -37 -1 -52 -3c8 76 9 211 9 253
c0 169 -34 206 -108 206c-111 0 -128 -89 -128 -219c0 -18 1 -164 9 -240c-15 2 -31 3 -46 3c-17 0 -37 -1 -52 -3c8 76 9 211 9 253c0 169 -34 206 -108 206c-111 0 -128 -89 -128 -219c0 -18 1 -164 9 -240c-15 2 -31 3 -46 3c-17 0 -37 -1 -52 -3c8 76 9 211 9 253
c0 51 -1 178 -9 253z" />
    <glyph glyph-name="n" unicode="n" horiz-adv-x="568" 
d="M68 503c17 -1 39 -3 51 -3c11 0 32 2 47 3c-2 -17 -5 -60 -5 -78c33 60 97 88 160 88c97 0 173 -61 173 -163c0 -25 -3 -68 -3 -100c0 -42 1 -177 9 -253c-15 2 -31 3 -46 3c-17 0 -37 -1 -52 -3c8 76 9 211 9 253c0 153 -46 206 -124 206c-122 0 -130 -124 -130 -219
c0 -18 1 -164 9 -240c-15 2 -31 3 -46 3c-17 0 -37 -1 -52 -3c8 76 9 211 9 253c0 51 -1 178 -9 253z" />
    <glyph glyph-name="o" unicode="o" horiz-adv-x="582" 
d="M297 513c152 0 247 -110 247 -260c0 -153 -99 -267 -256 -267c-154 0 -250 113 -250 253c0 166 106 274 259 274zM294 474c-108 0 -161 -113 -161 -232c0 -113 47 -217 153 -217c102 0 163 98 163 232c0 108 -42 217 -155 217z" />
    <glyph glyph-name="p" unicode="p" horiz-adv-x="585" 
d="M68 503c17 -1 39 -3 51 -3c11 0 32 2 47 3c-2 -17 -6 -81 -6 -89c46 65 91 99 171 99c132 0 216 -101 216 -250c0 -134 -65 -277 -233 -277c-60 0 -104 10 -157 79c0 -63 1 -209 9 -285c-15 2 -31 3 -46 3c-17 0 -37 -1 -52 -3c8 76 9 222 9 300v123c0 79 -1 224 -9 300z
M306 468c-116 0 -149 -117 -149 -229c0 -105 33 -208 146 -208c96 0 149 73 149 219c0 144 -47 218 -146 218z" />
    <glyph glyph-name="q" unicode="q" horiz-adv-x="585" 
d="M517 503c-8 -76 -9 -221 -9 -300v-123c0 -78 1 -224 9 -300c-15 2 -35 3 -52 3c-15 0 -31 -1 -46 -3c8 76 9 222 9 285c-53 -69 -97 -79 -157 -79c-168 0 -233 143 -233 277c0 149 84 250 216 250c80 0 125 -34 171 -99c0 8 -4 72 -6 89c15 -1 36 -3 47 -3
c12 0 34 2 51 3zM279 468c-99 0 -146 -74 -146 -218c0 -146 53 -219 149 -219c113 0 146 103 146 208c0 112 -33 229 -149 229z" />
    <glyph glyph-name="r" unicode="r" horiz-adv-x="335" 
d="M68 503c17 -1 39 -3 51 -3c11 0 32 2 47 3c-3 -29 -6 -80 -6 -93c53 82 98 103 136 103c10 0 23 -2 39 -7c-10 -27 -18 -63 -18 -89c-27 10 -43 13 -55 13c-87 0 -105 -78 -105 -180c0 -42 1 -177 9 -253c-15 2 -31 3 -46 3c-17 0 -37 -1 -52 -3c8 76 9 211 9 253
c0 51 -1 178 -9 253z" />
    <glyph glyph-name="s" unicode="s" horiz-adv-x="411" 
d="M340 479c-10 -21 -22 -49 -30 -73c-31 55 -67 68 -103 68c-48 0 -85 -32 -85 -82c0 -62 52 -87 109 -101c87 -22 137 -49 137 -136c0 -96 -93 -169 -193 -169c-51 0 -96 14 -132 41c11 20 25 53 32 73c38 -62 77 -75 119 -75c58 0 104 34 104 92c0 66 -55 83 -118 100
c-78 21 -128 60 -128 141c0 94 69 155 170 155c53 0 84 -12 118 -34z" />
    <glyph glyph-name="t" unicode="t" horiz-adv-x="312" 
d="M282 38v-31c-27 -17 -51 -21 -76 -21c-80 0 -119 40 -119 131v338c-13 0 -53 -3 -67 -8c1 9 2 23 2 34c0 4 -1 20 -2 27c16 -6 43 -8 67 -8c0 37 -3 75 -9 105c36 12 68 26 98 43c-6 -34 -9 -99 -9 -148c67 0 99 2 114 8c-1 -9 -2 -22 -2 -28c0 -11 1 -23 2 -33
c-25 6 -85 8 -114 8v-321c0 -71 11 -108 75 -108c13 0 24 1 40 12z" />
    <glyph glyph-name="u" unicode="u" horiz-adv-x="568" 
d="M68 503c17 -1 39 -3 51 -3c11 0 32 2 47 3c-8 -76 -9 -211 -9 -253c0 -153 46 -207 124 -207c122 0 130 125 130 220c0 18 -1 164 -9 240c17 -1 39 -3 51 -3c11 0 32 2 47 3c-8 -75 -9 -201 -9 -253c0 -42 1 -177 9 -253c-15 2 -31 3 -46 3c-17 0 -37 -1 -52 -3
c2 17 5 60 5 78c-33 -60 -97 -89 -160 -89c-97 0 -173 62 -173 164c0 25 3 68 3 100c0 42 -1 177 -9 253z" />
    <glyph glyph-name="v" unicode="v" horiz-adv-x="528" 
d="M12 502c18 -1 44 -2 58 -2c13 0 34 1 51 3c22 -78 102 -282 161 -400c51 117 135 330 148 400c15 -2 35 -3 45 -3c9 0 28 1 41 2c-36 -49 -162 -344 -220 -504c-9 1 -23 2 -31 2c-6 0 -21 -1 -34 -3c-44 118 -189 466 -219 505z" />
    <glyph glyph-name="w" unicode="w" horiz-adv-x="808" 
d="M12 503c17 -2 41 -3 55 -3c18 0 37 1 54 3c19 -91 88 -287 128 -385c39 96 105 293 128 385c11 -2 24 -3 36 -3s24 1 35 3c17 -65 102 -308 131 -387c52 126 100 255 133 387c14 -2 29 -3 43 -3c10 0 28 1 41 3c-64 -117 -165 -370 -208 -506c-10 2 -20 3 -30 3
c-8 0 -20 -1 -30 -3c-33 134 -86 262 -133 391c-46 -129 -95 -258 -131 -391c-9 2 -21 3 -31 3s-22 -1 -30 -3c-54 171 -119 341 -191 506z" />
    <glyph glyph-name="x" unicode="x" horiz-adv-x="504" 
d="M15 503c19 -2 45 -3 61 -3c13 0 33 1 48 3c26 -47 94 -143 133 -195c49 62 113 151 138 195c12 -2 28 -3 38 -3c12 0 26 1 37 3c-35 -39 -153 -183 -187 -230c41 -58 160 -218 209 -276c-18 2 -38 3 -56 3c-14 0 -46 -1 -65 -3c-22 48 -89 146 -139 211
c-25 -31 -125 -175 -147 -211c-12 2 -25 3 -36 3c-7 0 -26 -1 -37 -3c39 49 166 211 194 247c-41 60 -150 208 -191 259z" />
    <glyph glyph-name="y" unicode="y" horiz-adv-x="526" 
d="M12 503c18 -2 43 -3 62 -3c18 0 39 1 56 3c8 -69 92 -269 150 -397c46 105 142 351 142 397c17 -2 38 -3 51 -3s28 1 41 3c-26 -28 -306 -652 -312 -723c-13 2 -28 3 -41 3s-36 -1 -51 -3c32 45 106 184 122 218c-65 161 -184 439 -220 505z" />
    <glyph glyph-name="z" unicode="z" horiz-adv-x="513" 
d="M80 508c69 -6 155 -8 237 -8c65 0 133 4 161 8l10 -15c-60 -78 -254 -336 -335 -448h123c90 0 177 5 197 8c-1 -10 -2 -25 -2 -35c0 -6 1 -19 2 -26c-48 7 -115 8 -181 8h-124c-21 0 -71 -1 -134 -8l-9 11c80 107 304 412 328 452c-94 0 -215 -2 -273 -9c1 10 3 26 3 31
s-2 21 -3 31z" />
    <glyph glyph-name="braceleft" unicode="{" horiz-adv-x="469" 
d="M395 825l9 -32l-25 -6c-75 -18 -84 -122 -84 -207v-86c0 -96 -10 -146 -104 -194v-14c94 -48 104 -98 104 -194v-86c0 -85 9 -189 84 -207l25 -6l-9 -32c-122 16 -181 78 -181 194v133c0 69 -16 167 -83 179l-35 6c2 8 3 16 3 20c0 6 -1 13 -3 20l35 6
c67 12 83 110 83 179v133c0 116 59 178 181 194z" />
    <glyph glyph-name="bar" unicode="|" horiz-adv-x="528" 
d="M290 797v-1056h-53v1056h53z" />
    <glyph glyph-name="braceright" unicode="}" horiz-adv-x="469" 
d="M65 793l9 32c122 -16 181 -78 181 -194v-133c0 -69 16 -167 83 -179l35 -6c-2 -7 -3 -14 -3 -20c0 -4 1 -12 3 -20l-35 -6c-67 -12 -83 -110 -83 -179v-133c0 -116 -59 -178 -181 -194l-9 32l25 6c75 18 84 122 84 207v86c0 96 10 146 104 194v14
c-94 48 -104 98 -104 194v86c0 85 -9 189 -84 207z" />
    <glyph glyph-name="asciitilde" unicode="~" horiz-adv-x="1056" 
d="M795 361l55 -46c-49 -58 -106 -88 -173 -88c-97 0 -173 76 -279 76c-55 0 -98 -27 -129 -82l-63 38l10 16c39 69 95 104 169 104c95 0 210 -75 298 -75c34 0 68 15 112 57z" />
    <glyph glyph-name="afii10051" unicode="&#x402;" horiz-adv-x="776" 
d="M338 668c-3 -55 -4 -209 -4 -287c68 37 113 55 166 55c174 0 228 -125 228 -211c0 -203 -116 -240 -208 -240c-36 0 -68 9 -109 32c16 16 34 56 35 70c23 -44 41 -61 74 -61c90 0 118 75 118 184c0 117 -56 170 -143 170c-104 0 -161 -50 -161 -87c0 -107 3 -207 8 -296
c-16 1 -42 3 -50 3c-12 0 -40 -2 -56 -3c6 110 8 262 8 388c0 78 -1 228 -4 283h-19c-109 0 -161 -3 -196 -8c1 11 3 26 3 33c0 8 -2 24 -3 36c50 -3 173 -8 264 -8c92 0 232 5 282 8c-1 -12 -3 -28 -3 -36c0 -7 2 -22 3 -33c-35 5 -105 8 -214 8h-19z" />
    <glyph glyph-name="afii10052" unicode="&#x403;" horiz-adv-x="521" 
d="M96 724c42 -2 98 -3 146 -3h100c19 0 108 4 147 8c-2 -10 -3 -22 -3 -33c0 -12 1 -26 3 -36c-63 6 -164 8 -209 8h-83c-2 -15 -3 -170 -3 -283c0 -126 2 -278 8 -388c-16 1 -42 3 -50 3c-12 0 -40 -2 -56 -3c6 110 8 262 8 388c0 113 -1 284 -8 339zM305 762h-35
c23 50 60 152 81 221c24 -5 41 -7 55 -7c11 0 27 3 51 7l4 -18c-55 -64 -108 -131 -156 -203z" />
    <glyph glyph-name="quotesinglbase" unicode="&#x201a;" horiz-adv-x="294" 
d="M69 -198l-22 13l73 238c12 38 31 55 54 55c27 0 40 -13 40 -40c0 -15 -9 -39 -28 -72z" />
    <glyph glyph-name="afii10100" unicode="&#x453;" horiz-adv-x="430" 
d="M405 502c-1 -7 -2 -23 -2 -34c0 -12 1 -22 2 -30c-87 5 -163 7 -243 7c-3 -28 -5 -144 -5 -195c0 -42 1 -177 9 -253c-15 2 -31 3 -46 3c-17 0 -37 -1 -52 -3c8 76 9 211 9 253c0 51 -1 178 -9 253c40 -8 87 -10 140 -10c44 0 136 4 197 9zM223 524h-38
c29 48 70 119 89 167c26 -4 45 -6 60 -6c12 0 30 2 55 6l5 -14c-60 -49 -118 -99 -171 -153z" />
    <glyph glyph-name="quotedblbase" unicode="&#x201e;" horiz-adv-x="489" 
d="M69 -198l-22 13l73 238c12 38 31 55 54 55c27 0 40 -13 40 -40c0 -15 -9 -39 -28 -72zM264 -198l-22 13l73 238c12 38 31 55 54 55c27 0 40 -13 40 -40c0 -15 -9 -39 -28 -72z" />
    <glyph glyph-name="ellipsis" unicode="&#x2026;" horiz-adv-x="939" 
d="M162 108c33 0 61 -28 61 -63c0 -34 -30 -59 -61 -59c-36 0 -61 28 -61 61s26 61 61 61zM469 108c33 0 61 -28 61 -63c0 -34 -30 -59 -61 -59c-36 0 -61 28 -61 61s26 61 61 61zM776 108c33 0 61 -28 61 -63c0 -34 -30 -59 -61 -59c-36 0 -61 28 -61 61s26 61 61 61z" />
    <glyph glyph-name="dagger" unicode="&#x2020;" horiz-adv-x="586" 
d="M257 730c15 -5 28 -8 36 -8c7 0 19 3 37 8l-11 -261c41 0 131 6 186 11c-5 -16 -8 -27 -8 -36c0 -8 2 -21 8 -37c-49 5 -110 9 -186 9v-150c0 -60 4 -195 11 -299c-15 6 -28 8 -37 8c-7 0 -20 -2 -36 -8c7 104 10 234 10 299v150c-74 0 -135 -3 -186 -9c5 16 7 29 8 37
c0 7 -2 19 -8 36c58 -5 151 -11 186 -11z" />
    <glyph glyph-name="daggerdbl" unicode="&#x2021;" 
d="M500 80c-1 -13 -2 -39 -2 -48c0 -7 1 -29 2 -41c-89 6 -233 9 -275 9c-30 0 -151 -4 -192 -9c1 12 2 30 2 37c0 6 -1 24 -2 35c115 0 155 74 155 201c0 11 -2 60 -4 84c-27 0 -71 -4 -95 -9c1 9 2 26 2 32c0 7 -1 23 -2 33c35 -5 82 -9 96 -9c-1 11 -2 38 -2 53
c0 165 68 261 205 261c36 0 78 -10 138 -50c-17 -19 -33 -51 -43 -77c-22 57 -57 86 -104 86c-85 0 -111 -64 -111 -150c0 -65 2 -112 3 -123h38c39 0 86 3 113 9c-3 -13 -4 -27 -4 -34c0 -8 2 -22 4 -31c-41 7 -82 9 -106 9h-45c0 -93 -28 -208 -107 -277h57
c83 0 226 3 279 9z" />
    <glyph glyph-name="perthousand" unicode="&#x2030;" horiz-adv-x="1309" 
d="M565 721c7 -2 18 -3 23 -3c7 0 18 1 27 3c-82 -246 -162 -493 -240 -740c-11 3 -18 4 -23 4s-18 -1 -27 -4c83 246 161 493 240 740zM688 330c91 0 149 -76 149 -170c0 -88 -49 -167 -149 -167c-99 0 -154 73 -154 167c0 96 61 170 154 170zM686 296
c-54 0 -82 -44 -82 -124c0 -77 18 -145 82 -145c54 0 81 45 81 138c0 88 -27 131 -81 131zM258 711c91 0 149 -76 149 -170c0 -88 -49 -167 -149 -167c-99 0 -154 73 -154 167c0 96 61 170 154 170zM256 677c-54 0 -82 -44 -82 -124c0 -77 18 -145 82 -145
c54 0 81 45 81 138c0 88 -27 131 -81 131zM1058 330c91 0 149 -76 149 -170c0 -88 -49 -167 -149 -167c-99 0 -154 73 -154 167c0 96 61 170 154 170zM1056 296c-54 0 -82 -44 -82 -124c0 -77 18 -145 82 -145c54 0 81 45 81 138c0 88 -27 131 -81 131z" />
    <glyph glyph-name="afii10058" unicode="&#x409;" horiz-adv-x="924" 
d="M316 721h60l100 -323c32 9 77 12 107 12c112 0 309 -15 309 -201c0 -146 -125 -212 -284 -212c-33 0 -88 1 -119 3l-173 572c-57 -146 -198 -514 -221 -575c-12 2 -26 3 -38 3c-15 0 -30 -1 -42 -3c33 58 261 606 301 724zM494 338l91 -285c133 0 205 58 205 157
c0 115 -89 147 -199 147c-26 0 -69 -4 -97 -19z" />
    <glyph glyph-name="guilsinglleft" unicode="&#x2039;" horiz-adv-x="235" 
d="M213 392c-29 -37 -78 -107 -98 -140c13 -21 80 -118 101 -146c-23 -6 -41 -18 -55 -35c-24 40 -81 132 -120 181c41 56 93 132 120 182c12 -23 29 -36 52 -42z" />
    <glyph glyph-name="afii10059" unicode="&#x40a;" horiz-adv-x="1091" 
d="M202 724c-7 -55 -8 -226 -8 -305c105 -5 189 -7 234 -7c43 0 83 2 167 8c0 78 -1 249 -8 304c18 -1 44 -3 57 -3c9 0 33 2 49 3c-7 -55 -8 -225 -8 -312h52c113 0 322 -23 322 -201c0 -145 -116 -214 -284 -214c-22 0 -71 3 -93 3c-31 0 -70 -1 -95 -3c6 110 8 275 8 354
c-84 6 -117 8 -172 8c-59 0 -124 -2 -229 -8c0 -81 2 -244 8 -354c-16 1 -42 3 -50 3c-12 0 -40 -2 -56 -3c6 110 8 262 8 388c0 113 -1 284 -8 339c18 -1 44 -3 57 -3c9 0 33 2 49 3zM685 354c0 -95 2 -201 5 -299c24 -1 62 -2 80 -2c120 0 187 50 187 162
c0 101 -86 144 -222 144c-10 0 -37 -2 -50 -5z" />
    <glyph glyph-name="afii10061" unicode="&#x40c;" horiz-adv-x="645" 
d="M202 724c-7 -55 -8 -226 -8 -333c85 64 256 250 329 333c17 -1 38 -3 53 -3s38 2 52 3c-95 -87 -231 -215 -340 -326c86 -103 258 -300 350 -401c-21 2 -43 3 -65 3c-17 0 -50 -1 -67 -3c-81 111 -208 254 -312 367c0 -105 2 -257 8 -367c-16 1 -42 3 -50 3
c-12 0 -40 -2 -56 -3c6 110 8 262 8 388c0 113 -1 284 -8 339c18 -1 44 -3 57 -3c9 0 33 2 49 3zM351 762h-35c23 50 60 152 81 221c24 -5 41 -7 55 -7c11 0 27 3 51 7l4 -18c-55 -64 -108 -131 -156 -203z" />
    <glyph glyph-name="afii10060" unicode="&#x40b;" horiz-adv-x="776" 
d="M338 668c-3 -55 -4 -209 -4 -287c68 37 113 56 166 56c174 0 224 -125 224 -211c0 -36 4 -172 7 -229c-16 1 -42 3 -50 3c-12 0 -40 -2 -56 -3c5 63 6 141 6 170c0 145 -38 214 -136 214c-80 0 -161 -38 -161 -88c0 -107 3 -207 8 -296c-16 1 -42 3 -50 3
c-12 0 -40 -2 -56 -3c6 110 8 262 8 388c0 78 -1 228 -4 283h-19c-109 0 -161 -3 -196 -8c1 11 3 26 3 33c0 8 -2 24 -3 36c50 -3 173 -8 264 -8c92 0 232 5 282 8c-1 -12 -3 -28 -3 -36c0 -7 2 -22 3 -33c-35 5 -105 8 -214 8h-19z" />
    <glyph glyph-name="afii10145" unicode="&#x40f;" horiz-adv-x="818" 
d="M96 724c18 -1 44 -3 57 -3c9 0 33 2 49 3c-7 -55 -8 -226 -8 -339c0 -126 3 -280 5 -318c117 -8 165 -9 224 -9c55 0 97 3 196 9c3 73 5 208 5 318c0 113 -1 284 -8 339c18 -1 44 -3 57 -3c9 0 33 2 49 3c-7 -55 -8 -226 -8 -339c0 -126 2 -278 8 -388
c-43 2 -109 3 -189 3c-78 0 -108 -41 -108 -165h-32c0 124 -30 165 -108 165c-63 0 -155 -1 -189 -3c6 110 8 262 8 388c0 113 -1 284 -8 339z" />
    <glyph glyph-name="afii10099" unicode="&#x452;" horiz-adv-x="568" 
d="M68 785c17 -1 39 -3 51 -3c11 0 32 2 47 3c-3 -33 -6 -89 -7 -134h166c29 0 51 5 67 9c-1 -10 -2 -23 -2 -31c0 -5 1 -20 2 -31c-22 6 -44 8 -66 8h-169v-187c35 66 101 94 164 94c97 0 173 -61 173 -163c0 -25 -3 -68 -3 -100v-212c0 -164 -96 -253 -182 -253
c-40 0 -102 17 -131 40c9 16 24 52 32 73c31 -51 64 -73 97 -73c76 0 104 61 104 191v234c0 153 -46 206 -124 206c-122 0 -130 -124 -130 -219c0 -18 1 -164 9 -240c-15 2 -31 3 -46 3c-17 0 -37 -1 -52 -3c8 76 9 222 9 300v188c0 32 -1 101 -2 121c-43 0 -57 -2 -70 -8
c1 7 2 20 2 30c0 11 -1 22 -2 32c18 -7 39 -9 70 -9c-1 50 -3 100 -7 134z" />
    <glyph glyph-name="quoteleft" unicode="&#x2018;" horiz-adv-x="293" 
d="M211 735l25 -10l-68 -220c-13 -42 -30 -60 -54 -60c-26 0 -39 13 -39 38s15 53 29 76z" />
    <glyph glyph-name="quoteright" unicode="&#x2019;" horiz-adv-x="293" 
d="M104 445l-25 10l68 220c13 42 30 60 54 60c26 0 39 -13 39 -38s-15 -53 -29 -76z" />
    <glyph glyph-name="quotedblleft" unicode="&#x201c;" horiz-adv-x="450" 
d="M211 735l25 -10l-68 -220c-13 -42 -30 -60 -54 -60c-26 0 -39 13 -39 38s15 53 29 76zM365 735l25 -10l-68 -220c-13 -42 -30 -60 -54 -60c-26 0 -39 13 -39 38s15 53 29 76z" />
    <glyph glyph-name="quotedblright" unicode="&#x201d;" horiz-adv-x="450" 
d="M100 445l-25 10l68 220c13 42 30 60 54 60c26 0 39 -13 39 -38s-15 -53 -29 -76zM246 445l-25 10l68 220c13 42 30 60 54 60c26 0 39 -13 39 -38s-15 -53 -29 -76z" />
    <glyph glyph-name="bullet" unicode="&#x2022;" horiz-adv-x="762" 
d="M381 588c116 0 210 -95 210 -210s-94 -210 -210 -210c-117 0 -210 93 -210 210c0 113 95 210 210 210z" />
    <glyph glyph-name="endash" unicode="&#x2013;" horiz-adv-x="594" 
d="M562 292v-56h-530v56h530z" />
    <glyph glyph-name="emdash" unicode="&#x2014;" horiz-adv-x="792" 
d="M32 236v56h729v-56h-729z" />
    <glyph glyph-name="trademark" unicode="&#x2122;" horiz-adv-x="694" 
d="M10 721c36 -3 101 -5 143 -5c56 0 93 2 127 5c-1 -6 -2 -14 -2 -19s1 -12 2 -17c-19 3 -34 4 -52 4h-54c-2 -33 -3 -100 -3 -153c0 -63 1 -128 4 -182c-6 1 -19 2 -24 2c-9 0 -20 -1 -29 -2c3 54 4 119 4 182c0 58 -1 117 -3 153h-50c-21 0 -50 -2 -63 -4c1 6 2 16 2 19
s-1 11 -2 17zM312 716h10c43 -86 109 -213 154 -286c37 66 124 225 154 286h10c4 -45 29 -273 44 -362c-7 1 -18 2 -25 2c-9 0 -20 -1 -27 -2c-5 71 -20 220 -27 265c-33 -60 -105 -198 -137 -263h-10c-43 87 -90 182 -132 259c-8 -61 -25 -202 -25 -261c-6 1 -14 2 -19 2
c-7 0 -15 -1 -22 -2c15 67 43 287 52 362z" />
    <glyph glyph-name="afii10106" unicode="&#x459;" horiz-adv-x="757" 
d="M392 256l74 -216c16 -2 34 -4 56 -4c50 0 102 27 102 118c0 96 -84 116 -132 116c-39 0 -60 -3 -100 -14zM306 503l69 -204c41 6 81 10 117 10c124 0 227 -44 227 -153c0 -110 -94 -159 -228 -159c-13 0 -35 3 -48 3c-14 0 -41 -1 -61 -3c-25 98 -83 281 -130 404
c-47 -97 -147 -347 -153 -404c-15 1 -35 3 -45 3c-12 0 -31 -1 -42 -3c20 18 203 433 234 506c10 -2 25 -3 29 -3c6 0 21 1 31 3z" />
    <glyph glyph-name="guilsinglright" unicode="&#x203a;" horiz-adv-x="235" 
d="M24 392c23 6 40 19 52 42c27 -50 79 -126 120 -182c-39 -49 -96 -141 -120 -181c-14 17 -32 29 -55 35c21 28 88 125 101 146c-20 33 -69 103 -98 140z" />
    <glyph glyph-name="afii10107" unicode="&#x45a;" horiz-adv-x="856" 
d="M68 503c17 -1 39 -3 51 -3c11 0 32 2 47 3c-8 -76 -9 -202 -9 -207c42 -2 103 -4 135 -4c33 0 96 2 126 4c0 6 -1 132 -9 207c17 -1 39 -3 51 -3c11 0 32 2 47 3c-7 -71 -9 -179 -9 -200c34 1 65 3 98 3c132 0 222 -42 222 -151c0 -111 -94 -158 -221 -158
c-32 0 -86 3 -131 3c-18 0 -43 -1 -57 -3c8 76 9 211 9 243c-44 3 -104 7 -127 7c-27 0 -94 -2 -134 -5c0 -34 1 -169 9 -245c-15 2 -31 3 -46 3c-17 0 -37 -1 -52 -3c8 76 9 211 9 253c0 51 -1 178 -9 253zM498 260c0 -52 2 -173 5 -217c14 -4 47 -7 92 -7
c78 0 128 34 128 118c0 96 -74 113 -126 113c-33 0 -67 -2 -99 -7z" />
    <glyph glyph-name="afii10109" unicode="&#x45c;" horiz-adv-x="522" 
d="M68 503c17 -1 39 -3 51 -3c11 0 32 2 47 3c-8 -75 -9 -202 -9 -220h16c33 0 202 192 218 220c14 -1 37 -3 49 -3c10 0 34 2 49 3l-239 -214c30 -36 189 -215 261 -292c-27 2 -46 3 -60 3c-18 0 -45 -1 -66 -3c-37 58 -150 191 -212 259h-16c0 -37 1 -183 9 -259
c-15 2 -31 3 -46 3c-17 0 -37 -1 -52 -3c8 76 9 211 9 253c0 51 -1 178 -9 253zM267 537h-38c29 48 70 119 89 167c26 -4 45 -6 60 -6c12 0 30 2 55 6l5 -14c-60 -49 -118 -99 -171 -153z" />
    <glyph glyph-name="afii10108" unicode="&#x45b;" horiz-adv-x="568" 
d="M68 785c17 -1 39 -3 51 -3c11 0 32 2 47 3c-3 -33 -6 -89 -7 -134h166c29 0 51 5 67 9c-1 -10 -2 -23 -2 -31c0 -5 1 -20 2 -31c-22 6 -44 8 -66 8h-169v-187c35 66 101 94 164 94c97 0 173 -61 173 -163c0 -25 -3 -68 -3 -100c0 -42 1 -177 9 -253c-15 2 -31 3 -46 3
c-17 0 -37 -1 -52 -3c8 76 9 211 9 253c0 153 -46 206 -124 206c-122 0 -130 -124 -130 -219c0 -18 1 -164 9 -240c-15 2 -31 3 -46 3c-17 0 -37 -1 -52 -3c8 76 9 222 9 300v188c0 32 -1 101 -2 121c-43 0 -57 -2 -70 -8c1 7 2 20 2 30c0 11 -1 22 -2 32c18 -7 39 -9 70 -9
c-1 50 -3 100 -7 134z" />
    <glyph glyph-name="afii10193" unicode="&#x45f;" horiz-adv-x="569" 
d="M68 503c17 -1 39 -3 51 -3c11 0 32 2 47 3c-8 -75 -9 -201 -9 -253c0 -42 1 -135 5 -196c41 -5 80 -9 119 -9c43 0 85 3 126 9c4 59 5 154 5 196c0 51 -1 178 -9 253c17 -1 39 -3 51 -3c11 0 32 2 47 3c-8 -75 -9 -201 -9 -253c0 -42 1 -177 9 -253c-47 2 -101 3 -151 3
c-24 0 -49 -28 -49 -142h-33c0 114 -26 142 -59 142c-47 0 -105 -1 -141 -3c8 76 9 211 9 253c0 51 -1 178 -9 253z" />
    <glyph glyph-name="afii10062" unicode="&#x40e;" horiz-adv-x="704" 
d="M9 724c18 -2 45 -3 61 -3s43 1 61 3c34 -74 179 -329 261 -478c57 114 184 418 207 478c12 -2 32 -3 39 -3c8 0 33 1 48 3c-89 -172 -288 -596 -364 -765c-8 1 -25 3 -32 3c-10 0 -28 -2 -39 -3c25 45 74 140 96 191c-90 155 -290 511 -338 574zM544 937
c0 -31 7 -68 15 -92c-51 -33 -113 -56 -189 -56c-78 0 -125 20 -181 54c9 25 13 49 13 94h6c33 -74 69 -105 161 -105c88 0 135 33 169 105h6z" />
    <glyph glyph-name="afii10110" unicode="&#x45e;" horiz-adv-x="526" 
d="M12 503c18 -2 43 -3 62 -3c18 0 39 1 56 3c8 -69 92 -269 150 -397c46 105 142 351 142 397c17 -2 38 -3 51 -3s28 1 41 3c-26 -28 -306 -652 -312 -723c-13 2 -28 3 -41 3s-36 -1 -51 -3c32 45 106 184 122 218c-65 161 -184 439 -220 505zM145 700l2 2
c31 -52 81 -75 128 -75c49 0 100 19 133 75l4 -2c0 -29 6 -57 11 -73c-47 -24 -103 -37 -148 -37c-35 0 -97 12 -142 37c6 20 10 44 12 73z" />
    <glyph glyph-name="afii10057" unicode="&#x408;" horiz-adv-x="297" 
d="M95 724c18 -1 44 -3 57 -3c9 0 33 2 49 3c-6 -71 -7 -170 -7 -255v-261c0 -30 3 -99 3 -121c0 -124 -49 -232 -220 -241c0 15 -2 27 -5 38c129 15 132 91 132 326v258c0 78 -2 206 -9 256z" />
    <glyph glyph-name="currency" unicode="&#xa4;" 
d="M114 627l71 -71c52 43 107 51 148 51c51 0 93 -10 148 -51l69 71l34 -34l-72 -69c36 -43 50 -96 50 -145c0 -53 -15 -110 -50 -148l71 -71l-33 -32l-69 70c-57 -39 -106 -50 -149 -50s-91 9 -147 50l-71 -70l-32 32l70 71c-35 45 -49 94 -49 148c0 47 15 97 49 145
l-70 69zM332 555c-98 0 -177 -74 -177 -179c0 -104 82 -177 177 -177c99 0 179 74 179 178c0 101 -80 178 -179 178z" />
    <glyph glyph-name="afii10050" unicode="&#x490;" horiz-adv-x="521" 
d="M96 724c42 -2 98 -3 146 -3h100c79 0 100 22 100 112c0 6 -1 19 -2 28h31c0 -25 12 -159 18 -201c-63 6 -164 8 -209 8h-83c-2 -15 -3 -170 -3 -283c0 -126 2 -278 8 -388c-16 1 -42 3 -50 3c-12 0 -40 -2 -56 -3c6 110 8 262 8 388c0 113 -1 284 -8 339z" />
    <glyph glyph-name="brokenbar" unicode="&#xa6;" horiz-adv-x="528" 
d="M237 -232v474h53v-474h-53zM290 769v-474h-53v474h53z" />
    <glyph glyph-name="section" unicode="&#xa7;" horiz-adv-x="586" 
d="M468 666c-21 -30 -38 -69 -47 -93h-7c-18 68 -58 102 -118 102c-58 0 -109 -37 -109 -97c0 -59 43 -85 112 -112l84 -33c72 -28 111 -74 111 -146c0 -39 -12 -76 -52 -129c30 -35 36 -71 36 -100c0 -117 -97 -203 -223 -203c-45 0 -89 8 -151 41c10 39 16 74 16 119h7
c31 -84 88 -112 160 -112s132 46 132 114c0 54 -42 80 -97 103l-104 43c-73 30 -126 77 -126 152c0 41 12 85 64 135c-22 38 -27 67 -27 92c0 108 78 180 187 180c45 0 103 -15 152 -56zM178 424c-23 -29 -26 -53 -26 -67c0 -54 40 -81 72 -94l145 -61c16 -7 34 -16 44 -25
c15 21 23 48 23 66c0 54 -44 84 -86 101l-100 40c-17 6 -32 13 -44 21z" />
    <glyph glyph-name="afii10023" unicode="&#x401;" horiz-adv-x="528" 
d="M96 724c23 -2 99 -3 148 -3h111c19 0 84 3 123 8c-2 -10 -3 -22 -3 -33c0 -12 1 -26 3 -36c-63 6 -131 8 -196 8c-28 0 -71 -1 -82 -2c-3 -61 -6 -118 -6 -140v-123h76c100 0 129 3 181 9c-2 -9 -4 -25 -4 -35c0 -9 2 -23 4 -35c-28 5 -159 8 -257 8v-146
c0 -31 2 -123 4 -151h97c49 0 122 4 184 8c-1 -12 -3 -35 -3 -39c0 -5 1 -15 3 -25c-41 2 -115 3 -176 3h-74c-62 0 -101 -1 -133 -3c6 110 8 262 8 388c0 113 -1 284 -8 339zM187 896c34 0 54 -17 54 -53c0 -32 -20 -55 -54 -55s-54 23 -54 55c0 30 22 53 54 53zM377 896
c34 0 54 -17 54 -53c0 -32 -20 -55 -54 -55s-54 23 -54 55c0 30 22 53 54 53z" />
    <glyph glyph-name="copyright" unicode="&#xa9;" horiz-adv-x="528" 
d="M373 679c-4 -9 -9 -26 -11 -34h-6c-26 28 -57 35 -82 35c-80 0 -112 -68 -112 -136c0 -65 33 -129 112 -129c29 0 52 3 90 34l3 -4c-2 -7 -4 -19 -4 -26c-34 -20 -62 -23 -95 -23c-87 0 -151 54 -151 148c0 92 63 155 160 155c31 0 67 -3 96 -20zM265 795
c140 0 248 -109 248 -247c0 -124 -95 -248 -247 -248c-136 0 -247 108 -247 248c0 125 98 247 246 247zM266 758c-113 0 -210 -86 -210 -210c0 -116 90 -211 210 -211c118 0 210 99 210 211c0 117 -96 210 -210 210z" />
    <glyph glyph-name="afii10053" unicode="&#x404;" horiz-adv-x="705" 
d="M675 687l-25 -84h-16c-75 69 -140 86 -201 86c-164 0 -259 -124 -277 -280h154c57 0 190 4 265 8c-1 -12 -3 -30 -3 -35c0 -8 2 -23 3 -34c-86 5 -178 8 -265 8h-157c0 -154 86 -324 281 -324c39 0 137 22 219 86l8 -11l-10 -63l-29 -15c-57 -29 -126 -44 -205 -44
c-223 0 -372 141 -372 369c0 233 161 382 394 382c72 0 158 -9 236 -49z" />
    <glyph glyph-name="guillemotleft" unicode="&#xab;" horiz-adv-x="392" 
d="M365 392c-29 -37 -78 -107 -98 -140c13 -21 80 -118 101 -146c-23 -6 -41 -18 -55 -35c-24 40 -81 132 -120 181c41 56 93 132 120 182c12 -23 29 -36 52 -42zM213 392c-29 -37 -78 -107 -98 -140c13 -21 80 -118 101 -146c-23 -6 -41 -18 -55 -35
c-24 40 -81 132 -120 181c41 56 93 132 120 182c12 -23 29 -36 52 -42z" />
    <glyph glyph-name="logicalnot" unicode="&#xac;" horiz-adv-x="926" 
d="M736 292v-301h-54v245h-492v56h546z" />
    <glyph glyph-name="hyphen" unicode="-" horiz-adv-x="364" 
d="M18 292h332v-56h-332v56z" />
    <glyph glyph-name="hyphen" unicode="&#x2010;" horiz-adv-x="364" 
d="M18 292h332v-56h-332v56z" />
    <glyph glyph-name="hyphen" unicode="&#xad;" horiz-adv-x="364" 
d="M18 292h332v-56h-332v56z" />
    <glyph glyph-name="registered" unicode="&#xae;" horiz-adv-x="528" 
d="M170 695c16 -1 40 -2 47 -2c13 0 39 2 54 2c48 0 83 -25 83 -65c0 -42 -33 -73 -87 -79c37 -43 82 -106 117 -144c-7 1 -19 2 -27 2c-9 0 -19 -1 -26 -2c-32 47 -71 95 -108 140h-15c0 -47 1 -93 3 -140c-5 1 -14 2 -20 2c-7 0 -16 -1 -21 -2c2 47 3 101 3 149
s-1 102 -3 139zM208 672v-105h13c37 0 88 13 88 57c0 32 -22 50 -68 50c-9 0 -24 -1 -33 -2zM265 795c141 0 248 -111 248 -247c0 -138 -111 -248 -247 -248c-129 0 -247 96 -247 248c0 117 90 247 246 247zM266 758c-117 0 -210 -88 -210 -210c0 -121 96 -211 210 -211
c119 0 210 99 210 211c0 111 -90 210 -210 210z" />
    <glyph glyph-name="afii10056" unicode="&#x407;" horiz-adv-x="298" 
d="M93 724c18 -1 44 -3 57 -3c9 0 33 2 49 3c-7 -55 -8 -226 -8 -339c0 -126 2 -278 8 -388c-16 1 -42 3 -50 3c-12 0 -40 -2 -56 -3c6 110 8 262 8 388c0 113 -1 284 -8 339zM73 892c34 0 54 -17 54 -53c0 -32 -20 -55 -54 -55s-54 23 -54 55c0 30 22 53 54 53zM228 892
c34 0 54 -17 54 -53c0 -32 -20 -55 -54 -55s-54 23 -54 55c0 30 22 53 54 53z" />
    <glyph glyph-name="degree" unicode="&#xb0;" 
d="M296 712c92 0 169 -74 169 -168c0 -95 -75 -169 -169 -169c-91 0 -169 73 -169 168c0 91 74 169 169 169zM296 665c-65 0 -122 -47 -122 -122c0 -74 57 -121 122 -121c69 0 122 53 122 121c0 71 -57 122 -122 122z" />
    <glyph glyph-name="plusminus" unicode="&#xb1;" horiz-adv-x="939" 
d="M741 38v-56h-546v56h546zM441 393v245h54v-245h246v-56h-246v-246h-54v246h-246v56h246z" />
    <glyph glyph-name="afii10055" unicode="&#x406;" horiz-adv-x="298" 
d="M96 724c18 -1 44 -3 57 -3c9 0 33 2 49 3c-7 -55 -8 -226 -8 -339c0 -126 2 -278 8 -388c-16 1 -42 3 -50 3c-12 0 -40 -2 -56 -3c6 110 8 262 8 388c0 113 -1 284 -8 339z" />
    <glyph glyph-name="afii10103" unicode="&#x456;" horiz-adv-x="288" 
d="M93 503c17 -1 39 -3 51 -3c11 0 32 2 47 3c-8 -75 -9 -201 -9 -253c0 -42 1 -177 9 -253c-15 2 -31 3 -46 3c-17 0 -37 -1 -52 -3c8 76 9 211 9 253c0 51 -1 178 -9 253zM144 742c34 0 54 -17 54 -53c0 -32 -20 -55 -54 -55s-54 23 -54 55c0 30 22 53 54 53z" />
    <glyph glyph-name="afii10098" unicode="&#x491;" horiz-adv-x="430" 
d="M367 630h31c0 -44 2 -131 7 -192c-87 5 -163 7 -243 7c-3 -28 -5 -144 -5 -195c0 -42 1 -177 9 -253c-15 2 -31 3 -46 3c-17 0 -37 -1 -52 -3c8 76 9 211 9 253c0 51 -1 178 -9 253c40 -8 87 -10 140 -10h95c50 0 66 28 66 96c0 10 -1 31 -2 41z" />
    <glyph glyph-name="mu" unicode="&#xb5;" 
d="M161 506h101l-87 -286c-10 -32 -17 -65 -17 -89c0 -46 38 -73 83 -73c106 0 155 154 186 259l56 189h96l-76 -264c-21 -73 -39 -155 -39 -242h-95c0 29 1 68 3 86l-16 -23c-34 -52 -75 -78 -122 -78c-52 0 -80 24 -99 84l-90 -243h-109c62 137 96 238 138 381z" />
    <glyph glyph-name="mu" unicode="&#x3bc;" 
d="M161 506h101l-87 -286c-10 -32 -17 -65 -17 -89c0 -46 38 -73 83 -73c106 0 155 154 186 259l56 189h96l-76 -264c-21 -73 -39 -155 -39 -242h-95c0 29 1 68 3 86l-16 -23c-34 -52 -75 -78 -122 -78c-52 0 -80 24 -99 84l-90 -243h-109c62 137 96 238 138 381z" />
    <glyph glyph-name="paragraph" unicode="&#xb6;" 
d="M560 746h-71v-911h-41v911h-51v-911h-41v462c-150 21 -232 120 -232 241c0 185 153 251 339 251h97v-43z" />
    <glyph glyph-name="periodcentered" unicode="&#xb7;" horiz-adv-x="294" 
d="M148 416c33 0 61 -28 61 -63c0 -34 -30 -59 -61 -59c-36 0 -61 28 -61 61s26 61 61 61z" />
    <glyph glyph-name="periodcentered" unicode="&#x22c5;" horiz-adv-x="294" 
d="M148 416c33 0 61 -28 61 -63c0 -34 -30 -59 -61 -59c-36 0 -61 28 -61 61s26 61 61 61z" />
    <glyph glyph-name="periodcentered" unicode="&#x2219;" horiz-adv-x="294" 
d="M148 416c33 0 61 -28 61 -63c0 -34 -30 -59 -61 -59c-36 0 -61 28 -61 61s26 61 61 61z" />
    <glyph glyph-name="afii10071" unicode="&#x451;" horiz-adv-x="528" 
d="M470 104l9 -10l-12 -50c-65 -46 -128 -58 -182 -58c-152 0 -247 103 -247 259c0 155 80 268 242 268c140 0 213 -79 213 -237c0 -7 -1 -25 -2 -35c-38 4 -108 8 -125 8h-233c0 -148 57 -224 174 -224c69 0 117 29 163 79zM133 294h264v29c0 79 -48 151 -122 151
c-87 0 -133 -78 -142 -180zM172 698c34 0 54 -17 54 -53c0 -32 -20 -55 -54 -55s-54 23 -54 55c0 30 22 53 54 53zM366 698c34 0 54 -17 54 -53c0 -32 -20 -55 -54 -55s-54 23 -54 55c0 30 22 53 54 53z" />
    <glyph glyph-name="afii61352" unicode="&#x2116;" horiz-adv-x="1158" 
d="M103 721h28l521 -550v214c0 113 -1 284 -8 339c15 -2 32 -3 36 -3c6 0 26 2 35 3c-7 -55 -8 -226 -8 -339c0 -126 2 -289 8 -399h-28c-34 40 -100 115 -144 161l-377 394v-156c0 -126 2 -278 8 -388c-11 2 -24 3 -35 3c-10 0 -26 -1 -36 -3c6 110 8 262 8 388
c0 113 -1 281 -8 336zM940 707c92 0 149 -78 149 -171c0 -97 -55 -167 -149 -167c-97 0 -154 69 -154 168c0 95 63 170 154 170zM937 673c-54 0 -81 -41 -81 -125c0 -73 14 -145 82 -145c54 0 81 46 81 139c0 87 -27 131 -82 131zM1029 228h-186c-9 0 -22 -1 -35 -3
c2 10 4 23 4 30c0 6 -2 17 -4 26c13 -3 26 -4 35 -4h184c11 0 27 1 39 4c-2 -9 -3 -21 -3 -27c0 -7 1 -18 3 -29c-11 2 -25 3 -37 3z" />
    <glyph glyph-name="afii10101" unicode="&#x454;" horiz-adv-x="505" 
d="M482 469l-25 -75h-12c-35 57 -84 80 -139 80c-105 0 -159 -92 -171 -184h117c29 0 78 5 111 9c-1 -9 -2 -24 -2 -34s1 -20 2 -32c-36 5 -73 9 -109 9h-121c0 -123 75 -217 194 -217c51 0 89 18 136 69l9 -11l-12 -49c-48 -32 -102 -48 -164 -48c-153 0 -258 106 -258 263
c0 150 102 264 271 264c52 0 115 -12 173 -44z" />
    <glyph glyph-name="guillemotright" unicode="&#xbb;" horiz-adv-x="392" 
d="M26 392c23 6 40 19 52 42c27 -50 79 -126 120 -182c-39 -49 -96 -141 -120 -181c-14 17 -32 29 -55 35c21 28 88 125 101 146c-20 33 -69 103 -98 140zM178 392c23 6 40 19 52 42c27 -50 79 -126 120 -182c-39 -49 -96 -141 -120 -181c-14 17 -32 29 -55 35
c21 28 88 125 101 146c-20 33 -69 103 -98 140z" />
    <glyph glyph-name="afii10105" unicode="&#x458;" horiz-adv-x="293" 
d="M6 -216l-9 32l28 7c69 17 82 124 82 192v188c0 79 -1 224 -9 300c17 -1 39 -3 51 -3c11 0 32 2 47 3c-8 -76 -9 -221 -9 -300v-188c0 -105 -4 -200 -181 -231zM149 742c34 0 54 -17 54 -53c0 -32 -20 -55 -54 -55s-54 23 -54 55c0 30 22 53 54 53z" />
    <glyph glyph-name="afii10054" unicode="&#x405;" horiz-adv-x="528" 
d="M413 610l-13 -2c-33 61 -83 81 -133 81c-70 0 -125 -42 -125 -121c0 -77 46 -110 114 -136l93 -36c79 -30 122 -95 122 -176c0 -136 -108 -235 -253 -235c-52 0 -110 7 -170 64c6 19 16 56 17 76l13 2c48 -64 102 -95 164 -95c88 0 148 57 148 149c0 71 -54 114 -111 137
l-89 36c-85 34 -129 99 -129 185c0 130 102 197 218 197c57 0 110 -12 161 -51c-9 -22 -21 -55 -27 -75z" />
    <glyph glyph-name="afii10102" unicode="&#x455;" horiz-adv-x="411" 
d="M340 479c-10 -21 -22 -49 -30 -73c-31 55 -67 68 -103 68c-48 0 -85 -32 -85 -82c0 -62 52 -87 109 -101c87 -22 137 -49 137 -136c0 -96 -93 -169 -193 -169c-51 0 -96 14 -132 41c11 20 25 53 32 73c38 -62 77 -75 119 -75c58 0 104 34 104 92c0 66 -55 83 -118 100
c-78 21 -128 60 -128 141c0 94 69 155 170 155c53 0 84 -12 118 -34z" />
    <glyph glyph-name="afii10104" unicode="&#x457;" horiz-adv-x="288" 
d="M93 503c17 -1 39 -3 51 -3c11 0 32 2 47 3c-8 -75 -9 -201 -9 -253c0 -42 1 -177 9 -253c-15 2 -31 3 -46 3c-17 0 -37 -1 -52 -3c8 76 9 211 9 253c0 51 -1 178 -9 253zM54 742c34 0 54 -17 54 -53c0 -32 -20 -55 -54 -55s-54 23 -54 55c0 30 22 53 54 53zM230 742
c34 0 54 -17 54 -53c0 -32 -20 -55 -54 -55s-54 23 -54 55c0 30 22 53 54 53z" />
    <glyph glyph-name="afii10017" unicode="&#x410;" horiz-adv-x="704" 
d="M345 721h25c36 -90 245 -582 319 -723c-16 1 -43 2 -56 2s-42 -1 -58 -2c-28 67 -85 216 -111 272c-52 8 -104 9 -139 9c-38 0 -83 -2 -124 -9c-33 -67 -88 -220 -106 -272c-11 1 -26 2 -38 2c-14 0 -32 -1 -42 -2c76 130 297 649 330 723zM333 572l-101 -233
c24 -3 68 -7 101 -7c23 0 66 3 99 7c-21 56 -41 102 -99 233z" />
    <glyph glyph-name="afii10018" unicode="&#x411;" horiz-adv-x="645" 
d="M94 724c64 -3 170 -9 193 -9c56 0 170 5 235 9c-2 -12 -3 -31 -3 -36c0 -7 2 -23 3 -34c-58 8 -154 14 -184 14c-21 0 -102 -2 -146 -6v-251h51c104 0 323 -20 323 -201c0 -147 -123 -214 -285 -213c-18 0 -86 3 -129 3c-19 0 -42 -1 -58 -3c6 110 8 262 8 388
c0 113 -1 284 -8 339zM192 358v-303c26 -1 57 -2 85 -2c118 0 187 55 187 158c0 111 -82 147 -272 147z" />
    <glyph glyph-name="afii10019" unicode="&#x412;" horiz-adv-x="648" 
d="M96 724c25 -1 86 -3 102 -3c27 0 75 3 93 3c142 0 254 -27 254 -155c0 -91 -58 -142 -160 -177c143 -30 183 -96 183 -182c0 -147 -125 -213 -284 -213c-38 0 -98 3 -128 3c-13 0 -46 -2 -60 -3c6 110 8 262 8 388c0 113 -1 284 -8 339zM194 358v-303c22 -1 59 -2 85 -2
c102 0 187 43 187 158c0 90 -49 147 -244 147h-28zM194 666v-253c11 -1 29 -2 53 -2c111 0 196 46 196 138c0 85 -74 119 -165 119c-23 0 -63 -1 -84 -2z" />
    <glyph glyph-name="afii10020" unicode="&#x413;" horiz-adv-x="521" 
d="M96 724c42 -2 98 -3 146 -3h100c19 0 108 4 147 8c-2 -10 -3 -22 -3 -33c0 -12 1 -26 3 -36c-63 6 -164 8 -209 8h-83c-2 -15 -3 -170 -3 -283c0 -126 2 -278 8 -388c-16 1 -42 3 -50 3c-12 0 -40 -2 -56 -3c6 110 8 262 8 388c0 113 -1 284 -8 339z" />
    <glyph glyph-name="afii10021" unicode="&#x414;" horiz-adv-x="832" 
d="M407 721h25c85 -202 237 -552 289 -663l81 7l-21 -228h-31c0 134 -34 163 -91 163h-497c-62 0 -92 -31 -92 -163h-31l-21 229l88 -11c68 133 205 441 301 666zM395 574c-147 -347 -193 -458 -216 -518c26 -1 66 -3 85 -3h302c9 0 35 1 47 3c-107 270 -166 402 -218 518z
" />
    <glyph glyph-name="afii10022" unicode="&#x415;" horiz-adv-x="528" 
d="M96 724c23 -2 99 -3 148 -3h111c19 0 84 3 123 8c-2 -10 -3 -22 -3 -33c0 -12 1 -26 3 -36c-63 6 -131 8 -196 8c-28 0 -71 -1 -82 -2c-3 -61 -6 -118 -6 -140v-123h76c100 0 129 3 181 9c-2 -9 -4 -25 -4 -35c0 -9 2 -23 4 -35c-28 5 -159 8 -257 8v-146
c0 -31 2 -123 4 -151h97c49 0 122 4 184 8c-1 -12 -3 -35 -3 -39c0 -5 1 -15 3 -25c-41 2 -115 3 -176 3h-74c-62 0 -101 -1 -133 -3c6 110 8 262 8 388c0 113 -1 284 -8 339z" />
    <glyph glyph-name="afii10024" unicode="&#x416;" horiz-adv-x="990" 
d="M450 391c0 107 -1 278 -8 333c18 -1 44 -3 57 -3c9 0 33 2 49 3c-7 -55 -8 -226 -8 -333c96 72 297 295 330 333c14 -1 39 -3 50 -3c10 0 39 1 54 3c-87 -78 -244 -226 -340 -326l351 -401c-20 2 -48 3 -62 3c-19 0 -55 -1 -71 -3c-64 90 -246 305 -312 366
c0 -104 3 -278 8 -366c-16 1 -42 3 -50 3c-12 0 -40 -2 -56 -3c5 88 8 262 8 366c-66 -61 -248 -276 -312 -366c-16 2 -52 3 -71 3c-14 0 -42 -1 -62 -3l351 401c-96 100 -253 248 -340 326c15 -2 44 -3 54 -3c11 0 36 2 50 3c33 -38 234 -261 330 -333z" />
    <glyph glyph-name="afii10025" unicode="&#x417;" horiz-adv-x="574" 
d="M82 595l-16 3c-6 23 -17 58 -24 73c46 45 121 65 196 65c124 0 249 -39 249 -181c0 -64 -26 -139 -162 -172c139 -21 193 -93 193 -181c0 -146 -137 -217 -274 -217c-70 0 -151 14 -219 76c8 23 15 51 17 76l14 2c57 -76 116 -107 190 -107c109 0 170 59 170 170
c0 95 -68 151 -178 151c-19 0 -39 -1 -86 -7c2 10 3 20 3 31c0 12 -1 24 -4 34c5 -1 62 -8 89 -8c87 0 152 71 152 150c0 85 -81 136 -154 136c-76 0 -119 -27 -156 -94z" />
    <glyph glyph-name="afii10026" unicode="&#x418;" horiz-adv-x="850" 
d="M96 724c18 -1 44 -3 57 -3c9 0 33 2 49 3c-7 -55 -8 -226 -8 -339v-224c126 126 391 401 513 563c6 -2 14 -3 21 -3c6 0 17 1 26 3c-7 -55 -8 -226 -8 -339c0 -126 2 -278 8 -388c-16 1 -42 3 -50 3c-12 0 -40 -2 -56 -3c6 110 8 262 8 388v165
c-157 -145 -396 -410 -518 -553c-5 2 -15 3 -22 3s-15 -1 -20 -3c6 110 8 262 8 388c0 113 -1 284 -8 339z" />
    <glyph glyph-name="afii10027" unicode="&#x419;" horiz-adv-x="850" 
d="M96 724c18 -1 44 -3 57 -3c9 0 33 2 49 3c-7 -55 -8 -226 -8 -339v-224c126 126 391 401 513 563c6 -2 14 -3 21 -3c6 0 17 1 26 3c-7 -55 -8 -226 -8 -339c0 -126 2 -278 8 -388c-16 1 -42 3 -50 3c-12 0 -40 -2 -56 -3c6 110 8 262 8 388v165
c-157 -145 -396 -410 -518 -553c-5 2 -15 3 -22 3s-15 -1 -20 -3c6 110 8 262 8 388c0 113 -1 284 -8 339zM617 937c0 -31 7 -68 15 -92c-51 -33 -113 -56 -189 -56c-78 0 -125 20 -181 54c9 25 13 49 13 94h6c33 -74 69 -105 161 -105c88 0 135 33 169 105h6z" />
    <glyph glyph-name="afii10028" unicode="&#x41a;" horiz-adv-x="645" 
d="M202 724c-7 -55 -8 -226 -8 -333c85 64 256 250 329 333c17 -1 38 -3 53 -3s38 2 52 3c-95 -87 -231 -215 -340 -326c86 -103 258 -300 350 -401c-21 2 -43 3 -65 3c-17 0 -50 -1 -67 -3c-81 111 -208 254 -312 367c0 -105 2 -257 8 -367c-16 1 -42 3 -50 3
c-12 0 -40 -2 -56 -3c6 110 8 262 8 388c0 113 -1 284 -8 339c18 -1 44 -3 57 -3c9 0 33 2 49 3z" />
    <glyph glyph-name="afii10029" unicode="&#x41b;" horiz-adv-x="704" 
d="M345 721h25c36 -90 245 -582 319 -723c-16 1 -43 2 -56 2s-42 -1 -58 -2c-55 142 -173 421 -242 574c-37 -81 -168 -376 -238 -574c-11 1 -26 2 -38 2c-14 0 -32 -1 -42 -2c76 130 297 649 330 723z" />
    <glyph glyph-name="afii10030" unicode="&#x41c;" horiz-adv-x="939" 
d="M146 721h20c48 -101 250 -485 307 -572c82 153 207 382 310 572h19c22 -216 66 -594 87 -724c-16 2 -33 3 -49 3c-15 0 -37 -1 -53 -3c-6 77 -39 402 -55 531c-40 -66 -185 -347 -273 -528h-19c-56 116 -179 359 -266 519c-15 -93 -52 -406 -52 -522c-12 2 -26 3 -38 3
c-14 0 -31 -1 -42 -3c27 137 85 563 104 724z" />
    <glyph glyph-name="afii10031" unicode="&#x41d;" horiz-adv-x="819" 
d="M202 724c-7 -55 -8 -226 -8 -305c105 -5 189 -7 234 -7c43 0 113 2 197 8c0 78 -1 249 -8 304c18 -1 44 -3 57 -3c9 0 33 2 49 3c-7 -55 -8 -226 -8 -339c0 -126 2 -278 8 -388c-16 1 -42 3 -50 3c-12 0 -40 -2 -56 -3c6 110 8 275 8 354c-84 6 -147 8 -202 8
c-59 0 -124 -2 -229 -8c0 -81 2 -244 8 -354c-16 1 -42 3 -50 3c-12 0 -40 -2 -56 -3c6 110 8 262 8 388c0 113 -1 284 -8 339c18 -1 44 -3 57 -3c9 0 33 2 49 3z" />
    <glyph glyph-name="afii10032" unicode="&#x41e;" horiz-adv-x="877" 
d="M439 736c224 0 393 -137 393 -365c0 -220 -166 -386 -400 -386c-221 0 -387 138 -387 370c0 227 168 381 394 381zM441 689c-178 0 -288 -125 -288 -334c0 -172 93 -323 283 -323c172 0 288 128 288 336c0 194 -98 321 -283 321z" />
    <glyph glyph-name="afii10033" unicode="&#x41f;" horiz-adv-x="837" 
d="M96 724c91 -7 229 -9 327 -9c82 0 220 2 318 9c-7 -55 -8 -226 -8 -339c0 -126 2 -278 8 -388c-16 1 -42 3 -50 3c-12 0 -40 -2 -56 -3c6 110 8 262 8 388c0 112 -2 233 -4 269c-71 5 -120 8 -216 8c-88 0 -161 -3 -225 -8c-3 -36 -4 -156 -4 -269c0 -126 2 -278 8 -388
c-16 1 -42 3 -50 3c-12 0 -40 -2 -56 -3c6 110 8 262 8 388c0 113 -1 284 -8 339z" />
    <glyph glyph-name="afii10034" unicode="&#x420;" horiz-adv-x="605" 
d="M96 724c33 -1 78 -3 101 -3c35 0 80 3 106 3c185 0 257 -56 257 -182c0 -163 -137 -215 -300 -215c-9 0 -47 2 -66 4v-173c0 -50 2 -111 8 -161c-17 2 -34 3 -51 3c-18 0 -39 -1 -55 -3c6 110 8 262 8 388c0 113 -1 284 -8 339zM194 384c12 -2 32 -4 42 -4
c140 0 222 56 222 162c0 99 -78 126 -175 126c-17 0 -75 -1 -89 -3v-281z" />
    <glyph glyph-name="afii10035" unicode="&#x421;" horiz-adv-x="705" 
d="M675 687l-25 -84h-16c-74 67 -140 86 -201 86c-199 0 -280 -169 -280 -334c0 -159 86 -323 281 -323c64 0 140 17 219 86l8 -11l-10 -63c-82 -46 -155 -59 -234 -59c-221 0 -372 140 -372 369c0 234 158 382 394 382c73 0 161 -10 236 -49z" />
    <glyph glyph-name="afii10036" unicode="&#x422;" horiz-adv-x="578" 
d="M338 668c-3 -55 -4 -205 -4 -283c0 -126 2 -278 8 -388c-16 1 -42 3 -50 3c-12 0 -40 -2 -56 -3c6 110 8 262 8 388c0 78 -1 228 -4 283h-19c-109 0 -161 -3 -196 -8c1 11 3 26 3 33c0 8 -2 24 -3 36c50 -3 173 -8 264 -8c92 0 214 5 264 8c-1 -12 -3 -28 -3 -36
c0 -7 2 -22 3 -33c-35 5 -87 8 -196 8h-19z" />
    <glyph glyph-name="afii10037" unicode="&#x423;" horiz-adv-x="704" 
d="M9 724c18 -2 45 -3 61 -3s43 1 61 3c34 -74 179 -329 261 -478c57 114 184 418 207 478c12 -2 32 -3 39 -3c8 0 33 1 48 3c-89 -172 -288 -596 -364 -765c-8 1 -25 3 -32 3c-10 0 -28 -2 -39 -3c25 45 74 140 96 191c-90 155 -290 511 -338 574z" />
    <glyph glyph-name="afii10038" unicode="&#x424;" horiz-adv-x="952" 
d="M423 762c18 -1 44 -3 57 -3c9 0 33 2 49 3l-5 -82c203 0 383 -103 383 -302c0 -191 -180 -318 -382 -318l4 -91c-16 1 -42 3 -50 3c-12 0 -40 -2 -56 -3l4 91c-202 0 -382 127 -382 316c0 201 180 304 383 304zM428 99c2 41 3 239 3 305c0 46 -1 206 -2 237
c-163 0 -276 -106 -276 -265c0 -146 113 -277 275 -277zM523 641c-1 -31 -2 -191 -2 -237c0 -66 1 -264 3 -305c162 0 275 131 275 277c0 157 -113 265 -276 265z" />
    <glyph glyph-name="afii10039" unicode="&#x425;" horiz-adv-x="645" 
d="M51 724c27 -2 45 -3 67 -3c9 0 39 1 53 3c38 -73 121 -218 160 -281c64 94 154 242 173 281c14 -2 33 -3 46 -3s28 1 39 3c-43 -53 -153 -214 -227 -326c36 -66 181 -304 247 -401c-22 2 -47 3 -66 3c-17 0 -40 -2 -59 -3c-40 85 -119 224 -176 321
c-63 -99 -146 -238 -190 -321c-12 2 -26 3 -39 3s-33 -1 -46 -3c40 55 225 331 244 368c-29 51 -197 325 -226 359z" />
    <glyph glyph-name="afii10040" unicode="&#x426;" horiz-adv-x="818" 
d="M96 724c18 -1 44 -3 57 -3c9 0 33 2 49 3c-7 -55 -8 -226 -8 -339c0 -126 3 -280 5 -318c117 -8 165 -9 224 -9c55 0 97 3 196 9c3 73 5 208 5 318c0 113 -1 284 -8 339c18 -1 44 -3 57 -3c9 0 33 2 49 3c-7 -55 -8 -226 -8 -339c0 -110 1 -246 5 -329l80 7l-22 -228h-30
c0 157 -33 165 -167 165h-295c-63 0 -155 -1 -189 -3c6 110 8 262 8 388c0 113 -1 284 -8 339z" />
    <glyph glyph-name="afii10041" unicode="&#x427;" horiz-adv-x="718" 
d="M516 724c18 -1 44 -3 57 -3c9 0 33 2 49 3c-7 -55 -8 -226 -8 -339c0 -126 2 -278 8 -388c-16 1 -42 3 -50 3c-12 0 -40 -2 -56 -3c6 110 8 262 8 331c-64 -34 -119 -56 -185 -56c-180 0 -259 105 -259 241c0 57 -1 156 -7 211c18 -1 44 -3 57 -3c9 0 33 2 49 3
c-5 -35 -7 -143 -7 -179c0 -136 45 -217 174 -217c66 0 153 15 178 75c0 95 -1 266 -8 321z" />
    <glyph glyph-name="afii10042" unicode="&#x428;" horiz-adv-x="1162" 
d="M96 724c18 -1 44 -3 57 -3c9 0 33 2 49 3c-7 -55 -8 -226 -8 -339c0 -126 2 -254 5 -317c64 -7 133 -10 193 -10h139c4 114 5 201 5 327c0 113 -1 284 -8 339c18 -1 44 -3 57 -3c9 0 33 2 49 3c-7 -55 -8 -226 -8 -339c0 -126 1 -213 5 -327h128c79 0 157 3 204 10
c4 111 5 191 5 317c0 113 -1 284 -8 339c18 -1 44 -3 57 -3c9 0 33 2 49 3c-7 -55 -8 -226 -8 -339c0 -126 2 -278 8 -388c-25 2 -107 3 -150 3c-48 0 -233 -3 -329 -3s-257 3 -385 3c-36 0 -84 -1 -106 -3c6 110 8 262 8 388c0 113 -1 284 -8 339z" />
    <glyph glyph-name="afii10043" unicode="&#x429;" horiz-adv-x="1162" 
d="M96 724c18 -1 44 -3 57 -3c9 0 33 2 49 3c-7 -55 -8 -226 -8 -339c0 -126 2 -254 5 -317c64 -7 133 -10 193 -10h139c4 114 5 201 5 327c0 113 -1 284 -8 339c18 -1 44 -3 57 -3c9 0 33 2 49 3c-7 -55 -8 -226 -8 -339c0 -126 1 -213 5 -327h128c79 0 157 3 204 10
c4 111 5 191 5 317c0 113 -1 284 -8 339c18 -1 44 -3 57 -3c9 0 33 2 49 3c-7 -55 -8 -226 -8 -339c0 -110 1 -246 5 -329l80 7l-22 -228h-30c0 157 -33 165 -167 165c-48 0 -241 -3 -337 -3s-257 3 -385 3c-36 0 -84 -1 -106 -3c6 110 8 262 8 388c0 113 -1 284 -8 339z
" />
    <glyph glyph-name="afii10044" unicode="&#x42a;" horiz-adv-x="697" 
d="M299 724c-7 -55 -8 -226 -8 -313c14 2 38 4 52 4c113 0 322 -9 322 -204c0 -145 -116 -214 -284 -214c-22 0 -71 3 -93 3c-31 0 -70 -1 -95 -3c6 110 8 262 8 388c0 84 -1 226 -4 277c-24 -1 -145 -3 -175 -7c1 8 2 26 2 36c0 15 -1 25 -2 33c61 -3 168 -7 174 -7
c8 0 80 4 103 7zM291 354c0 -95 2 -201 5 -299c24 -1 62 -2 80 -2c120 0 187 56 187 162c0 119 -86 147 -222 147c-10 0 -37 -3 -50 -8z" />
    <glyph glyph-name="afii10045" unicode="&#x42b;" horiz-adv-x="894" 
d="M96 724c18 -1 44 -3 57 -3c9 0 33 2 49 3c-7 -55 -8 -226 -8 -313c14 2 38 4 52 4c113 0 322 -9 322 -204c0 -145 -116 -214 -284 -214c-22 0 -71 3 -93 3c-31 0 -70 -1 -95 -3c6 110 8 262 8 388c0 113 -1 284 -8 339zM194 354c0 -95 2 -201 5 -299c24 -1 62 -2 80 -2
c120 0 187 56 187 162c0 119 -86 147 -222 147c-10 0 -37 -3 -50 -8zM692 724c18 -1 44 -3 57 -3c9 0 33 2 49 3c-7 -55 -8 -226 -8 -339c0 -126 2 -278 8 -388c-16 1 -42 3 -50 3c-12 0 -40 -2 -56 -3c6 110 8 262 8 388c0 113 -1 284 -8 339z" />
    <glyph glyph-name="afii10046" unicode="&#x42c;" horiz-adv-x="600" 
d="M96 724c18 -1 44 -3 57 -3c9 0 33 2 49 3c-7 -55 -8 -226 -8 -313c14 2 38 4 52 4c113 0 322 -9 322 -204c0 -145 -116 -214 -284 -214c-22 0 -71 3 -93 3c-31 0 -70 -1 -95 -3c6 110 8 262 8 388c0 113 -1 284 -8 339zM194 354c0 -95 2 -201 5 -299c24 -1 62 -2 80 -2
c120 0 187 56 187 162c0 119 -86 147 -222 147c-10 0 -37 -3 -50 -8z" />
    <glyph glyph-name="afii10047" unicode="&#x42d;" horiz-adv-x="704" 
d="M92 604h-16c-6 29 -17 65 -24 84c80 42 156 48 235 48c236 0 372 -141 372 -369c0 -233 -154 -382 -394 -382c-54 0 -162 26 -206 70c8 32 10 63 10 88c55 -77 156 -111 216 -111c183 0 263 159 263 324h-180c-68 0 -145 -3 -216 -8c2 11 3 27 3 34c0 5 -1 24 -3 35
c78 -4 193 -8 278 -8h119c-15 141 -69 280 -253 280c-52 0 -144 -9 -204 -85z" />
    <glyph glyph-name="afii10048" unicode="&#x42e;" horiz-adv-x="1132" 
d="M96 724c18 -1 44 -3 57 -3c9 0 33 2 49 3c-7 -55 -8 -226 -8 -306c18 -1 38 -2 58 -2c18 0 39 1 54 2c6 88 92 318 388 318c225 0 393 -131 393 -365c0 -231 -174 -386 -400 -386c-227 0 -386 152 -386 370v9c-17 1 -36 2 -55 2c-17 0 -38 -1 -52 -2
c0 -105 2 -257 8 -367c-16 1 -42 3 -50 3c-12 0 -40 -2 -56 -3c6 110 8 262 8 388c0 113 -1 284 -8 339zM697 689c-177 0 -296 -126 -296 -333c0 -177 104 -324 290 -324c198 0 288 155 288 336c0 169 -85 321 -282 321z" />
    <glyph glyph-name="afii10049" unicode="&#x42f;" horiz-adv-x="648" 
d="M454 343h-39c-77 -80 -203 -250 -270 -346c-21 2 -44 3 -65 3c-17 0 -52 -1 -70 -3c73 81 212 248 291 346c-122 11 -195 87 -195 185c0 100 68 196 224 196c28 0 85 -3 108 -3c13 0 85 1 114 3c-7 -55 -8 -226 -8 -339c0 -126 2 -278 8 -388c-16 1 -42 3 -50 3
c-12 0 -40 -2 -56 -3c6 110 8 261 8 346zM450 663c-30 6 -66 13 -107 13c-76 0 -144 -43 -144 -120c0 -109 104 -162 197 -162c8 0 45 2 58 4c0 100 -1 215 -4 265z" />
    <glyph glyph-name="afii10065" unicode="&#x430;" horiz-adv-x="511" 
d="M82 382v62c39 48 111 69 171 69c105 0 178 -52 178 -177v-248c0 -51 11 -63 32 -63c7 0 18 2 24 4l6 -24c-32 -16 -62 -19 -75 -19c-33 0 -54 15 -62 44l-6 22c-54 -43 -113 -66 -162 -66c-91 0 -150 48 -150 132c0 90 67 132 159 149l102 19c34 6 52 16 52 41
c0 109 -46 137 -122 137c-59 0 -103 -17 -135 -82h-12zM351 101v154l-66 -10c-72 -11 -152 -36 -152 -112c0 -58 32 -89 97 -89c40 0 80 14 121 57z" />
    <glyph glyph-name="afii10066" unicode="&#x431;" horiz-adv-x="589" 
d="M497 796h31l-25 -63c-26 -66 -71 -78 -127 -86c-189 -26 -221 -101 -221 -216v-29c29 63 104 111 175 111c126 0 221 -90 221 -253c0 -144 -84 -274 -245 -274c-175 0 -238 104 -238 342c0 122 23 210 129 322c51 53 112 89 214 98c45 4 86 19 86 48zM308 468
c-109 0 -145 -122 -145 -221c0 -97 35 -216 142 -216c102 0 151 95 151 226c0 123 -43 211 -148 211z" />
    <glyph glyph-name="afii10067" unicode="&#x432;" horiz-adv-x="523" 
d="M68 503c20 -2 45 -3 66 -3c34 0 96 3 123 3c127 0 199 -46 199 -123c0 -73 -66 -106 -116 -114v-6c57 -8 138 -21 138 -121c0 -117 -149 -142 -216 -142c-33 0 -88 3 -110 3c-20 0 -61 -1 -84 -3c8 76 9 211 9 253c0 51 -1 178 -9 253zM157 283c14 -1 53 -5 89 -5
c76 0 117 35 117 96c0 46 -44 90 -115 90c-34 0 -57 -3 -86 -9c-3 -44 -5 -143 -5 -172zM157 234c0 -26 1 -116 5 -188c31 -7 62 -10 93 -10c76 0 130 41 130 111c0 64 -58 92 -139 92c-35 0 -77 -2 -89 -5z" />
    <glyph glyph-name="afii10068" unicode="&#x433;" horiz-adv-x="430" 
d="M405 502c-1 -7 -2 -23 -2 -34c0 -12 1 -22 2 -30c-87 5 -163 7 -243 7c-3 -28 -5 -144 -5 -195c0 -42 1 -177 9 -253c-15 2 -31 3 -46 3c-17 0 -37 -1 -52 -3c8 76 9 211 9 253c0 51 -1 178 -9 253c40 -8 87 -10 140 -10c44 0 136 4 197 9z" />
    <glyph glyph-name="afii10069" unicode="&#x434;" horiz-adv-x="622" 
d="M15 61l67 -9c73 153 139 309 202 463c11 -2 25 -3 34 -3c12 0 25 1 37 3c30 -73 149 -355 198 -458l54 4l-15 -203h-35c3 20 4 46 4 57c0 76 -32 85 -55 85h-374c-43 0 -67 -3 -67 -105c0 -11 1 -28 2 -37h-37zM157 52c44 -2 116 -5 143 -5c25 0 102 4 152 8
c-42 127 -95 251 -152 372c-53 -123 -103 -247 -143 -375z" />
    <glyph glyph-name="afii10070" unicode="&#x435;" horiz-adv-x="528" 
d="M470 104l9 -10l-12 -50c-65 -46 -128 -58 -182 -58c-152 0 -247 103 -247 259c0 155 80 268 242 268c140 0 213 -79 213 -237c0 -7 -1 -25 -2 -35c-38 4 -108 8 -125 8h-233c0 -148 57 -224 174 -224c69 0 117 29 163 79zM133 294h264v29c0 79 -48 151 -122 151
c-87 0 -133 -78 -142 -180z" />
    <glyph glyph-name="afii10072" unicode="&#x436;" horiz-adv-x="810" 
d="M356 503c17 -1 39 -3 51 -3c11 0 32 2 47 3c-8 -75 -9 -202 -9 -220h16c33 0 202 192 218 220c14 -1 37 -3 49 -3c10 0 34 2 49 3l-239 -214c30 -36 189 -215 261 -292c-27 2 -46 3 -60 3c-18 0 -45 -1 -66 -3c-37 58 -150 191 -212 259h-16c0 -37 1 -183 9 -259
c-15 2 -31 3 -46 3c-17 0 -37 -1 -52 -3c8 76 9 208 9 259h-16c-62 -68 -175 -201 -212 -259c-21 2 -48 3 -66 3c-14 0 -33 -1 -60 -3c72 77 231 256 261 292l-239 214c15 -1 39 -3 49 -3c12 0 35 2 49 3c16 -28 185 -220 218 -220h16c0 18 -1 145 -9 220z" />
    <glyph glyph-name="afii10073" unicode="&#x437;" horiz-adv-x="482" 
d="M81 409c-5 15 -19 39 -27 50c51 31 116 54 175 54c68 0 188 -28 188 -120c0 -57 -26 -100 -97 -114v-7c83 -17 124 -52 124 -121c0 -127 -151 -165 -242 -165c-55 0 -131 22 -167 57c14 18 24 44 31 73c27 -42 84 -91 149 -91c66 0 132 43 132 119c0 67 -58 101 -133 101
c-18 0 -44 -3 -63 -7c2 9 4 25 4 31s-2 22 -4 32c19 -4 45 -8 64 -8c65 0 105 28 105 91c0 65 -42 90 -97 90c-42 0 -84 -12 -142 -65z" />
    <glyph glyph-name="afii10074" unicode="&#x438;" horiz-adv-x="593" 
d="M129 -3c-9 2 -18 3 -29 3c-6 0 -24 -2 -32 -3c8 76 9 211 9 253c0 51 -1 178 -9 253c17 -1 39 -3 51 -3c11 0 32 2 47 3c-8 -75 -9 -201 -9 -253c0 -42 1 -101 2 -129c55 67 251 316 298 382c11 -2 18 -3 30 -3c6 0 27 2 38 3c-8 -75 -9 -201 -9 -253
c0 -42 1 -177 9 -253c-15 2 -31 3 -46 3c-17 0 -37 -1 -52 -3c8 76 9 211 9 253c0 52 -1 116 -2 137c-68 -69 -248 -305 -305 -390z" />
    <glyph glyph-name="afii10075" unicode="&#x439;" horiz-adv-x="593" 
d="M129 -3c-9 2 -18 3 -29 3c-6 0 -24 -2 -32 -3c8 76 9 211 9 253c0 51 -1 178 -9 253c17 -1 39 -3 51 -3c11 0 32 2 47 3c-8 -75 -9 -201 -9 -253c0 -42 1 -101 2 -129c55 67 251 316 298 382c11 -2 18 -3 30 -3c6 0 27 2 38 3c-8 -75 -9 -201 -9 -253
c0 -42 1 -177 9 -253c-15 2 -31 3 -46 3c-17 0 -37 -1 -52 -3c8 76 9 211 9 253c0 52 -1 116 -2 137c-68 -69 -248 -305 -305 -390zM175 689l2 2c31 -52 81 -75 128 -75c49 0 100 19 133 75l4 -2c0 -29 6 -57 11 -73c-47 -24 -103 -37 -148 -37c-35 0 -97 12 -142 37
c6 20 10 44 12 73z" />
    <glyph glyph-name="afii10076" unicode="&#x43a;" horiz-adv-x="522" 
d="M68 503c17 -1 39 -3 51 -3c11 0 32 2 47 3c-8 -75 -9 -202 -9 -220h16c33 0 202 192 218 220c14 -1 37 -3 49 -3c10 0 34 2 49 3l-239 -214c30 -36 189 -215 261 -292c-27 2 -46 3 -60 3c-18 0 -45 -1 -66 -3c-37 58 -150 191 -212 259h-16c0 -37 1 -183 9 -259
c-15 2 -31 3 -46 3c-17 0 -37 -1 -52 -3c8 76 9 211 9 253c0 51 -1 178 -9 253z" />
    <glyph glyph-name="afii10077" unicode="&#x43b;" horiz-adv-x="528" 
d="M233 503c9 -2 21 -3 30 -3c11 0 24 1 34 3c21 -55 175 -445 219 -506c-14 1 -44 3 -58 3c-8 0 -38 -2 -51 -3c-47 140 -100 276 -161 399c-42 -95 -126 -298 -148 -399c-15 2 -36 3 -45 3c-10 0 -26 -1 -41 -3c66 115 167 357 221 506z" />
    <glyph glyph-name="afii10078" unicode="&#x43c;" horiz-adv-x="680" 
d="M652 -3c-17 1 -34 3 -51 3c-13 0 -39 -1 -47 -3c0 117 -15 256 -28 358c-51 -95 -129 -255 -178 -358c-7 2 -13 3 -19 3c-5 0 -16 -1 -22 -3c-53 121 -123 234 -187 350c-7 -54 -18 -318 -18 -350c-11 2 -27 3 -37 3c-15 0 -25 -1 -37 -3c27 120 59 444 59 506
c7 -1 18 -3 27 -3c8 0 17 1 24 3c29 -79 162 -323 209 -397c63 118 182 363 193 397c9 -2 20 -3 28 -3s17 1 25 3c10 -111 44 -406 59 -506z" />
    <glyph glyph-name="afii10079" unicode="&#x43d;" horiz-adv-x="575" 
d="M68 503c17 -1 39 -3 51 -3c11 0 32 2 47 3c-8 -76 -9 -202 -9 -207c42 -2 103 -4 135 -4c33 0 96 2 126 4c0 6 -1 132 -9 207c17 -1 39 -3 51 -3c11 0 32 2 47 3c-8 -75 -9 -201 -9 -253c0 -42 1 -177 9 -253c-15 2 -31 3 -46 3c-17 0 -37 -1 -52 -3c8 76 9 211 9 243
c-44 3 -104 7 -127 7c-27 0 -94 -2 -134 -5c0 -34 1 -169 9 -245c-15 2 -31 3 -46 3c-17 0 -37 -1 -52 -3c8 76 9 211 9 253c0 51 -1 178 -9 253z" />
    <glyph glyph-name="afii10080" unicode="&#x43e;" horiz-adv-x="582" 
d="M297 513c152 0 247 -110 247 -260c0 -153 -99 -267 -256 -267c-154 0 -250 113 -250 253c0 166 106 274 259 274zM294 474c-108 0 -161 -113 -161 -232c0 -113 47 -217 153 -217c102 0 163 98 163 232c0 108 -42 217 -155 217z" />
    <glyph glyph-name="afii10081" unicode="&#x43f;" horiz-adv-x="565" 
d="M68 503c38 -3 97 -6 123 -6h187c26 0 82 3 119 6c-8 -75 -9 -201 -9 -253c0 -42 1 -177 9 -253c-15 2 -31 3 -46 3c-17 0 -37 -1 -52 -3c8 76 9 211 9 253c0 52 -1 138 -4 193c-35 3 -82 4 -122 4c-33 0 -82 -1 -121 -3c-3 -71 -4 -143 -4 -194c0 -42 1 -177 9 -253
c-15 2 -31 3 -46 3c-17 0 -37 -1 -52 -3c8 76 9 211 9 253c0 51 -1 178 -9 253z" />
    <glyph glyph-name="afii10082" unicode="&#x440;" horiz-adv-x="585" 
d="M68 503c17 -1 39 -3 51 -3c11 0 32 2 47 3c-2 -17 -6 -81 -6 -89c46 65 91 99 171 99c132 0 216 -101 216 -250c0 -134 -65 -277 -233 -277c-60 0 -104 10 -157 79c0 -63 1 -209 9 -285c-15 2 -31 3 -46 3c-17 0 -37 -1 -52 -3c8 76 9 222 9 300v123c0 79 -1 224 -9 300z
M306 468c-116 0 -149 -117 -149 -229c0 -105 33 -208 146 -208c96 0 149 73 149 219c0 144 -47 218 -146 218z" />
    <glyph glyph-name="afii10083" unicode="&#x441;" horiz-adv-x="505" 
d="M482 469l-25 -75h-12c-35 57 -84 80 -139 80c-117 0 -173 -113 -173 -223c0 -127 70 -226 194 -226c41 0 78 6 136 69l9 -11l-12 -49c-48 -32 -102 -48 -164 -48c-156 0 -258 109 -258 263c0 161 110 264 271 264c52 0 109 -10 173 -44z" />
    <glyph glyph-name="afii10084" unicode="&#x442;" horiz-adv-x="480" 
d="M460 502c-2 -12 -3 -24 -3 -35s1 -21 3 -28c-31 1 -98 2 -126 2h-54v-191c0 -42 1 -177 9 -253c-15 2 -31 3 -46 3c-17 0 -37 -1 -52 -3c8 76 9 211 9 253v191h-54c-28 0 -95 -1 -126 -2c2 7 3 17 3 28s-1 23 -3 35c42 -4 111 -9 137 -9h166c26 0 95 5 137 9z" />
    <glyph glyph-name="afii10085" unicode="&#x443;" horiz-adv-x="526" 
d="M12 503c18 -2 43 -3 62 -3c18 0 39 1 56 3c8 -69 92 -269 150 -397c46 105 142 351 142 397c17 -2 38 -3 51 -3s28 1 41 3c-26 -28 -306 -652 -312 -723c-13 2 -28 3 -41 3s-36 -1 -51 -3c32 45 106 184 122 218c-65 161 -184 439 -220 505z" />
    <glyph glyph-name="afii10086" unicode="&#x444;" horiz-adv-x="836" 
d="M369 718c17 -1 39 -3 51 -3c11 0 32 2 47 3c-8 -76 -9 -221 -9 -279c36 48 93 74 161 74c90 0 179 -106 179 -256c0 -133 -80 -271 -205 -271c-50 0 -95 14 -135 65c0 -50 1 -196 9 -272c-15 2 -31 3 -46 3c-17 0 -37 -1 -52 -3c8 76 9 222 9 272
c-42 -51 -92 -65 -143 -65c-124 0 -197 136 -197 270c0 149 90 257 183 257c69 0 121 -26 157 -74c0 58 -1 203 -9 279zM458 376v-266c25 -47 67 -78 121 -78s129 70 129 217c0 146 -43 217 -134 217c-60 0 -86 -32 -116 -90zM378 110v266c-30 58 -54 90 -115 90
c-89 0 -135 -71 -135 -217c0 -147 76 -217 129 -217c55 0 101 34 121 78z" />
    <glyph glyph-name="afii10087" unicode="&#x445;" horiz-adv-x="504" 
d="M15 503c19 -2 45 -3 61 -3c13 0 33 1 48 3c26 -47 94 -143 133 -195c49 62 113 151 138 195c12 -2 28 -3 38 -3c12 0 26 1 37 3c-35 -39 -153 -183 -187 -230c41 -58 160 -218 209 -276c-18 2 -38 3 -56 3c-14 0 -46 -1 -65 -3c-22 48 -89 146 -139 211
c-25 -31 -125 -175 -147 -211c-12 2 -25 3 -36 3c-7 0 -26 -1 -37 -3c39 49 166 211 194 247c-41 60 -150 208 -191 259z" />
    <glyph glyph-name="afii10088" unicode="&#x446;" horiz-adv-x="591" 
d="M553 -145h-32c3 22 4 40 4 56c0 78 -31 89 -72 89c-69 0 -126 -3 -147 -3s-119 3 -178 3c-17 0 -43 -2 -60 -3c8 76 9 211 9 253c0 51 -1 178 -9 253c17 -1 39 -3 51 -3c11 0 32 2 47 3c-8 -75 -9 -201 -9 -253c0 -42 1 -135 5 -196c41 -5 80 -9 119 -9c43 0 85 3 126 9
c4 59 5 154 5 196c0 51 -1 178 -9 253c17 -1 39 -3 51 -3c11 0 32 2 47 3c-8 -75 -9 -201 -9 -253c0 -42 1 -143 5 -198l71 5z" />
    <glyph glyph-name="afii10089" unicode="&#x447;" horiz-adv-x="570" 
d="M404 503c17 -1 39 -3 51 -3c11 0 32 2 47 3c-8 -75 -9 -201 -9 -253c0 -42 1 -177 9 -253c-15 2 -31 3 -46 3c-17 0 -37 -1 -52 -3c8 76 9 211 9 220c-26 -21 -74 -47 -146 -47c-97 0 -191 67 -191 170c0 9 -1 88 -8 163c17 -1 39 -3 51 -3c11 0 32 2 47 3
c-5 -48 -7 -105 -7 -115c0 -92 35 -165 139 -165c45 0 84 8 115 44c0 35 -1 161 -9 236z" />
    <glyph glyph-name="afii10090" unicode="&#x448;" horiz-adv-x="804" 
d="M68 503c17 -1 39 -3 51 -3c11 0 32 2 47 3c-8 -75 -9 -201 -9 -253c0 -42 1 -144 5 -196c29 -7 64 -9 100 -9c34 0 66 3 95 9c4 68 5 131 5 196c0 51 -1 178 -9 253c17 -1 39 -3 51 -3c11 0 32 2 47 3c-8 -75 -9 -201 -9 -253c0 -42 2 -161 5 -197c37 -6 67 -8 94 -8
c30 0 56 2 101 8c4 57 5 155 5 197c0 51 -1 178 -9 253c17 -1 39 -3 51 -3c11 0 32 2 47 3c-8 -75 -9 -201 -9 -253c0 -42 1 -177 9 -253c-25 2 -54 3 -82 3c-65 0 -165 -3 -252 -3c-58 0 -157 3 -243 3c-30 0 -71 -1 -91 -3c8 76 9 211 9 253c0 51 -1 178 -9 253z" />
    <glyph glyph-name="afii10091" unicode="&#x449;" horiz-adv-x="826" 
d="M68 503c17 -1 39 -3 51 -3c11 0 32 2 47 3c-8 -75 -9 -201 -9 -253c0 -42 1 -144 5 -196c29 -7 64 -9 100 -9c34 0 66 3 95 9c4 68 5 131 5 196c0 51 -1 178 -9 253c17 -1 39 -3 51 -3c11 0 32 2 47 3c-8 -75 -9 -201 -9 -253c0 -42 2 -161 5 -197c37 -6 67 -8 94 -8
c30 0 56 2 101 8c4 57 5 155 5 197c0 51 -1 178 -9 253c17 -1 39 -3 51 -3c11 0 32 2 47 3c-8 -75 -9 -201 -9 -253c0 -42 1 -143 5 -198l71 5l-15 -202h-32c3 22 4 40 4 56c0 78 -31 89 -72 89c-50 0 -199 -3 -286 -3c-58 0 -157 3 -243 3c-30 0 -71 -1 -91 -3
c8 76 9 211 9 253c0 51 -1 178 -9 253z" />
    <glyph glyph-name="afii10092" unicode="&#x44a;" horiz-adv-x="590" 
d="M13 503c12 -2 43 -3 76 -3h105c11 0 32 2 47 3c-7 -71 -9 -179 -9 -200c34 1 65 3 98 3c132 0 222 -42 222 -151c0 -111 -94 -158 -221 -158c-32 0 -86 3 -131 3c-18 0 -43 -1 -57 -3c8 76 9 211 9 253c0 40 -2 168 -4 198c-11 2 -37 3 -45 3c-4 0 -73 -2 -90 -9
c2 9 4 25 4 32c0 8 -2 20 -4 29zM232 260c0 -52 2 -173 5 -217c14 -4 47 -7 92 -7c78 0 128 34 128 118c0 96 -74 113 -126 113c-33 0 -67 -2 -99 -7z" />
    <glyph glyph-name="afii10093" unicode="&#x44b;" horiz-adv-x="721" 
d="M68 503c17 -1 39 -3 51 -3c11 0 32 2 47 3c-7 -71 -9 -179 -9 -200c34 1 65 3 98 3c132 0 222 -42 222 -151c0 -111 -94 -158 -221 -158c-32 0 -86 3 -131 3c-18 0 -43 -1 -57 -3c8 76 9 211 9 253c0 51 -1 178 -9 253zM157 260c0 -52 2 -173 5 -217c14 -4 47 -7 92 -7
c78 0 128 34 128 118c0 96 -74 113 -126 113c-33 0 -67 -2 -99 -7zM555 503c17 -1 39 -3 51 -3c11 0 32 2 47 3c-8 -75 -9 -201 -9 -253c0 -42 1 -177 9 -253c-15 2 -31 3 -46 3c-17 0 -37 -1 -52 -3c8 76 9 211 9 253c0 51 -1 178 -9 253z" />
    <glyph glyph-name="afii10094" unicode="&#x44c;" horiz-adv-x="515" 
d="M68 503c17 -1 39 -3 51 -3c11 0 32 2 47 3c-7 -71 -9 -179 -9 -200c34 1 65 3 98 3c132 0 222 -42 222 -151c0 -111 -94 -158 -221 -158c-32 0 -86 3 -131 3c-18 0 -43 -1 -57 -3c8 76 9 211 9 253c0 51 -1 178 -9 253zM157 260c0 -52 2 -173 5 -217c14 -4 47 -7 92 -7
c78 0 128 34 128 118c0 96 -74 113 -126 113c-33 0 -67 -2 -99 -7z" />
    <glyph glyph-name="afii10095" unicode="&#x44d;" horiz-adv-x="505" 
d="M53 400l-25 69c52 32 112 44 188 44c155 0 251 -111 251 -264c0 -149 -89 -263 -253 -263c-62 0 -124 4 -182 39c9 23 21 65 24 83c33 -51 89 -81 147 -81c95 0 174 81 174 209h-120c-36 0 -77 -4 -110 -8c1 9 2 26 2 32s-1 22 -2 33c33 -4 86 -8 110 -8h120
c0 100 -59 195 -169 195c-79 0 -117 -35 -147 -80h-8z" />
    <glyph glyph-name="afii10096" unicode="&#x44e;" horiz-adv-x="785" 
d="M157 287h85c16 138 120 226 258 226c152 0 247 -110 247 -260c0 -153 -99 -267 -257 -267c-155 0 -250 112 -250 256h-83c0 -34 1 -169 9 -245c-15 2 -31 3 -46 3c-17 0 -37 -1 -52 -3c8 76 9 211 9 253c0 51 -1 178 -9 253c17 -1 39 -3 51 -3c11 0 32 2 47 3
c-8 -75 -9 -203 -9 -216zM335 242c0 -113 48 -217 153 -217c103 0 164 98 164 232c0 108 -42 217 -155 217c-108 0 -162 -113 -162 -232z" />
    <glyph glyph-name="afii10097" unicode="&#x44f;" horiz-adv-x="520" 
d="M363 269c0 33 -1 117 -5 182c-24 12 -45 17 -83 17c-78 0 -119 -36 -119 -101c0 -88 64 -111 131 -111c26 0 65 10 76 13zM363 221c-10 -2 -28 -4 -42 -4c-45 -53 -152 -190 -174 -220c-17 2 -43 3 -61 3c-20 0 -43 -1 -61 -3c52 47 167 172 207 220
c-83 0 -169 53 -169 144c0 81 61 152 188 152c37 0 115 -13 136 -13c18 0 51 1 65 3c-8 -75 -9 -201 -9 -253c0 -42 1 -177 9 -253c-15 2 -31 3 -46 3c-17 0 -37 -1 -52 -3c8 77 9 217 9 224z" />
    <glyph glyph-name="nbspace" horiz-adv-x="292" 
 />
    </font>
</defs>
</svg>
