<svg width="175" height="182" viewBox="0 0 175 182" fill="none" xmlns="http://www.w3.org/2000/svg">
<path fill-rule="evenodd" clip-rule="evenodd" d="M53.5804 76.8856V68.8278H50.0484C46.7129 68.8278 44.0059 66.1216 44.0059 62.7854V21.975C44.0059 18.6388 46.7129 15.9326 50.0484 15.9326H167.959C171.294 15.9326 174.001 18.6388 174.001 21.975V62.7854C174.001 66.1216 171.294 68.8278 167.959 68.8278H69.2288L53.5804 76.8856ZM57.2128 64.7746C56.8103 64.4618 56.3047 64.2756 55.7558 64.2756H50.0484C49.2267 64.2756 48.5581 63.6071 48.5581 62.7854V21.975C48.5581 21.1533 49.2267 20.4848 50.0484 20.4848H167.959C168.78 20.4848 169.449 21.1533 169.449 21.975V62.7854C169.449 63.6071 168.78 64.2756 167.959 64.2756H68.7015C68.3227 64.2756 67.9505 64.3657 67.6134 64.5393L58.1326 69.4212V66.6525C58.1326 65.8889 57.7724 65.2094 57.2128 64.7746Z" fill="#175A33"/>
<path fill-rule="evenodd" clip-rule="evenodd" d="M90.1084 141.641H26.9993V153.187C26.9993 156.19 29.435 158.639 32.4244 158.639H91.5041C88.9018 151.73 89.1134 146.258 90.1084 141.641ZM22.3081 96.6192L20.0795 95.3271C19.1521 95.4554 18.2404 95.7976 17.4075 96.3469C15.3567 97.7043 13.9971 100.075 13.844 102.515C13.7022 104.788 14.6499 106.801 16.3292 107.769L22.3081 111.233V96.6192ZM136.818 143.102C136.42 126.219 132.985 95.6355 115.116 75.0899V100.322C117.083 102.389 118.983 104.543 120.755 106.839C121.543 107.859 121.353 109.336 120.331 110.128C119.314 110.923 117.848 110.734 117.052 109.714C109.956 100.547 100.824 93.3844 91.3037 86.253C84.9151 81.0823 79.6949 82.3361 77.1422 84.9609C74.3283 87.8715 73.4234 93.4655 78.1034 98.8816L93.485 116.724C100.272 124.58 98.2326 130.914 96.2516 137.035C94.2594 143.235 92.6971 149.416 97.143 159.956C97.8341 161.594 97.0957 163.319 95.0338 163.319H77.5856L82.9432 171.526C86.4369 176.882 90.8355 179.09 102.955 174.552L123.755 166.738C134.79 162.601 136.818 155.535 136.818 143.102ZM21.6485 72.3593C21.6485 72.3593 15.2959 68.6743 15.2824 68.6743C14.7669 68.3839 13.5829 68.1295 12.374 68.2083C11.1652 68.2871 9.92262 68.6878 8.78357 69.4262C6.40418 70.9592 4.83517 73.6942 4.6821 76.5351C4.54253 79.2296 5.74011 81.636 7.77734 82.8404H7.79084L22.3058 91.2211V72.6047C22.083 72.5574 21.8624 72.4786 21.6485 72.3593ZM22.3081 48.8986C21.3716 48.4168 20.3024 48.2052 19.2241 48.275C18.0175 48.3628 16.7704 48.7702 15.6471 49.5131C13.2587 51.0551 11.6852 53.7902 11.5321 56.6175C11.4038 59.3121 12.5879 61.7117 13.6211 62.3105L22.3081 67.3304V48.8986ZM104.999 4.67775H32.4244C29.435 4.67775 26.9971 7.11342 26.9971 10.1164V46.8591C27.1456 47.316 27.1456 47.809 26.9971 48.2885V136.961H91.3758C91.402 136.875 91.4284 136.789 91.4548 136.703C91.5687 136.33 91.6839 135.954 91.799 135.601C93.7326 129.609 95.009 125.649 89.9441 119.787L74.5624 101.941C68.2549 94.6383 69.3939 86.2463 73.779 81.7171C78.0223 77.3432 85.9709 75.9048 94.1874 82.5612C99.8151 86.782 105.339 91.0456 110.438 95.7503V65.6283H115.118V68.3839L115.505 68.6428C137.088 90.2262 141.055 124.521 141.498 143.048C141.498 157.02 138.86 166.074 125.401 171.126L104.601 178.935C99.7475 180.751 95.6798 181.679 92.1839 181.679C86.4887 181.679 82.3624 179.193 79.0331 174.081L71.9962 163.319H32.4244C26.844 163.319 22.3193 158.772 22.3193 153.189V116.645L14.0173 111.834C14.0083 111.825 13.9971 111.825 13.9836 111.825C10.769 109.961 8.92989 106.294 9.17526 102.231C9.40712 98.3661 11.5659 94.6158 14.8142 92.4525L14.8161 92.4516C14.8649 92.4295 14.9094 92.4092 14.956 92.3737L5.47223 86.8856H5.44747C1.87275 84.7966 -0.216254 80.7559 0.0178582 76.2987C0.242966 71.9857 2.63586 67.8482 6.2466 65.5003C7.16954 64.9038 8.14201 64.4468 9.13924 64.1204C7.55898 61.9953 6.71483 59.2738 6.8679 56.3811C7.08851 52.0726 9.47015 47.9351 13.0921 45.5782C15.9645 43.7188 19.2939 43.1515 22.3081 43.9124V10.1164C22.3081 4.53818 26.844 0 32.4244 0H104.999C110.58 0 115.118 4.53593 115.118 10.1164V16.6919H110.438V10.1164C110.438 7.11342 108 4.67775 104.999 4.67775Z" fill="#175A33"/>
<path d="M82.1908 39.5357C86.1339 39.5357 89.0379 40.3217 90.9029 41.8936C92.7946 43.4655 93.7404 45.5703 93.7404 48.2079C93.7404 49.9131 93.3141 51.4717 92.4615 52.8837C91.609 54.2691 90.3035 55.3881 88.5451 56.2407C86.8133 57.0666 84.6685 57.4796 82.1109 57.4796C80.1393 57.4796 78.1944 57.2265 76.2761 56.7203C74.3845 56.1874 72.7726 55.4414 71.4405 54.4823L73.9982 49.5267C75.0639 50.326 76.2894 50.9521 77.6749 51.405C79.0603 51.8313 80.4857 52.0445 81.951 52.0445C83.5762 52.0445 84.855 51.7248 85.7875 51.0853C86.72 50.4459 87.1863 49.5534 87.1863 48.4077C87.1863 47.2088 86.6934 46.303 85.7076 45.6902C84.7485 45.0774 83.07 44.771 80.6722 44.771H73.5186L74.9573 29.0252H92.0219V34.2205H80.3524L79.9128 39.5357H82.1908ZM108.356 57.4796C106.038 57.4796 103.974 56.9068 102.162 55.7611C100.35 54.6155 98.9248 52.9636 97.8857 50.8056C96.8733 48.6209 96.3671 46.0232 96.3671 43.0126C96.3671 40.002 96.8733 37.4177 97.8857 35.2596C98.9248 33.0749 100.35 31.4097 102.162 30.2641C103.974 29.1185 106.038 28.5457 108.356 28.5457C110.674 28.5457 112.739 29.1185 114.551 30.2641C116.362 31.4097 117.774 33.0749 118.787 35.2596C119.826 37.4177 120.345 40.002 120.345 43.0126C120.345 46.0232 119.826 48.6209 118.787 50.8056C117.774 52.9636 116.362 54.6155 114.551 55.7611C112.739 56.9068 110.674 57.4796 108.356 57.4796ZM108.356 52.0045C110.061 52.0045 111.394 51.2718 112.353 49.8065C113.338 48.3411 113.831 46.0765 113.831 43.0126C113.831 39.9487 113.338 37.6841 112.353 36.2187C111.394 34.7534 110.061 34.0207 108.356 34.0207C106.678 34.0207 105.346 34.7534 104.36 36.2187C103.401 37.6841 102.921 39.9487 102.921 43.0126C102.921 46.0765 103.401 48.3411 104.36 49.8065C105.346 51.2718 106.678 52.0045 108.356 52.0045ZM133.522 47.8483V50.0862H142.154V53.4032H133.522V57H127.008V53.4032H123.131V50.0862H127.008V29.0252H139.117C142.927 29.0252 145.898 29.8245 148.029 31.4231C150.187 33.0216 151.266 35.3662 151.266 38.4567C151.266 41.5206 150.187 43.8519 148.029 45.4504C145.898 47.049 142.927 47.8483 139.117 47.8483H133.522ZM144.712 38.4967C144.712 37.1379 144.219 36.0988 143.233 35.3795C142.274 34.6601 140.889 34.3005 139.077 34.3005H133.522V42.7728H139.077C140.889 42.7728 142.274 42.4132 143.233 41.6938C144.219 40.9478 144.712 39.8821 144.712 38.4967Z" fill="#175A33"/>
</svg>
