<svg width="189" height="182" viewBox="0 0 189 182" fill="none" xmlns="http://www.w3.org/2000/svg">
<path fill-rule="evenodd" clip-rule="evenodd" d="M53.5804 76.8856V68.8278H50.0484C46.7129 68.8278 44.0059 66.1216 44.0059 62.7854V21.975C44.0059 18.6388 46.7129 15.9326 50.0484 15.9326H181.959C185.294 15.9326 188.001 18.6388 188.001 21.975V62.7854C188.001 66.1216 185.294 68.8278 181.959 68.8278H69.2288L53.5804 76.8856ZM57.2128 64.7746C56.8103 64.4618 56.3047 64.2756 55.7558 64.2756H50.0484C49.2267 64.2756 48.5581 63.6071 48.5581 62.7854V21.975C48.5581 21.1533 49.2267 20.4848 50.0484 20.4848H181.959C182.78 20.4848 183.449 21.1533 183.449 21.975V62.7854C183.449 63.6071 182.78 64.2756 181.959 64.2756H68.7015C68.3227 64.2756 67.9505 64.3657 67.6134 64.5393L58.1326 69.4212V66.6525C58.1326 65.8889 57.7724 65.2094 57.2128 64.7746Z" fill="#C6F99D"/>
<path fill-rule="evenodd" clip-rule="evenodd" d="M90.1083 141.641H26.9993V153.187C26.9993 156.19 29.4349 158.639 32.4244 158.639H91.504C88.9018 151.73 89.1134 146.258 90.1083 141.641ZM22.308 96.6192L20.0794 95.3271C19.152 95.4554 18.2403 95.7976 17.4074 96.3469C15.3567 97.7043 13.997 100.075 13.8439 102.515C13.7021 104.788 14.6498 106.801 16.3291 107.769L22.308 111.233V96.6192ZM136.818 143.102C136.42 126.219 132.985 95.6355 115.116 75.0899V100.322C117.083 102.389 118.983 104.543 120.755 106.839C121.542 107.859 121.353 109.336 120.331 110.128C119.314 110.923 117.848 110.734 117.052 109.714C109.956 100.547 100.823 93.3844 91.3037 86.253C84.9151 81.0823 79.6948 82.3361 77.1421 84.9609C74.3283 87.8715 73.4233 93.4655 78.1033 98.8816L93.485 116.724C100.272 124.58 98.2325 130.914 96.2515 137.035C94.2593 143.235 92.6971 149.416 97.143 159.956C97.8341 161.594 97.0957 163.319 95.0337 163.319H77.5856L82.9431 171.526C86.4368 176.882 90.8354 179.09 102.955 174.552L123.755 166.738C134.79 162.601 136.818 155.535 136.818 143.102ZM21.6484 72.3593C21.6484 72.3593 15.2959 68.6743 15.2824 68.6743C14.7669 68.3839 13.5828 68.1295 12.374 68.2083C11.1652 68.2871 9.92256 68.6878 8.78352 69.4262C6.40412 70.9592 4.83512 73.6942 4.68204 76.5351C4.54248 79.2296 5.74005 81.636 7.77728 82.8404H7.79079L22.3058 91.2211V72.6047C22.0829 72.5574 21.8623 72.4786 21.6484 72.3593ZM22.308 48.8986C21.3716 48.4168 20.3023 48.2052 19.224 48.275C18.0175 48.3628 16.7704 48.7702 15.6471 49.5131C13.2587 51.0551 11.6852 53.7902 11.5321 56.6175C11.4038 59.3121 12.5878 61.7117 13.6211 62.3105L22.308 67.3304V48.8986ZM104.999 4.67775H32.4244C29.4349 4.67775 26.997 7.11342 26.997 10.1164V46.8591C27.1456 47.316 27.1456 47.809 26.997 48.2885V136.961H91.3757C91.402 136.875 91.4284 136.789 91.4548 136.703C91.5687 136.33 91.6838 135.954 91.7989 135.601C93.7326 129.609 95.0089 125.649 89.944 119.787L74.5624 101.941C68.2548 94.6383 69.3939 86.2463 73.779 81.7171C78.0223 77.3432 85.9709 75.9048 94.1873 82.5612C99.815 86.782 105.339 91.0456 110.438 95.7503V65.6283H115.118V68.3839L115.505 68.6428C137.088 90.2262 141.055 124.521 141.498 143.048C141.498 157.02 138.86 166.074 125.401 171.126L104.601 178.935C99.7475 180.751 95.6798 181.679 92.1838 181.679C86.4886 181.679 82.3624 179.193 79.033 174.081L71.9961 163.319H32.4244C26.8439 163.319 22.3193 158.772 22.3193 153.189V116.645L14.0173 111.834C14.0083 111.825 13.997 111.825 13.9835 111.825C10.769 109.961 8.92984 106.294 9.1752 102.231C9.40706 98.3661 11.5659 94.6158 14.8142 92.4525L14.8161 92.4516C14.8648 92.4295 14.9093 92.4092 14.956 92.3737L5.47218 86.8856H5.44741C1.87269 84.7966 -0.216309 80.7559 0.0178032 76.2987C0.242911 71.9857 2.63581 67.8482 6.24654 65.5003C7.16949 64.9038 8.14196 64.4468 9.13918 64.1204C7.55893 61.9953 6.71477 59.2738 6.86785 56.3811C7.08845 52.0726 9.47009 47.9351 13.0921 45.5782C15.9645 43.7188 19.2938 43.1515 22.308 43.9124V10.1164C22.308 4.53818 26.8439 0 32.4244 0H104.999C110.58 0 115.118 4.53593 115.118 10.1164V16.6919H110.438V10.1164C110.438 7.11342 108 4.67775 104.999 4.67775Z" fill="#C6F99D"/>
<path d="M73.6678 57.4796C71.7229 57.4796 69.7913 57.2265 67.873 56.7203C65.9548 56.1874 64.3296 55.4414 62.9974 54.4823L65.5152 49.5267C66.5809 50.2994 67.8197 50.9122 69.2318 51.3651C70.6439 51.818 72.0692 52.0445 73.5079 52.0445C75.1331 52.0445 76.412 51.7248 77.3445 51.0853C78.277 50.4459 78.7432 49.5667 78.7432 48.4477C78.7432 47.382 78.3303 46.5428 77.5043 45.93C76.6784 45.3172 75.3463 45.0108 73.5079 45.0108H70.5506V40.7347L78.3436 31.9026L79.0629 34.2205H64.3962V29.0252H83.9785V33.2214L76.2255 42.0535L72.9485 40.1752H74.8268C78.2637 40.1752 80.8613 40.9478 82.6197 42.4931C84.3781 44.0384 85.2574 46.0232 85.2574 48.4477C85.2574 50.0196 84.8444 51.4983 84.0185 52.8837C83.1925 54.2425 81.927 55.3482 80.2219 56.2007C78.5168 57.0533 76.3321 57.4796 73.6678 57.4796ZM100.236 57.4796C97.9445 57.4796 95.893 56.9201 94.0813 55.8011C92.2696 54.6554 90.8442 53.0036 89.8051 50.8455C88.7661 48.6875 88.2465 46.0765 88.2465 43.0126C88.2465 39.9487 88.7661 37.3377 89.8051 35.1797C90.8442 33.0216 92.2696 31.3831 94.0813 30.2641C95.893 29.1185 97.9445 28.5457 100.236 28.5457C102.554 28.5457 104.605 29.1185 106.39 30.2641C108.202 31.3831 109.627 33.0216 110.666 35.1797C111.705 37.3377 112.225 39.9487 112.225 43.0126C112.225 46.0765 111.705 48.6875 110.666 50.8455C109.627 53.0036 108.202 54.6554 106.39 55.8011C104.605 56.9201 102.554 57.4796 100.236 57.4796ZM100.236 52.0045C101.328 52.0045 102.274 51.6981 103.073 51.0853C103.899 50.4726 104.539 49.5001 104.991 48.168C105.471 46.8358 105.711 45.1174 105.711 43.0126C105.711 40.9078 105.471 39.1894 104.991 37.8573C104.539 36.5251 103.899 35.5527 103.073 34.9399C102.274 34.3271 101.328 34.0207 100.236 34.0207C99.17 34.0207 98.2242 34.3271 97.3983 34.9399C96.599 35.5527 95.9596 36.5251 95.48 37.8573C95.0271 39.1894 94.8006 40.9078 94.8006 43.0126C94.8006 45.1174 95.0271 46.8358 95.48 48.168C95.9596 49.5001 96.599 50.4726 97.3983 51.0853C98.2242 51.6981 99.17 52.0045 100.236 52.0045ZM127.36 57.4796C125.068 57.4796 123.017 56.9201 121.205 55.8011C119.394 54.6554 117.968 53.0036 116.929 50.8455C115.89 48.6875 115.371 46.0765 115.371 43.0126C115.371 39.9487 115.89 37.3377 116.929 35.1797C117.968 33.0216 119.394 31.3831 121.205 30.2641C123.017 29.1185 125.068 28.5457 127.36 28.5457C129.678 28.5457 131.729 29.1185 133.514 30.2641C135.326 31.3831 136.751 33.0216 137.79 35.1797C138.829 37.3377 139.349 39.9487 139.349 43.0126C139.349 46.0765 138.829 48.6875 137.79 50.8455C136.751 53.0036 135.326 54.6554 133.514 55.8011C131.729 56.9201 129.678 57.4796 127.36 57.4796ZM127.36 52.0045C128.452 52.0045 129.398 51.6981 130.197 51.0853C131.023 50.4726 131.662 49.5001 132.115 48.168C132.595 46.8358 132.835 45.1174 132.835 43.0126C132.835 40.9078 132.595 39.1894 132.115 37.8573C131.662 36.5251 131.023 35.5527 130.197 34.9399C129.398 34.3271 128.452 34.0207 127.36 34.0207C126.294 34.0207 125.348 34.3271 124.522 34.9399C123.723 35.5527 123.084 36.5251 122.604 37.8573C122.151 39.1894 121.925 40.9078 121.925 43.0126C121.925 45.1174 122.151 46.8358 122.604 48.168C123.084 49.5001 123.723 50.4726 124.522 51.0853C125.348 51.6981 126.294 52.0045 127.36 52.0045ZM146.011 57V29.0252H158.12C161.85 29.0252 164.808 29.8112 166.992 31.3831C169.177 32.955 170.269 35.3129 170.269 38.4567C170.269 41.5739 169.177 43.9185 166.992 45.4904C164.808 47.0623 161.85 47.8483 158.12 47.8483H149.608L152.525 44.9708V57H146.011ZM152.525 45.6502L149.608 42.7728H158.08C159.865 42.7728 161.251 42.4132 162.237 41.6938C163.222 40.9478 163.715 39.8821 163.715 38.4967C163.715 37.1379 163.222 36.0988 162.237 35.3795C161.251 34.6601 159.865 34.3005 158.08 34.3005H149.608L152.525 31.2232V45.6502ZM142.135 53.4032V50.0862H161.158V53.4032H142.135Z" fill="#C6F99D"/>
</svg>
