<svg width="291" height="261" viewBox="0 0 291 261" fill="none" xmlns="http://www.w3.org/2000/svg">
<path fill-rule="evenodd" clip-rule="evenodd" d="M76.7757 110.167V98.6214H71.7147C66.9355 98.6214 63.0566 94.7438 63.0566 89.9634V31.4876C63.0566 26.7072 66.9355 22.8296 71.7147 22.8296H282.218C286.997 22.8296 290.876 26.7072 290.876 31.4876V89.9634C290.876 94.7438 286.997 98.6214 282.218 98.6214H99.1977L76.7757 110.167ZM81.9805 92.8137C81.4038 92.3655 80.6793 92.0986 79.8928 92.0986H71.7147C70.5374 92.0986 69.5794 91.1408 69.5794 89.9634V31.4876C69.5794 30.3102 70.5374 29.3523 71.7147 29.3523H282.218C283.395 29.3523 284.353 30.3102 284.353 31.4876V89.9634C284.353 91.1408 283.395 92.0986 282.218 92.0986H98.4423C97.8995 92.0986 97.3661 92.2277 96.8832 92.4765L83.2984 99.4717V95.5044C83.2984 94.4103 82.7823 93.4367 81.9805 92.8137Z" fill="white"/>
<path fill-rule="evenodd" clip-rule="evenodd" d="M129.115 202.952H38.6883V219.496C38.6883 223.799 42.1783 227.308 46.4618 227.308H131.115C127.386 217.409 127.69 209.568 129.115 202.952ZM31.9664 138.442L28.7731 136.591C27.4442 136.774 26.1379 137.265 24.9445 138.052C22.006 139.997 20.0578 143.393 19.8385 146.89C19.6353 150.147 20.9932 153.031 23.3994 154.418L31.9664 159.382V138.442ZM196.044 205.045C195.474 180.854 190.551 137.033 164.947 107.593V143.748C167.766 146.709 170.489 149.796 173.027 153.086C174.156 154.547 173.885 156.663 172.421 157.798C170.963 158.937 168.863 158.666 167.721 157.205C157.555 144.071 144.469 133.807 130.828 123.589C121.674 116.18 114.194 117.976 110.536 121.737C106.504 125.908 105.208 133.923 111.914 141.684L133.954 167.249C143.678 178.506 140.756 187.583 137.918 196.353C135.063 205.236 132.825 214.093 139.195 229.195C140.185 231.543 139.127 234.014 136.173 234.014H111.172L118.848 245.774C123.854 253.447 130.157 256.612 147.523 250.109L177.327 238.913C193.138 232.985 196.044 222.86 196.044 205.045ZM31.0213 103.681C31.0213 103.681 21.9189 98.4007 21.8996 98.4007C21.1609 97.9846 19.4643 97.6201 17.7322 97.733C16.0001 97.8459 14.2197 98.42 12.5876 99.478C9.17821 101.675 6.93004 105.594 6.7107 109.664C6.51072 113.525 8.22669 116.973 11.1458 118.699H11.1651L31.9632 130.707V104.032C31.6438 103.965 31.3277 103.852 31.0213 103.681ZM31.9664 70.0647C30.6246 69.3744 29.0925 69.0712 27.5474 69.1712C25.8186 69.297 24.0316 69.8808 22.4221 70.9452C18.9999 73.1547 16.7452 77.0737 16.5259 81.1249C16.3421 84.9858 18.0387 88.4242 19.5192 89.2822L31.9664 96.4751V70.0647ZM150.452 6.7021H46.4618C42.1783 6.7021 38.6851 10.1921 38.6851 14.4949V67.1424C38.898 67.7971 38.898 68.5035 38.6851 69.1906V196.246H130.931C130.969 196.123 131.007 196 131.045 195.875C131.208 195.342 131.373 194.803 131.538 194.298C134.308 185.712 136.137 180.038 128.88 171.639L106.84 146.067C97.8021 135.604 99.4342 123.579 105.717 117.089C111.798 110.822 123.187 108.761 134.96 118.299C143.024 124.347 150.939 130.456 158.245 137.197V94.0363H164.951V97.9846L165.505 98.3555C196.431 129.282 202.115 178.422 202.75 204.968C202.75 224.989 198.97 237.962 179.685 245.2L149.881 256.389C142.927 258.992 137.098 260.321 132.089 260.321C123.929 260.321 118.016 256.76 113.246 249.435L103.163 234.014H46.4618C38.4658 234.014 31.9825 227.498 31.9825 219.499V167.136L20.0869 160.243C20.074 160.23 20.0578 160.23 20.0385 160.23C15.4325 157.56 12.7972 152.305 13.1488 146.483C13.481 140.945 16.5743 135.571 21.2287 132.472L21.2316 132.47C21.3014 132.439 21.3651 132.41 21.4319 132.359L7.84285 124.495H7.80737C2.68528 121.502 -0.307989 115.712 0.0274627 109.325C0.350013 103.145 3.77872 97.2169 8.95242 93.8527C10.2749 92.998 11.6683 92.3432 13.0972 91.8755C10.8329 88.8306 9.62333 84.931 9.84266 80.7862C10.1588 74.6126 13.5713 68.6842 18.7612 65.307C22.8769 62.6428 27.6474 61.83 31.9664 62.9202V14.4949C31.9664 6.50212 38.4658 -0.000488281 46.4618 -0.000488281H150.452C158.448 -0.000488281 164.951 6.4989 164.951 14.4949V23.9169H158.245V14.4949C158.245 10.1921 154.752 6.7021 150.452 6.7021Z" fill="white"/>
<path d="M108.227 40.2747V80.3589H98.9508V47.7189H90.934V40.2747H108.227ZM132.37 81.046C129.048 81.046 126.09 80.2253 123.494 78.5837C120.898 76.9422 118.856 74.5753 117.367 71.4831C115.916 68.3527 115.191 64.6306 115.191 60.3168C115.191 56.003 115.916 52.3 117.367 49.2078C118.856 46.0774 120.898 43.6914 123.494 42.0499C126.09 40.4084 129.048 39.5876 132.37 39.5876C135.691 39.5876 138.649 40.4084 141.245 42.0499C143.841 43.6914 145.865 46.0774 147.315 49.2078C148.804 52.3 149.549 56.003 149.549 60.3168C149.549 64.6306 148.804 68.3527 147.315 71.4831C145.865 74.5753 143.841 76.9422 141.245 78.5837C138.649 80.2253 135.691 81.046 132.37 81.046ZM132.37 73.201C134.813 73.201 136.722 72.1512 138.096 70.0515C139.508 67.9519 140.215 64.707 140.215 60.3168C140.215 55.9266 139.508 52.6817 138.096 50.5821C136.722 48.4824 134.813 47.4326 132.37 47.4326C129.965 47.4326 128.056 48.4824 126.643 50.5821C125.269 52.6817 124.582 55.9266 124.582 60.3168C124.582 64.707 125.269 67.9519 126.643 70.0515C128.056 72.1512 129.965 73.201 132.37 73.201ZM171.235 81.046C167.913 81.046 164.955 80.2253 162.359 78.5837C159.763 76.9422 157.721 74.5753 156.232 71.4831C154.781 68.3527 154.056 64.6306 154.056 60.3168C154.056 56.003 154.781 52.3 156.232 49.2078C157.721 46.0774 159.763 43.6914 162.359 42.0499C164.955 40.4084 167.913 39.5876 171.235 39.5876C174.556 39.5876 177.515 40.4084 180.11 42.0499C182.706 43.6914 184.73 46.0774 186.18 49.2078C187.669 52.3 188.414 56.003 188.414 60.3168C188.414 64.6306 187.669 68.3527 186.18 71.4831C184.73 74.5753 182.706 76.9422 180.11 78.5837C177.515 80.2253 174.556 81.046 171.235 81.046ZM171.235 73.201C173.678 73.201 175.587 72.1512 176.961 70.0515C178.373 67.9519 179.08 64.707 179.08 60.3168C179.08 55.9266 178.373 52.6817 176.961 50.5821C175.587 48.4824 173.678 47.4326 171.235 47.4326C168.83 47.4326 166.921 48.4824 165.508 50.5821C164.134 52.6817 163.447 55.9266 163.447 60.3168C163.447 64.707 164.134 67.9519 165.508 70.0515C166.921 72.1512 168.83 73.201 171.235 73.201ZM210.1 81.046C206.779 81.046 203.82 80.2253 201.224 78.5837C198.628 76.9422 196.586 74.5753 195.097 71.4831C193.646 68.3527 192.921 64.6306 192.921 60.3168C192.921 56.003 193.646 52.3 195.097 49.2078C196.586 46.0774 198.628 43.6914 201.224 42.0499C203.82 40.4084 206.779 39.5876 210.1 39.5876C213.421 39.5876 216.38 40.4084 218.976 42.0499C221.571 43.6914 223.595 46.0774 225.045 49.2078C226.534 52.3 227.279 56.003 227.279 60.3168C227.279 64.6306 226.534 68.3527 225.045 71.4831C223.595 74.5753 221.571 76.9422 218.976 78.5837C216.38 80.2253 213.421 81.046 210.1 81.046ZM210.1 73.201C212.543 73.201 214.452 72.1512 215.826 70.0515C217.239 67.9519 217.945 64.707 217.945 60.3168C217.945 55.9266 217.239 52.6817 215.826 50.5821C214.452 48.4824 212.543 47.4326 210.1 47.4326C207.695 47.4326 205.786 48.4824 204.373 50.5821C202.999 52.6817 202.312 55.9266 202.312 60.3168C202.312 64.707 202.999 67.9519 204.373 70.0515C205.786 72.1512 207.695 73.201 210.1 73.201ZM246.159 67.2456V70.4524H258.528V75.2052H246.159V80.3589H236.825V75.2052H231.271V70.4524H236.825V40.2747H254.176C259.635 40.2747 263.891 41.42 266.945 43.7105C270.038 46.001 271.584 49.3605 271.584 53.7888C271.584 58.179 270.038 61.5193 266.945 63.8099C263.891 66.1004 259.635 67.2456 254.176 67.2456H246.159ZM262.193 53.8461C262.193 51.8991 261.486 50.4103 260.074 49.3796C258.7 48.3488 256.714 47.8335 254.119 47.8335H246.159V59.9732H254.119C256.714 59.9732 258.7 59.4579 260.074 58.4271C261.486 57.3582 262.193 55.8312 262.193 53.8461Z" fill="white"/>
</svg>
