<svg width="1920" height="1182" viewBox="0 0 1920 1182" fill="none" xmlns="http://www.w3.org/2000/svg">
<path d="M-67 679V11.5008C-2.59494 53.9263 57.2097 131.11 199.821 137.244C342.432 143.378 391.705 59.3076 445.174 45.2368C503.445 29.9022 550.982 45.2368 575.517 29.9022C602.04 13.3257 663.946 0.766602 682.859 0.766602C714.039 12.0119 811.669 65.1717 862.273 65.1717C912.877 65.1717 1023.29 45.2368 1075.42 45.2368C1127.56 45.2368 1507.86 207.783 1630.53 207.783C1753.21 207.783 1954.09 114.242 1995.5 45.2368C2000.23 37.3472 1998.56 541.5 1995.5 679H-67Z" fill="#175A33"/>
<path d="M1998.45 503L1998.45 1170.5C1934.05 1128.07 1874.24 1050.89 1731.63 1044.76C1589.02 1038.62 1539.75 1122.69 1486.28 1136.76C1428.01 1152.1 1380.47 1136.76 1355.94 1152.1C1329.41 1168.67 1267.51 1181.23 1248.59 1181.23C1217.41 1169.99 1119.78 1116.83 1069.18 1116.83C1018.58 1116.83 908.167 1136.76 856.03 1136.76C803.893 1136.76 423.596 974.217 300.92 974.217C178.244 974.217 -22.639 1067.76 -64.0422 1136.76C-68.7759 1144.65 -67.1091 640.5 -64.0422 503L1998.45 503Z" fill="#175A33"/>
</svg>
